  0
SECTION
  2
HEADER
  9
$ACADVER
  1
AC1024
  9
$ACADMAINTVER
 70
     6
  9
$DWGCODEPAGE
  3
ANSI_1252
  9
$INSBASE
 10
0.0
 20
0.0
 30
0.0
  9
$EXTMIN
 10
1.000000000000000E+20
 20
1.000000000000000E+20
 30
1.000000000000000E+20
  9
$EXTMAX
 10
-1.000000000000000E+20
 20
-1.000000000000000E+20
 30
-1.000000000000000E+20
  9
$LIMMIN
 10
0.0
 20
0.0
  9
$LIMMAX
 10
12.0
 20
9.0
  9
$ORTHOMODE
 70
     0
  9
$REGENMODE
 70
     1
  9
$FILLMODE
 70
     1
  9
$QTEXTMODE
 70
     0
  9
$MIRRTEXT
 70
     1
  9
$LTSCALE
 40
1.0
  9
$ATTMODE
 70
     1
  9
$TEXTSIZE
 40
0.2
  9
$TRACEWID
 40
0.05
  9
$TEXTSTYLE
  7
Standard
  9
$CLAYER
  8
0
  9
$CELTYPE
  6
ByLayer
  9
$CECOLOR
 62
   256
  9
$CELTSCALE
 40
1.0
  9
$DISPSILH
 70
     0
  9
$DIMSCALE
 40
1.0
  9
$DIMASZ
 40
0.18
  9
$DIMEXO
 40
0.0625
  9
$DIMDLI
 40
0.38
  9
$DIMRND
 40
0.0
  9
$DIMDLE
 40
0.0
  9
$DIMEXE
 40
0.18
  9
$DIMTP
 40
0.0
  9
$DIMTM
 40
0.0
  9
$DIMTXT
 40
0.18
  9
$DIMCEN
 40
0.09
  9
$DIMTSZ
 40
0.0
  9
$DIMTOL
 70
     0
  9
$DIMLIM
 70
     0
  9
$DIMTIH
 70
     1
  9
$DIMTOH
 70
     1
  9
$DIMSE1
 70
     0
  9
$DIMSE2
 70
     0
  9
$DIMTAD
 70
     0
  9
$DIMZIN
 70
     0
  9
$DIMBLK
  1

  9
$DIMASO
 70
     1
  9
$DIMSHO
 70
     1
  9
$DIMPOST
  1

  9
$DIMAPOST
  1

  9
$DIMALT
 70
     0
  9
$DIMALTD
 70
     2
  9
$DIMALTF
 40
25.4
  9
$DIMLFAC
 40
1.0
  9
$DIMTOFL
 70
     0
  9
$DIMTVP
 40
0.0
  9
$DIMTIX
 70
     0
  9
$DIMSOXD
 70
     0
  9
$DIMSAH
 70
     0
  9
$DIMBLK1
  1

  9
$DIMBLK2
  1

  9
$DIMSTYLE
  2
Standard
  9
$DIMCLRD
 70
     0
  9
$DIMCLRE
 70
     0
  9
$DIMCLRT
 70
     0
  9
$DIMTFAC
 40
1.0
  9
$DIMGAP
 40
0.09
  9
$DIMJUST
 70
     0
  9
$DIMSD1
 70
     0
  9
$DIMSD2
 70
     0
  9
$DIMTOLJ
 70
     1
  9
$DIMTZIN
 70
     0
  9
$DIMALTZ
 70
     0
  9
$DIMALTTZ
 70
     0
  9
$DIMUPT
 70
     0
  9
$DIMDEC
 70
     4
  9
$DIMTDEC
 70
     4
  9
$DIMALTU
 70
     2
  9
$DIMALTTD
 70
     2
  9
$DIMTXSTY
  7
Standard
  9
$DIMAUNIT
 70
     0
  9
$DIMADEC
 70
     0
  9
$DIMALTRND
 40
0.0
  9
$DIMAZIN
 70
     0
  9
$DIMDSEP
 70
    46
  9
$DIMATFIT
 70
     3
  9
$DIMFRAC
 70
     0
  9
$DIMLDRBLK
  1

  9
$DIMLUNIT
 70
     2
  9
$DIMLWD
 70
    -2
  9
$DIMLWE
 70
    -2
  9
$DIMTMOVE
 70
     0
  9
$DIMFXL
 40
1.0
  9
$DIMFXLON
 70
     0
  9
$DIMJOGANG
 40
0.7853981633974483
  9
$DIMTFILL
 70
     0
  9
$DIMTFILLCLR
 70
     0
  9
$DIMARCSYM
 70
     0
  9
$DIMLTYPE
  6

  9
$DIMLTEX1
  6

  9
$DIMLTEX2
  6

  9
$DIMTXTDIRECTION
 70
     0
  9
$LUNITS
 70
     2
  9
$LUPREC
 70
     4
  9
$SKETCHINC
 40
0.1
  9
$FILLETRAD
 40
0.5
  9
$AUNITS
 70
     0
  9
$AUPREC
 70
     0
  9
$MENU
  1
.
  9
$ELEVATION
 40
0.0
  9
$PELEVATION
 40
0.0
  9
$THICKNESS
 40
0.0
  9
$LIMCHECK
 70
     0
  9
$CHAMFERA
 40
0.5
  9
$CHAMFERB
 40
0.5
  9
$CHAMFERC
 40
1.0
  9
$CHAMFERD
 40
0.0
  9
$SKPOLY
 70
     0
  9
$TDCREATE
 40
2460509.410414271
  9
$TDUCREATE
 40
2460509.535414271
  9
$TDUPDATE
 40
2460509.410415046
  9
$TDUUPDATE
 40
2460509.535415046
  9
$TDINDWG
 40
0.0000000116
  9
$TDUSRTIMER
 40
0.0000000116
  9
$USRTIMER
 70
     1
  9
$ANGBASE
 50
0.0
  9
$ANGDIR
 70
     0
  9
$PDMODE
 70
     0
  9
$PDSIZE
 40
0.0
  9
$PLINEWID
 40
0.0
  9
$SPLFRAME
 70
     0
  9
$SPLINETYPE
 70
     6
  9
$SPLINESEGS
 70
     8
  9
$HANDSEED
  5
239
  9
$SURFTAB1
 70
     6
  9
$SURFTAB2
 70
     6
  9
$SURFTYPE
 70
     6
  9
$SURFU
 70
     6
  9
$SURFV
 70
     6
  9
$UCSBASE
  2

  9
$UCSNAME
  2

  9
$UCSORG
 10
0.0
 20
0.0
 30
0.0
  9
$UCSXDIR
 10
1.0
 20
0.0
 30
0.0
  9
$UCSYDIR
 10
0.0
 20
1.0
 30
0.0
  9
$UCSORTHOREF
  2

  9
$UCSORTHOVIEW
 70
     0
  9
$UCSORGTOP
 10
0.0
 20
0.0
 30
0.0
  9
$UCSORGBOTTOM
 10
0.0
 20
0.0
 30
0.0
  9
$UCSORGLEFT
 10
0.0
 20
0.0
 30
0.0
  9
$UCSORGRIGHT
 10
0.0
 20
0.0
 30
0.0
  9
$UCSORGFRONT
 10
0.0
 20
0.0
 30
0.0
  9
$UCSORGBACK
 10
0.0
 20
0.0
 30
0.0
  9
$PUCSBASE
  2

  9
$PUCSNAME
  2

  9
$PUCSORG
 10
0.0
 20
0.0
 30
0.0
  9
$PUCSXDIR
 10
1.0
 20
0.0
 30
0.0
  9
$PUCSYDIR
 10
0.0
 20
1.0
 30
0.0
  9
$PUCSORTHOREF
  2

  9
$PUCSORTHOVIEW
 70
     0
  9
$PUCSORGTOP
 10
0.0
 20
0.0
 30
0.0
  9
$PUCSORGBOTTOM
 10
0.0
 20
0.0
 30
0.0
  9
$PUCSORGLEFT
 10
0.0
 20
0.0
 30
0.0
  9
$PUCSORGRIGHT
 10
0.0
 20
0.0
 30
0.0
  9
$PUCSORGFRONT
 10
0.0
 20
0.0
 30
0.0
  9
$PUCSORGBACK
 10
0.0
 20
0.0
 30
0.0
  9
$USERI1
 70
     0
  9
$USERI2
 70
     0
  9
$USERI3
 70
     0
  9
$USERI4
 70
     0
  9
$USERI5
 70
     0
  9
$USERR1
 40
0.0
  9
$USERR2
 40
0.0
  9
$USERR3
 40
0.0
  9
$USERR4
 40
0.0
  9
$USERR5
 40
0.0
  9
$WORLDVIEW
 70
     1
  9
$SHADEDGE
 70
     3
  9
$SHADEDIF
 70
    70
  9
$TILEMODE
 70
     1
  9
$MAXACTVP
 70
    64
  9
$PINSBASE
 10
0.0
 20
0.0
 30
0.0
  9
$PLIMCHECK
 70
     0
  9
$PEXTMIN
 10
1.000000000000000E+20
 20
1.000000000000000E+20
 30
1.000000000000000E+20
  9
$PEXTMAX
 10
-1.000000000000000E+20
 20
-1.000000000000000E+20
 30
-1.000000000000000E+20
  9
$PLIMMIN
 10
0.0
 20
0.0
  9
$PLIMMAX
 10
12.0
 20
9.0
  9
$UNITMODE
 70
     0
  9
$VISRETAIN
 70
     1
  9
$PLINEGEN
 70
     0
  9
$PSLTSCALE
 70
     1
  9
$TREEDEPTH
 70
  3020
  9
$CMLSTYLE
  2
Standard
  9
$CMLJUST
 70
     0
  9
$CMLSCALE
 40
1.0
  9
$PROXYGRAPHICS
 70
     1
  9
$MEASUREMENT
 70
     0
  9
$CELWEIGHT
370
    -1
  9
$ENDCAPS
280
     0
  9
$JOINSTYLE
280
     0
  9
$LWDISPLAY
290
     1
  9
$INSUNITS
 70
     4
  9
$HYPERLINKBASE
  1

  9
$STYLESHEET
  1

  9
$XEDIT
290
     1
  9
$CEPSNTYPE
380
     0
  9
$PSTYLEMODE
290
     1
  9
$FINGERPRINTGUID
  2
{03E14E71-0F45-41FA-9802-85EEE36F163D}
  9
$VERSIONGUID
  2
{FAEB1C32-E019-11D5-929B-00C0DF256EC4}
  9
$EXTNAMES
290
     1
  9
$PSVPSCALE
 40
0.0
  9
$OLESTARTUP
290
     0
  9
$SORTENTS
280
   127
  9
$INDEXCTL
280
     0
  9
$HIDETEXT
280
     1
  9
$XCLIPFRAME
280
     2
  9
$HALOGAP
280
     0
  9
$OBSCOLOR
 70
   257
  9
$OBSLTYPE
280
     0
  9
$INTERSECTIONDISPLAY
280
     0
  9
$INTERSECTIONCOLOR
 70
   257
  9
$DIMASSOC
280
     2
  9
$PROJECTNAME
  1

  9
$CAMERADISPLAY
290
     0
  9
$LENSLENGTH
 40
50.0
  9
$CAMERAHEIGHT
 40
0.0
  9
$STEPSPERSEC
 40
2.0
  9
$STEPSIZE
 40
6.0
  9
$3DDWFPREC
 40
2.0
  9
$PSOLWIDTH
 40
0.25
  9
$PSOLHEIGHT
 40
4.0
  9
$LOFTANG1
 40
1.570796326794897
  9
$LOFTANG2
 40
1.570796326794897
  9
$LOFTMAG1
 40
0.0
  9
$LOFTMAG2
 40
0.0
  9
$LOFTPARAM
 70
     7
  9
$LOFTNORMALS
280
     1
  9
$LATITUDE
 40
37.795
  9
$LONGITUDE
 40
-122.394
  9
$NORTHDIRECTION
 40
0.0
  9
$TIMEZONE
 70
 -8000
  9
$LIGHTGLYPHDISPLAY
280
     1
  9
$TILEMODELIGHTSYNCH
280
     1
  9
$CMATERIAL
347
3C
  9
$SOLIDHIST
280
     1
  9
$SHOWHIST
280
     1
  9
$DWFFRAME
280
     2
  9
$DGNFRAME
280
     2
  9
$REALWORLDSCALE
290
     1
  9
$INTERFERECOLOR
 62
   256
  9
$CSHADOW
280
     0
  9
$SHADOWPLANELOCATION
 40
0.0
  0
ENDSEC
  0
SECTION
  2
CLASSES
  0
CLASS
  1
ACDBDICTIONARYWDFLT
  2
AcDbDictionaryWithDefault
  3
ObjectDBX Classes
 90
        0
 91
        4
280
     0
281
     0
  0
CLASS
  1
VISUALSTYLE
  2
AcDbVisualStyle
  3
ObjectDBX Classes
 90
     4095
 91
        4
280
     0
281
     0
  0
CLASS
  1
MATERIAL
  2
AcDbMaterial
  3
ObjectDBX Classes
 90
     1153
 91
        4
280
     0
281
     0
  0
CLASS
  1
SUN
  2
AcDbSun
  3
SCENEOE
 90
     1024
 91
        4
280
     0
281
     0
  0
ENDSEC
  0
SECTION
  2
TABLES
  0
TABLE
  2
VPORT
  5
8
330
0
100
AcDbSymbolTable
 70
     1
  0
VPORT
  5
29
330
8
100
AcDbSymbolTableRecord
100
AcDbViewportTableRecord
  2
*Active
 70
     0
 10
0.0
 20
0.0
 11
1.0
 21
1.0
 12
0.0
 22
0.0
 13
0.0
 23
0.0
 14
0.5
 24
0.5
 15
0.5
 25
0.5
 16
0.0
 26
0.0
 36
1.0
 17
72.49999998186718
 27
-17.49999999562503
 37
0.0
 40
34.99999999125006
 41
4.142857142856688
 42
50.0
 43
0.0
 44
0.0
 50
0.0
 51
0.0
 71
     0
 72
   100
 73
     1
 74
     3
 75
     0
 76
     0
 77
     0
 78
     0
281
     0
 65
     1
110
0.0
120
0.0
130
0.0
111
1.0
121
0.0
131
0.0
112
0.0
122
1.0
132
0.0
 79
     0
146
0.0
 60
     3
 61
     5
292
     1
282
     1
141
0.0
142
0.0
 63
   250
361
3F
  0
ENDTAB
  0
TABLE
  2
LTYPE
  5
5
330
0
100
AcDbSymbolTable
 70
     1
  0
LTYPE
  5
14
330
5
100
AcDbSymbolTableRecord
100
AcDbLinetypeTableRecord
  2
ByBlock
 70
     0
  3

 72
    65
 73
     0
 40
0.0
  0
LTYPE
  5
15
330
5
100
AcDbSymbolTableRecord
100
AcDbLinetypeTableRecord
  2
ByLayer
 70
     0
  3

 72
    65
 73
     0
 40
0.0
  0
LTYPE
  5
16
330
5
100
AcDbSymbolTableRecord
100
AcDbLinetypeTableRecord
  2
Continuous
 70
     0
  3
Solid line
 72
    65
 73
     0
 40
0.0
  0
ENDTAB
  0
TABLE
  2
LAYER
  5
2
330
0
100
AcDbSymbolTable
 70
     2
  0
LAYER
  5
10
330
2
100
AcDbSymbolTableRecord
100
AcDbLayerTableRecord
  2
0
 70
     0
 62
     7
  6
Continuous
370
    -3
390
F
347
3E
  0
LAYER
  5
40
330
2
100
AcDbSymbolTableRecord
100
AcDbLayerTableRecord
  2
Capa 1
 70
     0
 62
     7
  6
Continuous
370
    -3
390
F
347
3E
  0
ENDTAB
  0
TABLE
  2
STYLE
  5
3
330
0
100
AcDbSymbolTable
 70
     1
  0
STYLE
  5
11
330
3
100
AcDbSymbolTableRecord
100
AcDbTextStyleTableRecord
  2
Standard
 70
     0
 40
0.0
 41
1.0
 50
0.0
 71
     0
 42
0.2
  3
txt
  4

  0
ENDTAB
  0
TABLE
  2
VIEW
  5
6
330
0
100
AcDbSymbolTable
 70
     0
  0
ENDTAB
  0
TABLE
  2
UCS
  5
7
330
0
100
AcDbSymbolTable
 70
     0
  0
ENDTAB
  0
TABLE
  2
APPID
  5
9
330
0
100
AcDbSymbolTable
 70
     1
  0
APPID
  5
12
330
9
100
AcDbSymbolTableRecord
100
AcDbRegAppTableRecord
  2
ACAD
 70
     0
  0
ENDTAB
  0
TABLE
  2
DIMSTYLE
  5
A
330
0
100
AcDbSymbolTable
 70
     1
100
AcDbDimStyleTable
  0
DIMSTYLE
105
27
330
A
100
AcDbSymbolTableRecord
100
AcDbDimStyleTableRecord
  2
Standard
 70
     0
178
     0
340
11
  0
ENDTAB
  0
TABLE
  2
BLOCK_RECORD
  5
1
330
0
100
AcDbSymbolTable
 70
    71
  0
BLOCK_RECORD
  5
1F
330
1
100
AcDbSymbolTableRecord
100
AcDbBlockTableRecord
  2
*Model_Space
340
22
 70
     0
280
     1
281
     0
  0
BLOCK_RECORD
  5
1B
330
1
100
AcDbSymbolTableRecord
100
AcDbBlockTableRecord
  2
*Paper_Space
340
1E
 70
     0
280
     1
281
     0
  0
BLOCK_RECORD
  5
23
330
1
100
AcDbSymbolTableRecord
100
AcDbBlockTableRecord
  2
*Paper_Space0
340
26
 70
     0
280
     1
281
     0
  0
BLOCK_RECORD
  5
41
330
1
100
AcDbSymbolTableRecord
100
AcDbBlockTableRecord
  2
block 2
340
0
102
{BLKREFS
331
42
102
}
 70
     0
280
     1
281
     0
  0
BLOCK_RECORD
  5
47
330
1
100
AcDbSymbolTableRecord
100
AcDbBlockTableRecord
  2
block 3
340
0
102
{BLKREFS
331
48
102
}
 70
     0
280
     1
281
     0
  0
BLOCK_RECORD
  5
78
330
1
100
AcDbSymbolTableRecord
100
AcDbBlockTableRecord
  2
block 4
340
0
102
{BLKREFS
331
79
102
}
 70
     0
280
     1
281
     0
  0
BLOCK_RECORD
  5
7E
330
1
100
AcDbSymbolTableRecord
100
AcDbBlockTableRecord
  2
block 5
340
0
102
{BLKREFS
331
7F
102
}
 70
     0
280
     1
281
     0
  0
BLOCK_RECORD
  5
82
330
1
100
AcDbSymbolTableRecord
100
AcDbBlockTableRecord
  2
block 6
340
0
102
{BLKREFS
331
83
102
}
 70
     0
280
     1
281
     0
  0
BLOCK_RECORD
  5
88
330
1
100
AcDbSymbolTableRecord
100
AcDbBlockTableRecord
  2
block 7
340
0
102
{BLKREFS
331
89
102
}
 70
     0
280
     1
281
     0
  0
BLOCK_RECORD
  5
8C
330
1
100
AcDbSymbolTableRecord
100
AcDbBlockTableRecord
  2
block 8
340
0
102
{BLKREFS
331
8D
102
}
 70
     0
280
     1
281
     0
  0
BLOCK_RECORD
  5
92
330
1
100
AcDbSymbolTableRecord
100
AcDbBlockTableRecord
  2
block 9
340
0
102
{BLKREFS
331
93
102
}
 70
     0
280
     1
281
     0
  0
BLOCK_RECORD
  5
98
330
1
100
AcDbSymbolTableRecord
100
AcDbBlockTableRecord
  2
block 10
340
0
102
{BLKREFS
331
99
102
}
 70
     0
280
     1
281
     0
  0
BLOCK_RECORD
  5
9C
330
1
100
AcDbSymbolTableRecord
100
AcDbBlockTableRecord
  2
block 11
340
0
102
{BLKREFS
331
9D
102
}
 70
     0
280
     1
281
     0
  0
BLOCK_RECORD
  5
A2
330
1
100
AcDbSymbolTableRecord
100
AcDbBlockTableRecord
  2
block 12
340
0
102
{BLKREFS
331
A3
102
}
 70
     0
280
     1
281
     0
  0
BLOCK_RECORD
  5
A6
330
1
100
AcDbSymbolTableRecord
100
AcDbBlockTableRecord
  2
block 13
340
0
102
{BLKREFS
331
A7
102
}
 70
     0
280
     1
281
     0
  0
BLOCK_RECORD
  5
AC
330
1
100
AcDbSymbolTableRecord
100
AcDbBlockTableRecord
  2
block 14
340
0
102
{BLKREFS
331
AD
102
}
 70
     0
280
     1
281
     0
  0
BLOCK_RECORD
  5
B2
330
1
100
AcDbSymbolTableRecord
100
AcDbBlockTableRecord
  2
block 15
340
0
102
{BLKREFS
331
B3
102
}
 70
     0
280
     1
281
     0
  0
BLOCK_RECORD
  5
B6
330
1
100
AcDbSymbolTableRecord
100
AcDbBlockTableRecord
  2
block 16
340
0
102
{BLKREFS
331
B7
102
}
 70
     0
280
     1
281
     0
  0
BLOCK_RECORD
  5
BC
330
1
100
AcDbSymbolTableRecord
100
AcDbBlockTableRecord
  2
block 17
340
0
102
{BLKREFS
331
BD
102
}
 70
     0
280
     1
281
     0
  0
BLOCK_RECORD
  5
C0
330
1
100
AcDbSymbolTableRecord
100
AcDbBlockTableRecord
  2
block 18
340
0
102
{BLKREFS
331
C1
102
}
 70
     0
280
     1
281
     0
  0
BLOCK_RECORD
  5
C6
330
1
100
AcDbSymbolTableRecord
100
AcDbBlockTableRecord
  2
block 19
340
0
102
{BLKREFS
331
C7
102
}
 70
     0
280
     1
281
     0
  0
BLOCK_RECORD
  5
CC
330
1
100
AcDbSymbolTableRecord
100
AcDbBlockTableRecord
  2
block 20
340
0
102
{BLKREFS
331
CD
102
}
 70
     0
280
     1
281
     0
  0
BLOCK_RECORD
  5
D0
330
1
100
AcDbSymbolTableRecord
100
AcDbBlockTableRecord
  2
block 21
340
0
102
{BLKREFS
331
D1
102
}
 70
     0
280
     1
281
     0
  0
BLOCK_RECORD
  5
D6
330
1
100
AcDbSymbolTableRecord
100
AcDbBlockTableRecord
  2
block 22
340
0
102
{BLKREFS
331
D7
102
}
 70
     0
280
     1
281
     0
  0
BLOCK_RECORD
  5
DA
330
1
100
AcDbSymbolTableRecord
100
AcDbBlockTableRecord
  2
block 23
340
0
102
{BLKREFS
331
DB
102
}
 70
     0
280
     1
281
     0
  0
BLOCK_RECORD
  5
E0
330
1
100
AcDbSymbolTableRecord
100
AcDbBlockTableRecord
  2
block 24
340
0
102
{BLKREFS
331
E1
102
}
 70
     0
280
     1
281
     0
  0
BLOCK_RECORD
  5
E6
330
1
100
AcDbSymbolTableRecord
100
AcDbBlockTableRecord
  2
block 25
340
0
102
{BLKREFS
331
E7
102
}
 70
     0
280
     1
281
     0
  0
BLOCK_RECORD
  5
EA
330
1
100
AcDbSymbolTableRecord
100
AcDbBlockTableRecord
  2
block 26
340
0
102
{BLKREFS
331
EB
102
}
 70
     0
280
     1
281
     0
  0
BLOCK_RECORD
  5
F0
330
1
100
AcDbSymbolTableRecord
100
AcDbBlockTableRecord
  2
block 27
340
0
102
{BLKREFS
331
F1
102
}
 70
     0
280
     1
281
     0
  0
BLOCK_RECORD
  5
F4
330
1
100
AcDbSymbolTableRecord
100
AcDbBlockTableRecord
  2
block 28
340
0
102
{BLKREFS
331
F5
102
}
 70
     0
280
     1
281
     0
  0
BLOCK_RECORD
  5
FA
330
1
100
AcDbSymbolTableRecord
100
AcDbBlockTableRecord
  2
block 29
340
0
102
{BLKREFS
331
FB
102
}
 70
     0
280
     1
281
     0
  0
BLOCK_RECORD
  5
100
330
1
100
AcDbSymbolTableRecord
100
AcDbBlockTableRecord
  2
block 30
340
0
102
{BLKREFS
331
101
102
}
 70
     0
280
     1
281
     0
  0
BLOCK_RECORD
  5
106
330
1
100
AcDbSymbolTableRecord
100
AcDbBlockTableRecord
  2
block 31
340
0
102
{BLKREFS
331
107
102
}
 70
     0
280
     1
281
     0
  0
BLOCK_RECORD
  5
10C
330
1
100
AcDbSymbolTableRecord
100
AcDbBlockTableRecord
  2
block 32
340
0
102
{BLKREFS
331
10D
102
}
 70
     0
280
     1
281
     0
  0
BLOCK_RECORD
  5
112
330
1
100
AcDbSymbolTableRecord
100
AcDbBlockTableRecord
  2
block 33
340
0
102
{BLKREFS
331
113
102
}
 70
     0
280
     1
281
     0
  0
BLOCK_RECORD
  5
118
330
1
100
AcDbSymbolTableRecord
100
AcDbBlockTableRecord
  2
block 34
340
0
102
{BLKREFS
331
119
102
}
 70
     0
280
     1
281
     0
  0
BLOCK_RECORD
  5
11E
330
1
100
AcDbSymbolTableRecord
100
AcDbBlockTableRecord
  2
block 35
340
0
102
{BLKREFS
331
11F
102
}
 70
     0
280
     1
281
     0
  0
BLOCK_RECORD
  5
122
330
1
100
AcDbSymbolTableRecord
100
AcDbBlockTableRecord
  2
block 36
340
0
102
{BLKREFS
331
123
102
}
 70
     0
280
     1
281
     0
  0
BLOCK_RECORD
  5
128
330
1
100
AcDbSymbolTableRecord
100
AcDbBlockTableRecord
  2
block 37
340
0
102
{BLKREFS
331
129
102
}
 70
     0
280
     1
281
     0
  0
BLOCK_RECORD
  5
12C
330
1
100
AcDbSymbolTableRecord
100
AcDbBlockTableRecord
  2
block 38
340
0
102
{BLKREFS
331
12D
102
}
 70
     0
280
     1
281
     0
  0
BLOCK_RECORD
  5
132
330
1
100
AcDbSymbolTableRecord
100
AcDbBlockTableRecord
  2
block 39
340
0
102
{BLKREFS
331
133
102
}
 70
     0
280
     1
281
     0
  0
BLOCK_RECORD
  5
138
330
1
100
AcDbSymbolTableRecord
100
AcDbBlockTableRecord
  2
block 40
340
0
102
{BLKREFS
331
139
102
}
 70
     0
280
     1
281
     0
  0
BLOCK_RECORD
  5
13C
330
1
100
AcDbSymbolTableRecord
100
AcDbBlockTableRecord
  2
block 41
340
0
102
{BLKREFS
331
13D
102
}
 70
     0
280
     1
281
     0
  0
BLOCK_RECORD
  5
141
330
1
100
AcDbSymbolTableRecord
100
AcDbBlockTableRecord
  2
block 42
340
0
102
{BLKREFS
331
142
102
}
 70
     0
280
     1
281
     0
  0
BLOCK_RECORD
  5
14D
330
1
100
AcDbSymbolTableRecord
100
AcDbBlockTableRecord
  2
block 43
340
0
102
{BLKREFS
331
14E
102
}
 70
     0
280
     1
281
     0
  0
BLOCK_RECORD
  5
152
330
1
100
AcDbSymbolTableRecord
100
AcDbBlockTableRecord
  2
block 44
340
0
102
{BLKREFS
331
153
102
}
 70
     0
280
     1
281
     0
  0
BLOCK_RECORD
  5
15E
330
1
100
AcDbSymbolTableRecord
100
AcDbBlockTableRecord
  2
block 45
340
0
102
{BLKREFS
331
15F
102
}
 70
     0
280
     1
281
     0
  0
BLOCK_RECORD
  5
163
330
1
100
AcDbSymbolTableRecord
100
AcDbBlockTableRecord
  2
block 46
340
0
102
{BLKREFS
331
164
102
}
 70
     0
280
     1
281
     0
  0
BLOCK_RECORD
  5
16F
330
1
100
AcDbSymbolTableRecord
100
AcDbBlockTableRecord
  2
block 47
340
0
102
{BLKREFS
331
170
102
}
 70
     0
280
     1
281
     0
  0
BLOCK_RECORD
  5
174
330
1
100
AcDbSymbolTableRecord
100
AcDbBlockTableRecord
  2
block 48
340
0
102
{BLKREFS
331
175
102
}
 70
     0
280
     1
281
     0
  0
BLOCK_RECORD
  5
180
330
1
100
AcDbSymbolTableRecord
100
AcDbBlockTableRecord
  2
block 49
340
0
102
{BLKREFS
331
181
102
}
 70
     0
280
     1
281
     0
  0
BLOCK_RECORD
  5
185
330
1
100
AcDbSymbolTableRecord
100
AcDbBlockTableRecord
  2
block 50
340
0
102
{BLKREFS
331
186
102
}
 70
     0
280
     1
281
     0
  0
BLOCK_RECORD
  5
191
330
1
100
AcDbSymbolTableRecord
100
AcDbBlockTableRecord
  2
block 51
340
0
102
{BLKREFS
331
192
102
}
 70
     0
280
     1
281
     0
  0
BLOCK_RECORD
  5
196
330
1
100
AcDbSymbolTableRecord
100
AcDbBlockTableRecord
  2
block 52
340
0
102
{BLKREFS
331
197
102
}
 70
     0
280
     1
281
     0
  0
BLOCK_RECORD
  5
1A2
330
1
100
AcDbSymbolTableRecord
100
AcDbBlockTableRecord
  2
block 53
340
0
102
{BLKREFS
331
1A3
102
}
 70
     0
280
     1
281
     0
  0
BLOCK_RECORD
  5
1A6
330
1
100
AcDbSymbolTableRecord
100
AcDbBlockTableRecord
  2
block 54
340
0
102
{BLKREFS
331
1A7
102
}
 70
     0
280
     1
281
     0
  0
BLOCK_RECORD
  5
1AC
330
1
100
AcDbSymbolTableRecord
100
AcDbBlockTableRecord
  2
block 55
340
0
102
{BLKREFS
331
1AD
102
}
 70
     0
280
     1
281
     0
  0
BLOCK_RECORD
  5
1B9
330
1
100
AcDbSymbolTableRecord
100
AcDbBlockTableRecord
  2
block 56
340
0
102
{BLKREFS
331
1BA
102
}
 70
     0
280
     1
281
     0
  0
BLOCK_RECORD
  5
1BD
330
1
100
AcDbSymbolTableRecord
100
AcDbBlockTableRecord
  2
block 57
340
0
102
{BLKREFS
331
1BE
102
}
 70
     0
280
     1
281
     0
  0
BLOCK_RECORD
  5
1C3
330
1
100
AcDbSymbolTableRecord
100
AcDbBlockTableRecord
  2
block 58
340
0
102
{BLKREFS
331
1C4
102
}
 70
     0
280
     1
281
     0
  0
BLOCK_RECORD
  5
1D0
330
1
100
AcDbSymbolTableRecord
100
AcDbBlockTableRecord
  2
block 59
340
0
102
{BLKREFS
331
1D1
102
}
 70
     0
280
     1
281
     0
  0
BLOCK_RECORD
  5
1D4
330
1
100
AcDbSymbolTableRecord
100
AcDbBlockTableRecord
  2
block 60
340
0
102
{BLKREFS
331
1D5
102
}
 70
     0
280
     1
281
     0
  0
BLOCK_RECORD
  5
1DA
330
1
100
AcDbSymbolTableRecord
100
AcDbBlockTableRecord
  2
block 61
340
0
102
{BLKREFS
331
1DB
102
}
 70
     0
280
     1
281
     0
  0
BLOCK_RECORD
  5
1E7
330
1
100
AcDbSymbolTableRecord
100
AcDbBlockTableRecord
  2
block 62
340
0
102
{BLKREFS
331
1E8
102
}
 70
     0
280
     1
281
     0
  0
BLOCK_RECORD
  5
1EB
330
1
100
AcDbSymbolTableRecord
100
AcDbBlockTableRecord
  2
block 63
340
0
102
{BLKREFS
331
1EC
102
}
 70
     0
280
     1
281
     0
  0
BLOCK_RECORD
  5
1F1
330
1
100
AcDbSymbolTableRecord
100
AcDbBlockTableRecord
  2
block 64
340
0
102
{BLKREFS
331
1F2
102
}
 70
     0
280
     1
281
     0
  0
BLOCK_RECORD
  5
1FE
330
1
100
AcDbSymbolTableRecord
100
AcDbBlockTableRecord
  2
block 65
340
0
102
{BLKREFS
331
1FF
102
}
 70
     0
280
     1
281
     0
  0
BLOCK_RECORD
  5
202
330
1
100
AcDbSymbolTableRecord
100
AcDbBlockTableRecord
  2
block 66
340
0
102
{BLKREFS
331
203
102
}
 70
     0
280
     1
281
     0
  0
BLOCK_RECORD
  5
208
330
1
100
AcDbSymbolTableRecord
100
AcDbBlockTableRecord
  2
block 67
340
0
102
{BLKREFS
331
209
102
}
 70
     0
280
     1
281
     0
  0
BLOCK_RECORD
  5
215
330
1
100
AcDbSymbolTableRecord
100
AcDbBlockTableRecord
  2
block 68
340
0
102
{BLKREFS
331
216
102
}
 70
     0
280
     1
281
     0
  0
BLOCK_RECORD
  5
219
330
1
100
AcDbSymbolTableRecord
100
AcDbBlockTableRecord
  2
block 69
340
0
102
{BLKREFS
331
21A
102
}
 70
     0
280
     1
281
     0
  0
BLOCK_RECORD
  5
21F
330
1
100
AcDbSymbolTableRecord
100
AcDbBlockTableRecord
  2
block 70
340
0
102
{BLKREFS
331
220
102
}
 70
     0
280
     1
281
     0
  0
BLOCK_RECORD
  5
22B
330
1
100
AcDbSymbolTableRecord
100
AcDbBlockTableRecord
  2
block 71
340
0
102
{BLKREFS
331
22C
102
}
 70
     0
280
     1
281
     0
  0
ENDTAB
  0
ENDSEC
  0
SECTION
  2
BLOCKS
  0
BLOCK
  5
20
330
1F
100
AcDbEntity
  8
0
100
AcDbBlockBegin
  2
*Model_Space
 70
     0
 10
0.0
 20
0.0
 30
0.0
  3
*Model_Space
  1

  0
ENDBLK
  5
21
330
1F
100
AcDbEntity
  8
0
100
AcDbBlockEnd
  0
BLOCK
  5
1C
330
1B
100
AcDbEntity
 67
     1
  8
0
100
AcDbBlockBegin
  2
*Paper_Space
 70
     0
 10
0.0
 20
0.0
 30
0.0
  3
*Paper_Space
  1

  0
ENDBLK
  5
1D
330
1B
100
AcDbEntity
 67
     1
  8
0
100
AcDbBlockEnd
  0
BLOCK
  5
24
330
23
100
AcDbEntity
  8
0
100
AcDbBlockBegin
  2
*Paper_Space0
 70
     0
 10
0.0
 20
0.0
 30
0.0
  3
*Paper_Space0
  1

  0
ENDBLK
  5
25
330
23
100
AcDbEntity
  8
0
100
AcDbBlockEnd
  0
BLOCK
  5
43
330
41
100
AcDbEntity
  8
0
100
AcDbBlockBegin
  2
block 2
 70
     0
 10
0.0
 20
0.0
 30
0.0
  3
block 2
  1

  0
SPLINE
  5
45
330
41
100
AcDbEntity
  8
Capa 1
 62
   250
420
  1842203
370
    35
100
AcDbSpline
210
0.0
220
0.0
230
1.0
 70
    11
 71
     3
 72
    17
 73
    13
 74
     0
 42
0.0000000001
 43
0.0000000001
 12
1.0
 22
0.0
 32
0.0
 13
1.0
 23
0.0
 33
0.0
 40
0.0
 40
0.0
 40
0.0
 40
0.0
 40
1.0
 40
1.0
 40
1.0
 40
2.0
 40
2.0
 40
2.0
 40
3.0
 40
3.0
 40
3.0
 40
4.0
 40
4.0
 40
4.0
 40
4.0
 10
138.7497789859324
 20
-7.651000728187734
 30
0.0
 10
138.7497789859324
 20
-8.34135666528825
 30
0.0
 10
138.190134923342
 20
-8.901000727917141
 30
0.0
 10
137.4997789862877
 20
-8.901000727917141
 30
0.0
 10
136.8094230492334
 20
-8.901000727917141
 30
0.0
 10
136.2497789866417
 20
-8.34135666528825
 30
0.0
 10
136.2497789866417
 20
-7.651000728187734
 30
0.0
 10
136.2497789866417
 20
-6.960644791087218
 30
0.0
 10
136.8094230492334
 20
-6.401000728457684
 30
0.0
 10
137.4997789862877
 20
-6.401000728457684
 30
0.0
 10
138.190134923342
 20
-6.401000728457684
 30
0.0
 10
138.7497789859324
 20
-6.960644791087218
 30
0.0
 10
138.7497789859324
 20
-7.651000728187734
 30
0.0
  0
SPLINE
  5
46
330
41
100
AcDbEntity
  8
Capa 1
 62
   250
420
  1842203
370
    35
100
AcDbSpline
210
0.0
220
0.0
230
1.0
 70
    11
 71
     3
 72
    17
 73
    13
 74
     0
 42
0.0000000001
 43
0.0000000001
 12
1.0
 22
0.0
 32
0.0
 13
1.0
 23
0.0
 33
0.0
 40
0.0
 40
0.0
 40
0.0
 40
0.0
 40
1.0
 40
1.0
 40
1.0
 40
2.0
 40
2.0
 40
2.0
 40
3.0
 40
3.0
 40
3.0
 40
4.0
 40
4.0
 40
4.0
 40
4.0
 10
8.749999997770244
 20
-7.651000728187413
 30
0.0
 10
8.749999997770244
 20
-8.341356665287929
 30
0.0
 10
8.190355935179854
 20
-8.90100072791682
 30
0.0
 10
7.499999998125541
 20
-8.90100072791682
 30
0.0
 10
6.809644061071228
 20
-8.90100072791682
 30
0.0
 10
6.249999998479554
 20
-8.341356665287929
 30
0.0
 10
6.249999998479554
 20
-7.651000728187413
 30
0.0
 10
6.249999998479554
 20
-6.960644791086897
 30
0.0
 10
6.809644061071228
 20
-6.401000728457364
 30
0.0
 10
7.499999998125541
 20
-6.401000728457364
 30
0.0
 10
8.190355935179854
 20
-6.401000728457364
 30
0.0
 10
8.749999997770244
 20
-6.960644791086897
 30
0.0
 10
8.749999997770244
 20
-7.651000728187413
 30
0.0
  0
ENDBLK
  5
44
330
41
100
AcDbEntity
  8
0
100
AcDbBlockEnd
  0
BLOCK
  5
49
330
47
100
AcDbEntity
  8
0
100
AcDbBlockBegin
  2
block 3
 70
     0
 10
0.0
 20
0.0
 30
0.0
  3
block 3
  1

  0
POLYLINE
  5
4B
330
47
100
AcDbEntity
  8
Capa 1
 62
   197
420
  6693762
370
    35
100
AcDb2dPolyline
 66
     1
 10
0.0
 20
0.0
 30
0.0
  0
VERTEX
  5
4C
330
4B
100
AcDbEntity
  8
Capa 1
 62
   197
420
  6693762
370
    35
100
AcDbVertex
100
AcDb2dVertex
 10
42.90426982497286
 20
-30.37650343401805
 30
0.0
  0
VERTEX
  5
4D
330
4B
100
AcDbEntity
  8
Capa 1
 62
   197
420
  6693762
370
    35
100
AcDbVertex
100
AcDb2dVertex
 10
30.90426982797301
 20
-30.37650343401805
 30
0.0
  0
VERTEX
  5
4E
330
4B
100
AcDbEntity
  8
Capa 1
 62
   197
420
  6693762
370
    35
100
AcDbVertex
100
AcDb2dVertex
 10
30.90426982797301
 20
-18.37650343701757
 30
0.0
  0
VERTEX
  5
4F
330
4B
100
AcDbEntity
  8
Capa 1
 62
   197
420
  6693762
370
    35
100
AcDbVertex
100
AcDb2dVertex
 10
42.90426982497286
 20
-18.37650343701757
 30
0.0
  0
VERTEX
  5
50
330
4B
100
AcDbEntity
  8
Capa 1
 62
   197
420
  6693762
370
    35
100
AcDbVertex
100
AcDb2dVertex
 10
42.90426982497286
 20
-30.37650343401805
 30
0.0
  0
SEQEND
  5
51
330
4B
100
AcDbEntity
  8
Capa 1
 62
   197
420
  6693762
370
    35
  0
POLYLINE
  5
52
330
47
100
AcDbEntity
  8
Capa 1
 62
   197
420
  6693762
370
    35
100
AcDb2dPolyline
 66
     1
 10
0.0
 20
0.0
 30
0.0
  0
VERTEX
  5
53
330
52
100
AcDbEntity
  8
Capa 1
 62
   197
420
  6693762
370
    35
100
AcDbVertex
100
AcDb2dVertex
 10
19.17002478973831
 20
-30.37650343401805
 30
0.0
  0
VERTEX
  5
54
330
52
100
AcDbEntity
  8
Capa 1
 62
   197
420
  6693762
370
    35
100
AcDbVertex
100
AcDb2dVertex
 10
7.170024792738467
 20
-30.37650343401805
 30
0.0
  0
VERTEX
  5
55
330
52
100
AcDbEntity
  8
Capa 1
 62
   197
420
  6693762
370
    35
100
AcDbVertex
100
AcDb2dVertex
 10
7.170024792738467
 20
-18.37650343701757
 30
0.0
  0
VERTEX
  5
56
330
52
100
AcDbEntity
  8
Capa 1
 62
   197
420
  6693762
370
    35
100
AcDbVertex
100
AcDb2dVertex
 10
19.17002478973831
 20
-18.37650343701757
 30
0.0
  0
VERTEX
  5
57
330
52
100
AcDbEntity
  8
Capa 1
 62
   197
420
  6693762
370
    35
100
AcDbVertex
100
AcDb2dVertex
 10
19.17002478973831
 20
-30.37650343401805
 30
0.0
  0
SEQEND
  5
58
330
52
100
AcDbEntity
  8
Capa 1
 62
   197
420
  6693762
370
    35
  0
POLYLINE
  5
59
330
47
100
AcDbEntity
  8
Capa 1
 62
   197
420
  6693762
370
    35
100
AcDb2dPolyline
 66
     1
 10
0.0
 20
0.0
 30
0.0
  0
VERTEX
  5
5A
330
59
100
AcDbEntity
  8
Capa 1
 62
   197
420
  6693762
370
    35
100
AcDbVertex
100
AcDb2dVertex
 10
66.70201486019195
 20
-30.37650343401805
 30
0.0
  0
VERTEX
  5
5B
330
59
100
AcDbEntity
  8
Capa 1
 62
   197
420
  6693762
370
    35
100
AcDbVertex
100
AcDb2dVertex
 10
54.70201486319211
 20
-30.37650343401805
 30
0.0
  0
VERTEX
  5
5C
330
59
100
AcDbEntity
  8
Capa 1
 62
   197
420
  6693762
370
    35
100
AcDbVertex
100
AcDb2dVertex
 10
54.70201486319211
 20
-18.37650343701757
 30
0.0
  0
VERTEX
  5
5D
330
59
100
AcDbEntity
  8
Capa 1
 62
   197
420
  6693762
370
    35
100
AcDbVertex
100
AcDb2dVertex
 10
66.70201486019195
 20
-18.37650343701757
 30
0.0
  0
VERTEX
  5
5E
330
59
100
AcDbEntity
  8
Capa 1
 62
   197
420
  6693762
370
    35
100
AcDbVertex
100
AcDb2dVertex
 10
66.70201486019195
 20
-30.37650343401805
 30
0.0
  0
SEQEND
  5
5F
330
59
100
AcDbEntity
  8
Capa 1
 62
   197
420
  6693762
370
    35
  0
POLYLINE
  5
60
330
47
100
AcDbEntity
  8
Capa 1
 62
   197
420
  6693762
370
    35
100
AcDb2dPolyline
 66
     1
 10
0.0
 20
0.0
 30
0.0
  0
VERTEX
  5
61
330
60
100
AcDbEntity
  8
Capa 1
 62
   197
420
  6693762
370
    35
100
AcDbVertex
100
AcDb2dVertex
 10
90.43625989542682
 20
-30.37650343401805
 30
0.0
  0
VERTEX
  5
62
330
60
100
AcDbEntity
  8
Capa 1
 62
   197
420
  6693762
370
    35
100
AcDbVertex
100
AcDb2dVertex
 10
78.43625989842698
 20
-30.37650343401805
 30
0.0
  0
VERTEX
  5
63
330
60
100
AcDbEntity
  8
Capa 1
 62
   197
420
  6693762
370
    35
100
AcDbVertex
100
AcDb2dVertex
 10
78.43625989842698
 20
-18.37650343701757
 30
0.0
  0
VERTEX
  5
64
330
60
100
AcDbEntity
  8
Capa 1
 62
   197
420
  6693762
370
    35
100
AcDbVertex
100
AcDb2dVertex
 10
90.43625989542682
 20
-18.37650343701757
 30
0.0
  0
VERTEX
  5
65
330
60
100
AcDbEntity
  8
Capa 1
 62
   197
420
  6693762
370
    35
100
AcDbVertex
100
AcDb2dVertex
 10
90.43625989542682
 20
-30.37650343401805
 30
0.0
  0
SEQEND
  5
66
330
60
100
AcDbEntity
  8
Capa 1
 62
   197
420
  6693762
370
    35
  0
POLYLINE
  5
67
330
47
100
AcDbEntity
  8
Capa 1
 62
   197
420
  6693762
370
    35
100
AcDb2dPolyline
 66
     1
 10
0.0
 20
0.0
 30
0.0
  0
VERTEX
  5
68
330
67
100
AcDbEntity
  8
Capa 1
 62
   197
420
  6693762
370
    35
100
AcDbVertex
100
AcDb2dVertex
 10
114.2340049306453
 20
-30.37650343401805
 30
0.0
  0
VERTEX
  5
69
330
67
100
AcDbEntity
  8
Capa 1
 62
   197
420
  6693762
370
    35
100
AcDbVertex
100
AcDb2dVertex
 10
102.2340049336454
 20
-30.37650343401805
 30
0.0
  0
VERTEX
  5
6A
330
67
100
AcDbEntity
  8
Capa 1
 62
   197
420
  6693762
370
    35
100
AcDbVertex
100
AcDb2dVertex
 10
102.2340049336454
 20
-18.37650343701757
 30
0.0
  0
VERTEX
  5
6B
330
67
100
AcDbEntity
  8
Capa 1
 62
   197
420
  6693762
370
    35
100
AcDbVertex
100
AcDb2dVertex
 10
114.2340049306453
 20
-18.37650343701757
 30
0.0
  0
VERTEX
  5
6C
330
67
100
AcDbEntity
  8
Capa 1
 62
   197
420
  6693762
370
    35
100
AcDbVertex
100
AcDb2dVertex
 10
114.2340049306453
 20
-30.37650343401805
 30
0.0
  0
SEQEND
  5
6D
330
67
100
AcDbEntity
  8
Capa 1
 62
   197
420
  6693762
370
    35
  0
POLYLINE
  5
6E
330
47
100
AcDbEntity
  8
Capa 1
 62
   197
420
  6693762
370
    35
100
AcDb2dPolyline
 66
     1
 10
0.0
 20
0.0
 30
0.0
  0
VERTEX
  5
6F
330
6E
100
AcDbEntity
  8
Capa 1
 62
   197
420
  6693762
370
    35
100
AcDbVertex
100
AcDb2dVertex
 10
137.9682499658795
 20
-30.37650343401805
 30
0.0
  0
VERTEX
  5
70
330
6E
100
AcDbEntity
  8
Capa 1
 62
   197
420
  6693762
370
    35
100
AcDbVertex
100
AcDb2dVertex
 10
125.9682499688797
 20
-30.37650343401805
 30
0.0
  0
VERTEX
  5
71
330
6E
100
AcDbEntity
  8
Capa 1
 62
   197
420
  6693762
370
    35
100
AcDbVertex
100
AcDb2dVertex
 10
125.9682499688797
 20
-18.37650343701757
 30
0.0
  0
VERTEX
  5
72
330
6E
100
AcDbEntity
  8
Capa 1
 62
   197
420
  6693762
370
    35
100
AcDbVertex
100
AcDb2dVertex
 10
137.9682499658795
 20
-18.37650343701757
 30
0.0
  0
VERTEX
  5
73
330
6E
100
AcDbEntity
  8
Capa 1
 62
   197
420
  6693762
370
    35
100
AcDbVertex
100
AcDb2dVertex
 10
137.9682499658795
 20
-30.37650343401805
 30
0.0
  0
SEQEND
  5
74
330
6E
100
AcDbEntity
  8
Capa 1
 62
   197
420
  6693762
370
    35
  0
ENDBLK
  5
4A
330
47
100
AcDbEntity
  8
0
100
AcDbBlockEnd
  0
BLOCK
  5
7A
330
78
100
AcDbEntity
  8
0
100
AcDbBlockBegin
  2
block 4
 70
     0
 10
0.0
 20
0.0
 30
0.0
  3
block 4
  1

  0
SPLINE
  5
7C
330
78
100
AcDbEntity
  8
Capa 1
 62
   250
420
  1842203
370
    70
100
AcDbSpline
210
0.0
220
0.0
230
1.0
 70
    11
 71
     3
 72
    17
 73
    13
 74
     0
 42
0.0000000001
 43
0.0000000001
 12
1.0
 22
0.0
 32
0.0
 13
1.0
 23
0.0
 33
0.0
 40
0.0
 40
0.0
 40
0.0
 40
0.0
 40
1.0
 40
1.0
 40
1.0
 40
2.0
 40
2.0
 40
2.0
 40
3.0
 40
3.0
 40
3.0
 40
4.0
 40
4.0
 40
4.0
 40
4.0
 10
38.15426982611828
 20
-12.35282221915376
 30
0.0
 10
38.15426982611828
 20
-13.04317815625428
 30
0.0
 10
37.59462576352725
 20
-13.60282221888317
 30
0.0
 10
36.90426982647293
 20
-13.60282221888317
 30
0.0
 10
36.21391388941862
 20
-13.60282221888317
 30
0.0
 10
35.65426982682727
 20
-13.04317815625428
 30
0.0
 10
35.65426982682727
 20
-12.35282221915376
 30
0.0
 10
35.65426982682727
 20
-11.66246628205325
 30
0.0
 10
36.21391388941862
 20
-11.10282221942371
 30
0.0
 10
36.90426982647293
 20
-11.10282221942371
 30
0.0
 10
37.59462576352725
 20
-11.10282221942371
 30
0.0
 10
38.15426982611828
 20
-11.66246628205325
 30
0.0
 10
38.15426982611828
 20
-12.35282221915376
 30
0.0
  0
SPLINE
  5
7D
330
78
100
AcDbEntity
  8
Capa 1
 62
   250
420
  1842203
370
    70
100
AcDbSpline
210
0.0
220
0.0
230
1.0
 70
    11
 71
     3
 72
    17
 73
    13
 74
     0
 42
0.0000000001
 43
0.0000000001
 12
1.0
 22
0.0
 32
0.0
 13
1.0
 23
0.0
 33
0.0
 40
0.0
 40
0.0
 40
0.0
 40
0.0
 40
1.0
 40
1.0
 40
1.0
 40
2.0
 40
2.0
 40
2.0
 40
3.0
 40
3.0
 40
3.0
 40
4.0
 40
4.0
 40
4.0
 40
4.0
 10
38.15426982611828
 20
-15.3528222184034
 30
0.0
 10
38.15426982611828
 20
-16.04317815550392
 30
0.0
 10
37.59462576352725
 20
-16.60282221813345
 30
0.0
 10
36.90426982647293
 20
-16.60282221813345
 30
0.0
 10
36.21391388941862
 20
-16.60282221813345
 30
0.0
 10
35.65426982682727
 20
-16.04317815550392
 30
0.0
 10
35.65426982682727
 20
-15.3528222184034
 30
0.0
 10
35.65426982682727
 20
-14.66246628130289
 30
0.0
 10
36.21391388941862
 20
-14.10282221867399
 30
0.0
 10
36.90426982647293
 20
-14.10282221867399
 30
0.0
 10
37.59462576352725
 20
-14.10282221867399
 30
0.0
 10
38.15426982611828
 20
-14.66246628130289
 30
0.0
 10
38.15426982611828
 20
-15.3528222184034
 30
0.0
  0
ENDBLK
  5
7B
330
78
100
AcDbEntity
  8
0
100
AcDbBlockEnd
  0
BLOCK
  5
80
330
7E
100
AcDbEntity
  8
0
100
AcDbBlockBegin
  2
block 5
 70
     0
 10
0.0
 20
0.0
 30
0.0
  3
block 5
  1

  0
INSERT
  5
83
330
7E
100
AcDbEntity
  8
Capa 1
100
AcDbBlockReference
  2
block 6
 10
0.0
 20
0.0
 30
0.0
  0
INSERT
  5
89
330
7E
100
AcDbEntity
  8
Capa 1
100
AcDbBlockReference
  2
block 7
 10
0.0
 20
0.0
 30
0.0
  0
ENDBLK
  5
81
330
7E
100
AcDbEntity
  8
0
100
AcDbBlockEnd
  0
BLOCK
  5
84
330
82
100
AcDbEntity
  8
0
100
AcDbBlockBegin
  2
block 6
 70
     0
 10
0.0
 20
0.0
 30
0.0
  3
block 6
  1

  0
SPLINE
  5
86
330
82
100
AcDbEntity
  8
Capa 1
 62
   250
420
  1842203
370
    70
100
AcDbSpline
210
0.0
220
0.0
230
1.0
 70
    11
 71
     3
 72
    17
 73
    13
 74
     0
 42
0.0000000001
 43
0.0000000001
 12
1.0
 22
0.0
 32
0.0
 13
1.0
 23
0.0
 33
0.0
 40
0.0
 40
0.0
 40
0.0
 40
0.0
 40
1.0
 40
1.0
 40
1.0
 40
2.0
 40
2.0
 40
2.0
 40
3.0
 40
3.0
 40
3.0
 40
4.0
 40
4.0
 40
4.0
 40
4.0
 10
38.15426982611828
 20
-19.62650343674762
 30
0.0
 10
38.15426982611828
 20
-20.31685937384813
 30
0.0
 10
37.59462576352725
 20
-20.87650343647703
 30
0.0
 10
36.90426982647293
 20
-20.87650343647703
 30
0.0
 10
36.21391388941862
 20
-20.87650343647703
 30
0.0
 10
35.65426982682727
 20
-20.31685937384813
 30
0.0
 10
35.65426982682727
 20
-19.62650343674762
 30
0.0
 10
35.65426982682727
 20
-18.9361474996471
 30
0.0
 10
36.21391388941862
 20
-18.37650343701757
 30
0.0
 10
36.90426982647293
 20
-18.37650343701757
 30
0.0
 10
37.59462576352725
 20
-18.37650343701757
 30
0.0
 10
38.15426982611828
 20
-18.9361474996471
 30
0.0
 10
38.15426982611828
 20
-19.62650343674762
 30
0.0
  0
SPLINE
  5
87
330
82
100
AcDbEntity
  8
Capa 1
 62
   250
420
  1842203
370
    70
100
AcDbSpline
210
0.0
220
0.0
230
1.0
 70
    11
 71
     3
 72
    17
 73
    13
 74
     0
 42
0.0000000001
 43
0.0000000001
 12
1.0
 22
0.0
 32
0.0
 13
1.0
 23
0.0
 33
0.0
 40
0.0
 40
0.0
 40
0.0
 40
0.0
 40
1.0
 40
1.0
 40
1.0
 40
2.0
 40
2.0
 40
2.0
 40
3.0
 40
3.0
 40
3.0
 40
4.0
 40
4.0
 40
4.0
 40
4.0
 10
38.15426982611828
 20
-29.126503434288
 30
0.0
 10
38.15426982611828
 20
-29.81685937138851
 30
0.0
 10
37.59462576352725
 20
-30.37650343401805
 30
0.0
 10
36.90426982647293
 20
-30.37650343401805
 30
0.0
 10
36.21391388941862
 20
-30.37650343401805
 30
0.0
 10
35.65426982682727
 20
-29.81685937138851
 30
0.0
 10
35.65426982682727
 20
-29.126503434288
 30
0.0
 10
35.65426982682727
 20
-28.43614749718748
 30
0.0
 10
36.21391388941862
 20
-27.87650343455859
 30
0.0
 10
36.90426982647293
 20
-27.87650343455859
 30
0.0
 10
37.59462576352725
 20
-27.87650343455859
 30
0.0
 10
38.15426982611828
 20
-28.43614749718748
 30
0.0
 10
38.15426982611828
 20
-29.126503434288
 30
0.0
  0
ENDBLK
  5
85
330
82
100
AcDbEntity
  8
0
100
AcDbBlockEnd
  0
BLOCK
  5
8A
330
88
100
AcDbEntity
  8
0
100
AcDbBlockBegin
  2
block 7
 70
     0
 10
0.0
 20
0.0
 30
0.0
  3
block 7
  1

  0
INSERT
  5
8D
330
88
100
AcDbEntity
  8
Capa 1
100
AcDbBlockReference
  2
block 8
 10
0.0
 20
0.0
 30
0.0
  0
INSERT
  5
93
330
88
100
AcDbEntity
  8
Capa 1
100
AcDbBlockReference
  2
block 9
 10
0.0
 20
0.0
 30
0.0
  0
ENDBLK
  5
8B
330
88
100
AcDbEntity
  8
0
100
AcDbBlockEnd
  0
BLOCK
  5
8E
330
8C
100
AcDbEntity
  8
0
100
AcDbBlockBegin
  2
block 8
 70
     0
 10
0.0
 20
0.0
 30
0.0
  3
block 8
  1

  0
SPLINE
  5
90
330
8C
100
AcDbEntity
  8
Capa 1
 62
   250
420
  1842203
370
    70
100
AcDbSpline
210
0.0
220
0.0
230
1.0
 70
    11
 71
     3
 72
    17
 73
    13
 74
     0
 42
0.0000000001
 43
0.0000000001
 12
1.0
 22
0.0
 32
0.0
 13
1.0
 23
0.0
 33
0.0
 40
0.0
 40
0.0
 40
0.0
 40
0.0
 40
1.0
 40
1.0
 40
1.0
 40
2.0
 40
2.0
 40
2.0
 40
3.0
 40
3.0
 40
3.0
 40
4.0
 40
4.0
 40
4.0
 40
4.0
 10
42.90426982497286
 20
-21.87650343614306
 30
0.0
 10
42.90426982497286
 20
-22.56685937324357
 30
0.0
 10
42.34462576238182
 20
-23.12650343587246
 30
0.0
 10
41.65426982532751
 20
-23.12650343587246
 30
0.0
 10
40.96391388827288
 20
-23.12650343587246
 30
0.0
 10
40.40426982568216
 20
-22.56685937324357
 30
0.0
 10
40.40426982568216
 20
-21.87650343614306
 30
0.0
 10
40.40426982568216
 20
-21.18614749904254
 30
0.0
 10
40.96391388827288
 20
-20.62650343641301
 30
0.0
 10
41.65426982532751
 20
-20.62650343641301
 30
0.0
 10
42.34462576238182
 20
-20.62650343641301
 30
0.0
 10
42.90426982497286
 20
-21.18614749904254
 30
0.0
 10
42.90426982497286
 20
-21.87650343614306
 30
0.0
  0
SPLINE
  5
91
330
8C
100
AcDbEntity
  8
Capa 1
 62
   250
420
  1842203
370
    70
100
AcDbSpline
210
0.0
220
0.0
230
1.0
 70
    11
 71
     3
 72
    17
 73
    13
 74
     0
 42
0.0000000001
 43
0.0000000001
 12
1.0
 22
0.0
 32
0.0
 13
1.0
 23
0.0
 33
0.0
 40
0.0
 40
0.0
 40
0.0
 40
0.0
 40
1.0
 40
1.0
 40
1.0
 40
2.0
 40
2.0
 40
2.0
 40
3.0
 40
3.0
 40
3.0
 40
4.0
 40
4.0
 40
4.0
 40
4.0
 10
42.90426982497286
 20
-26.87650343489256
 30
0.0
 10
42.90426982497286
 20
-27.56685937199308
 30
0.0
 10
42.34462576238182
 20
-28.12650343462261
 30
0.0
 10
41.65426982532751
 20
-28.12650343462261
 30
0.0
 10
40.96391388827288
 20
-28.12650343462261
 30
0.0
 10
40.40426982568216
 20
-27.56685937199308
 30
0.0
 10
40.40426982568216
 20
-26.87650343489256
 30
0.0
 10
40.40426982568216
 20
-26.18614749779205
 30
0.0
 10
40.96391388827288
 20
-25.62650343516315
 30
0.0
 10
41.65426982532751
 20
-25.62650343516315
 30
0.0
 10
42.34462576238182
 20
-25.62650343516315
 30
0.0
 10
42.90426982497286
 20
-26.18614749779205
 30
0.0
 10
42.90426982497286
 20
-26.87650343489256
 30
0.0
  0
ENDBLK
  5
8F
330
8C
100
AcDbEntity
  8
0
100
AcDbBlockEnd
  0
BLOCK
  5
94
330
92
100
AcDbEntity
  8
0
100
AcDbBlockBegin
  2
block 9
 70
     0
 10
0.0
 20
0.0
 30
0.0
  3
block 9
  1

  0
SPLINE
  5
96
330
92
100
AcDbEntity
  8
Capa 1
 62
   250
420
  1842203
370
    70
100
AcDbSpline
210
0.0
220
0.0
230
1.0
 70
    11
 71
     3
 72
    17
 73
    13
 74
     0
 42
0.0000000001
 43
0.0000000001
 12
1.0
 22
0.0
 32
0.0
 13
1.0
 23
0.0
 33
0.0
 40
0.0
 40
0.0
 40
0.0
 40
0.0
 40
1.0
 40
1.0
 40
1.0
 40
2.0
 40
2.0
 40
2.0
 40
3.0
 40
3.0
 40
3.0
 40
4.0
 40
4.0
 40
4.0
 40
4.0
 10
33.4042698272637
 20
-21.87650343614306
 30
0.0
 10
33.4042698272637
 20
-22.56685937324357
 30
0.0
 10
32.84462576467267
 20
-23.12650343587246
 30
0.0
 10
32.15426982761836
 20
-23.12650343587246
 30
0.0
 10
31.46391389056405
 20
-23.12650343587246
 30
0.0
 10
30.90426982797301
 20
-22.56685937324357
 30
0.0
 10
30.90426982797301
 20
-21.87650343614306
 30
0.0
 10
30.90426982797301
 20
-21.18614749904254
 30
0.0
 10
31.46391389056405
 20
-20.62650343641301
 30
0.0
 10
32.15426982761836
 20
-20.62650343641301
 30
0.0
 10
32.84462576467267
 20
-20.62650343641301
 30
0.0
 10
33.4042698272637
 20
-21.18614749904254
 30
0.0
 10
33.4042698272637
 20
-21.87650343614306
 30
0.0
  0
SPLINE
  5
97
330
92
100
AcDbEntity
  8
Capa 1
 62
   250
420
  1842203
370
    70
100
AcDbSpline
210
0.0
220
0.0
230
1.0
 70
    11
 71
     3
 72
    17
 73
    13
 74
     0
 42
0.0000000001
 43
0.0000000001
 12
1.0
 22
0.0
 32
0.0
 13
1.0
 23
0.0
 33
0.0
 40
0.0
 40
0.0
 40
0.0
 40
0.0
 40
1.0
 40
1.0
 40
1.0
 40
2.0
 40
2.0
 40
2.0
 40
3.0
 40
3.0
 40
3.0
 40
4.0
 40
4.0
 40
4.0
 40
4.0
 10
33.4042698272637
 20
-26.87650343489256
 30
0.0
 10
33.4042698272637
 20
-27.56685937199308
 30
0.0
 10
32.84462576467267
 20
-28.12650343462261
 30
0.0
 10
32.15426982761836
 20
-28.12650343462261
 30
0.0
 10
31.46391389056405
 20
-28.12650343462261
 30
0.0
 10
30.90426982797301
 20
-27.56685937199308
 30
0.0
 10
30.90426982797301
 20
-26.87650343489256
 30
0.0
 10
30.90426982797301
 20
-26.18614749779205
 30
0.0
 10
31.46391389056405
 20
-25.62650343516315
 30
0.0
 10
32.15426982761836
 20
-25.62650343516315
 30
0.0
 10
32.84462576467267
 20
-25.62650343516315
 30
0.0
 10
33.4042698272637
 20
-26.18614749779205
 30
0.0
 10
33.4042698272637
 20
-26.87650343489256
 30
0.0
  0
ENDBLK
  5
95
330
92
100
AcDbEntity
  8
0
100
AcDbBlockEnd
  0
BLOCK
  5
9A
330
98
100
AcDbEntity
  8
0
100
AcDbBlockBegin
  2
block 10
 70
     0
 10
0.0
 20
0.0
 30
0.0
  3
block 10
  1

  0
INSERT
  5
9D
330
98
100
AcDbEntity
  8
Capa 1
100
AcDbBlockReference
  2
block 11
 10
0.0
 20
0.0
 30
0.0
  0
INSERT
  5
A3
330
98
100
AcDbEntity
  8
Capa 1
100
AcDbBlockReference
  2
block 12
 10
0.0
 20
0.0
 30
0.0
  0
ENDBLK
  5
9B
330
98
100
AcDbEntity
  8
0
100
AcDbBlockEnd
  0
BLOCK
  5
9E
330
9C
100
AcDbEntity
  8
0
100
AcDbBlockBegin
  2
block 11
 70
     0
 10
0.0
 20
0.0
 30
0.0
  3
block 11
  1

  0
SPLINE
  5
A0
330
9C
100
AcDbEntity
  8
Capa 1
 62
   250
420
  1842203
370
    70
100
AcDbSpline
210
0.0
220
0.0
230
1.0
 70
    11
 71
     3
 72
    17
 73
    13
 74
     0
 42
0.0000000001
 43
0.0000000001
 12
1.0
 22
0.0
 32
0.0
 13
1.0
 23
0.0
 33
0.0
 40
0.0
 40
0.0
 40
0.0
 40
0.0
 40
1.0
 40
1.0
 40
1.0
 40
2.0
 40
2.0
 40
2.0
 40
3.0
 40
3.0
 40
3.0
 40
4.0
 40
4.0
 40
4.0
 40
4.0
 10
61.92026486134559
 20
-19.62650343674762
 30
0.0
 10
61.92026486134559
 20
-20.31685937384813
 30
0.0
 10
61.36062079875423
 20
-20.87650343647703
 30
0.0
 10
60.67026486169992
 20
-20.87650343647703
 30
0.0
 10
59.97990892464561
 20
-20.87650343647703
 30
0.0
 10
59.42026486205457
 20
-20.31685937384813
 30
0.0
 10
59.42026486205457
 20
-19.62650343674762
 30
0.0
 10
59.42026486205457
 20
-18.9361474996471
 30
0.0
 10
59.97990892464561
 20
-18.37650343701757
 30
0.0
 10
60.67026486169992
 20
-18.37650343701757
 30
0.0
 10
61.36062079875423
 20
-18.37650343701757
 30
0.0
 10
61.92026486134559
 20
-18.9361474996471
 30
0.0
 10
61.92026486134559
 20
-19.62650343674762
 30
0.0
  0
SPLINE
  5
A1
330
9C
100
AcDbEntity
  8
Capa 1
 62
   250
420
  1842203
370
    70
100
AcDbSpline
210
0.0
220
0.0
230
1.0
 70
    11
 71
     3
 72
    17
 73
    13
 74
     0
 42
0.0000000001
 43
0.0000000001
 12
1.0
 22
0.0
 32
0.0
 13
1.0
 23
0.0
 33
0.0
 40
0.0
 40
0.0
 40
0.0
 40
0.0
 40
1.0
 40
1.0
 40
1.0
 40
2.0
 40
2.0
 40
2.0
 40
3.0
 40
3.0
 40
3.0
 40
4.0
 40
4.0
 40
4.0
 40
4.0
 10
61.92026486134559
 20
-29.126503434288
 30
0.0
 10
61.92026486134559
 20
-29.81685937138851
 30
0.0
 10
61.36062079875423
 20
-30.37650343401805
 30
0.0
 10
60.67026486169992
 20
-30.37650343401805
 30
0.0
 10
59.97990892464561
 20
-30.37650343401805
 30
0.0
 10
59.42026486205457
 20
-29.81685937138851
 30
0.0
 10
59.42026486205457
 20
-29.126503434288
 30
0.0
 10
59.42026486205457
 20
-28.43614749718748
 30
0.0
 10
59.97990892464561
 20
-27.87650343455859
 30
0.0
 10
60.67026486169992
 20
-27.87650343455859
 30
0.0
 10
61.36062079875423
 20
-27.87650343455859
 30
0.0
 10
61.92026486134559
 20
-28.43614749718748
 30
0.0
 10
61.92026486134559
 20
-29.126503434288
 30
0.0
  0
ENDBLK
  5
9F
330
9C
100
AcDbEntity
  8
0
100
AcDbBlockEnd
  0
BLOCK
  5
A4
330
A2
100
AcDbEntity
  8
0
100
AcDbBlockBegin
  2
block 12
 70
     0
 10
0.0
 20
0.0
 30
0.0
  3
block 12
  1

  0
INSERT
  5
A7
330
A2
100
AcDbEntity
  8
Capa 1
100
AcDbBlockReference
  2
block 13
 10
0.0
 20
0.0
 30
0.0
  0
INSERT
  5
AD
330
A2
100
AcDbEntity
  8
Capa 1
100
AcDbBlockReference
  2
block 14
 10
0.0
 20
0.0
 30
0.0
  0
ENDBLK
  5
A5
330
A2
100
AcDbEntity
  8
0
100
AcDbBlockEnd
  0
BLOCK
  5
A8
330
A6
100
AcDbEntity
  8
0
100
AcDbBlockBegin
  2
block 13
 70
     0
 10
0.0
 20
0.0
 30
0.0
  3
block 13
  1

  0
SPLINE
  5
AA
330
A6
100
AcDbEntity
  8
Capa 1
 62
   250
420
  1842203
370
    70
100
AcDbSpline
210
0.0
220
0.0
230
1.0
 70
    11
 71
     3
 72
    17
 73
    13
 74
     0
 42
0.0000000001
 43
0.0000000001
 12
1.0
 22
0.0
 32
0.0
 13
1.0
 23
0.0
 33
0.0
 40
0.0
 40
0.0
 40
0.0
 40
0.0
 40
1.0
 40
1.0
 40
1.0
 40
2.0
 40
2.0
 40
2.0
 40
3.0
 40
3.0
 40
3.0
 40
4.0
 40
4.0
 40
4.0
 40
4.0
 10
66.67026486019984
 20
-21.87650343614306
 30
0.0
 10
66.67026486019984
 20
-22.56685937324357
 30
0.0
 10
66.1106207976088
 20
-23.12650343587246
 30
0.0
 10
65.4202648605545
 20
-23.12650343587246
 30
0.0
 10
64.72990892350018
 20
-23.12650343587246
 30
0.0
 10
64.17026486090914
 20
-22.56685937324357
 30
0.0
 10
64.17026486090914
 20
-21.87650343614306
 30
0.0
 10
64.17026486090914
 20
-21.18614749904254
 30
0.0
 10
64.72990892350018
 20
-20.62650343641301
 30
0.0
 10
65.4202648605545
 20
-20.62650343641301
 30
0.0
 10
66.1106207976088
 20
-20.62650343641301
 30
0.0
 10
66.67026486019984
 20
-21.18614749904254
 30
0.0
 10
66.67026486019984
 20
-21.87650343614306
 30
0.0
  0
SPLINE
  5
AB
330
A6
100
AcDbEntity
  8
Capa 1
 62
   250
420
  1842203
370
    70
100
AcDbSpline
210
0.0
220
0.0
230
1.0
 70
    11
 71
     3
 72
    17
 73
    13
 74
     0
 42
0.0000000001
 43
0.0000000001
 12
1.0
 22
0.0
 32
0.0
 13
1.0
 23
0.0
 33
0.0
 40
0.0
 40
0.0
 40
0.0
 40
0.0
 40
1.0
 40
1.0
 40
1.0
 40
2.0
 40
2.0
 40
2.0
 40
3.0
 40
3.0
 40
3.0
 40
4.0
 40
4.0
 40
4.0
 40
4.0
 10
66.67026486019984
 20
-26.87650343489256
 30
0.0
 10
66.67026486019984
 20
-27.56685937199308
 30
0.0
 10
66.1106207976088
 20
-28.12650343462261
 30
0.0
 10
65.4202648605545
 20
-28.12650343462261
 30
0.0
 10
64.72990892350018
 20
-28.12650343462261
 30
0.0
 10
64.17026486090914
 20
-27.56685937199308
 30
0.0
 10
64.17026486090914
 20
-26.87650343489256
 30
0.0
 10
64.17026486090914
 20
-26.18614749779205
 30
0.0
 10
64.72990892350018
 20
-25.62650343516315
 30
0.0
 10
65.4202648605545
 20
-25.62650343516315
 30
0.0
 10
66.1106207976088
 20
-25.62650343516315
 30
0.0
 10
66.67026486019984
 20
-26.18614749779205
 30
0.0
 10
66.67026486019984
 20
-26.87650343489256
 30
0.0
  0
ENDBLK
  5
A9
330
A6
100
AcDbEntity
  8
0
100
AcDbBlockEnd
  0
BLOCK
  5
AE
330
AC
100
AcDbEntity
  8
0
100
AcDbBlockBegin
  2
block 14
 70
     0
 10
0.0
 20
0.0
 30
0.0
  3
block 14
  1

  0
SPLINE
  5
B0
330
AC
100
AcDbEntity
  8
Capa 1
 62
   250
420
  1842203
370
    70
100
AcDbSpline
210
0.0
220
0.0
230
1.0
 70
    11
 71
     3
 72
    17
 73
    13
 74
     0
 42
0.0000000001
 43
0.0000000001
 12
1.0
 22
0.0
 32
0.0
 13
1.0
 23
0.0
 33
0.0
 40
0.0
 40
0.0
 40
0.0
 40
0.0
 40
1.0
 40
1.0
 40
1.0
 40
2.0
 40
2.0
 40
2.0
 40
3.0
 40
3.0
 40
3.0
 40
4.0
 40
4.0
 40
4.0
 40
4.0
 10
57.17026486249069
 20
-21.87650343614306
 30
0.0
 10
57.17026486249069
 20
-22.56685937324357
 30
0.0
 10
56.61062079989998
 20
-23.12650343587246
 30
0.0
 10
55.92026486284534
 20
-23.12650343587246
 30
0.0
 10
55.22990892579103
 20
-23.12650343587246
 30
0.0
 10
54.6702648632
 20
-22.56685937324357
 30
0.0
 10
54.6702648632
 20
-21.87650343614306
 30
0.0
 10
54.6702648632
 20
-21.18614749904254
 30
0.0
 10
55.22990892579103
 20
-20.62650343641301
 30
0.0
 10
55.92026486284534
 20
-20.62650343641301
 30
0.0
 10
56.61062079989998
 20
-20.62650343641301
 30
0.0
 10
57.17026486249069
 20
-21.18614749904254
 30
0.0
 10
57.17026486249069
 20
-21.87650343614306
 30
0.0
  0
SPLINE
  5
B1
330
AC
100
AcDbEntity
  8
Capa 1
 62
   250
420
  1842203
370
    70
100
AcDbSpline
210
0.0
220
0.0
230
1.0
 70
    11
 71
     3
 72
    17
 73
    13
 74
     0
 42
0.0000000001
 43
0.0000000001
 12
1.0
 22
0.0
 32
0.0
 13
1.0
 23
0.0
 33
0.0
 40
0.0
 40
0.0
 40
0.0
 40
0.0
 40
1.0
 40
1.0
 40
1.0
 40
2.0
 40
2.0
 40
2.0
 40
3.0
 40
3.0
 40
3.0
 40
4.0
 40
4.0
 40
4.0
 40
4.0
 10
57.17026486249069
 20
-26.87650343489256
 30
0.0
 10
57.17026486249069
 20
-27.56685937199308
 30
0.0
 10
56.61062079989998
 20
-28.12650343462261
 30
0.0
 10
55.92026486284534
 20
-28.12650343462261
 30
0.0
 10
55.22990892579103
 20
-28.12650343462261
 30
0.0
 10
54.6702648632
 20
-27.56685937199308
 30
0.0
 10
54.6702648632
 20
-26.87650343489256
 30
0.0
 10
54.6702648632
 20
-26.18614749779205
 30
0.0
 10
55.22990892579103
 20
-25.62650343516315
 30
0.0
 10
55.92026486284534
 20
-25.62650343516315
 30
0.0
 10
56.61062079989998
 20
-25.62650343516315
 30
0.0
 10
57.17026486249069
 20
-26.18614749779205
 30
0.0
 10
57.17026486249069
 20
-26.87650343489256
 30
0.0
  0
ENDBLK
  5
AF
330
AC
100
AcDbEntity
  8
0
100
AcDbBlockEnd
  0
BLOCK
  5
B4
330
B2
100
AcDbEntity
  8
0
100
AcDbBlockBegin
  2
block 15
 70
     0
 10
0.0
 20
0.0
 30
0.0
  3
block 15
  1

  0
INSERT
  5
B7
330
B2
100
AcDbEntity
  8
Capa 1
100
AcDbBlockReference
  2
block 16
 10
0.0
 20
0.0
 30
0.0
  0
INSERT
  5
BD
330
B2
100
AcDbEntity
  8
Capa 1
100
AcDbBlockReference
  2
block 17
 10
0.0
 20
0.0
 30
0.0
  0
ENDBLK
  5
B5
330
B2
100
AcDbEntity
  8
0
100
AcDbBlockEnd
  0
BLOCK
  5
B8
330
B6
100
AcDbEntity
  8
0
100
AcDbBlockBegin
  2
block 16
 70
     0
 10
0.0
 20
0.0
 30
0.0
  3
block 16
  1

  0
SPLINE
  5
BA
330
B6
100
AcDbEntity
  8
Capa 1
 62
   250
420
  1842203
370
    70
100
AcDbSpline
210
0.0
220
0.0
230
1.0
 70
    11
 71
     3
 72
    17
 73
    13
 74
     0
 42
0.0000000001
 43
0.0000000001
 12
1.0
 22
0.0
 32
0.0
 13
1.0
 23
0.0
 33
0.0
 40
0.0
 40
0.0
 40
0.0
 40
0.0
 40
1.0
 40
1.0
 40
1.0
 40
2.0
 40
2.0
 40
2.0
 40
3.0
 40
3.0
 40
3.0
 40
4.0
 40
4.0
 40
4.0
 40
4.0
 10
85.6862598965716
 20
-19.62650343674762
 30
0.0
 10
85.6862598965716
 20
-20.31685937384813
 30
0.0
 10
85.12661583398057
 20
-20.87650343647703
 30
0.0
 10
84.43625989692626
 20
-20.87650343647703
 30
0.0
 10
83.74590395987194
 20
-20.87650343647703
 30
0.0
 10
83.18625989728092
 20
-20.31685937384813
 30
0.0
 10
83.18625989728092
 20
-19.62650343674762
 30
0.0
 10
83.18625989728092
 20
-18.9361474996471
 30
0.0
 10
83.74590395987194
 20
-18.37650343701757
 30
0.0
 10
84.43625989692626
 20
-18.37650343701757
 30
0.0
 10
85.12661583398057
 20
-18.37650343701757
 30
0.0
 10
85.6862598965716
 20
-18.9361474996471
 30
0.0
 10
85.6862598965716
 20
-19.62650343674762
 30
0.0
  0
SPLINE
  5
BB
330
B6
100
AcDbEntity
  8
Capa 1
 62
   250
420
  1842203
370
    70
100
AcDbSpline
210
0.0
220
0.0
230
1.0
 70
    11
 71
     3
 72
    17
 73
    13
 74
     0
 42
0.0000000001
 43
0.0000000001
 12
1.0
 22
0.0
 32
0.0
 13
1.0
 23
0.0
 33
0.0
 40
0.0
 40
0.0
 40
0.0
 40
0.0
 40
1.0
 40
1.0
 40
1.0
 40
2.0
 40
2.0
 40
2.0
 40
3.0
 40
3.0
 40
3.0
 40
4.0
 40
4.0
 40
4.0
 40
4.0
 10
85.6862598965716
 20
-29.126503434288
 30
0.0
 10
85.6862598965716
 20
-29.81685937138851
 30
0.0
 10
85.12661583398057
 20
-30.37650343401805
 30
0.0
 10
84.43625989692626
 20
-30.37650343401805
 30
0.0
 10
83.74590395987194
 20
-30.37650343401805
 30
0.0
 10
83.18625989728092
 20
-29.81685937138851
 30
0.0
 10
83.18625989728092
 20
-29.126503434288
 30
0.0
 10
83.18625989728092
 20
-28.43614749718748
 30
0.0
 10
83.74590395987194
 20
-27.87650343455859
 30
0.0
 10
84.43625989692626
 20
-27.87650343455859
 30
0.0
 10
85.12661583398057
 20
-27.87650343455859
 30
0.0
 10
85.6862598965716
 20
-28.43614749718748
 30
0.0
 10
85.6862598965716
 20
-29.126503434288
 30
0.0
  0
ENDBLK
  5
B9
330
B6
100
AcDbEntity
  8
0
100
AcDbBlockEnd
  0
BLOCK
  5
BE
330
BC
100
AcDbEntity
  8
0
100
AcDbBlockBegin
  2
block 17
 70
     0
 10
0.0
 20
0.0
 30
0.0
  3
block 17
  1

  0
INSERT
  5
C1
330
BC
100
AcDbEntity
  8
Capa 1
100
AcDbBlockReference
  2
block 18
 10
0.0
 20
0.0
 30
0.0
  0
INSERT
  5
C7
330
BC
100
AcDbEntity
  8
Capa 1
100
AcDbBlockReference
  2
block 19
 10
0.0
 20
0.0
 30
0.0
  0
ENDBLK
  5
BF
330
BC
100
AcDbEntity
  8
0
100
AcDbBlockEnd
  0
BLOCK
  5
C2
330
C0
100
AcDbEntity
  8
0
100
AcDbBlockBegin
  2
block 18
 70
     0
 10
0.0
 20
0.0
 30
0.0
  3
block 18
  1

  0
SPLINE
  5
C4
330
C0
100
AcDbEntity
  8
Capa 1
 62
   250
420
  1842203
370
    70
100
AcDbSpline
210
0.0
220
0.0
230
1.0
 70
    11
 71
     3
 72
    17
 73
    13
 74
     0
 42
0.0000000001
 43
0.0000000001
 12
1.0
 22
0.0
 32
0.0
 13
1.0
 23
0.0
 33
0.0
 40
0.0
 40
0.0
 40
0.0
 40
0.0
 40
1.0
 40
1.0
 40
1.0
 40
2.0
 40
2.0
 40
2.0
 40
3.0
 40
3.0
 40
3.0
 40
4.0
 40
4.0
 40
4.0
 40
4.0
 10
90.43625989542618
 20
-21.87650343614306
 30
0.0
 10
90.43625989542618
 20
-22.56685937324357
 30
0.0
 10
89.87661583283514
 20
-23.12650343587246
 30
0.0
 10
89.18625989578084
 20
-23.12650343587246
 30
0.0
 10
88.49590395872652
 20
-23.12650343587246
 30
0.0
 10
87.93625989613548
 20
-22.56685937324357
 30
0.0
 10
87.93625989613548
 20
-21.87650343614306
 30
0.0
 10
87.93625989613548
 20
-21.18614749904254
 30
0.0
 10
88.49590395872652
 20
-20.62650343641301
 30
0.0
 10
89.18625989578084
 20
-20.62650343641301
 30
0.0
 10
89.87661583283514
 20
-20.62650343641301
 30
0.0
 10
90.43625989542618
 20
-21.18614749904254
 30
0.0
 10
90.43625989542618
 20
-21.87650343614306
 30
0.0
  0
SPLINE
  5
C5
330
C0
100
AcDbEntity
  8
Capa 1
 62
   250
420
  1842203
370
    70
100
AcDbSpline
210
0.0
220
0.0
230
1.0
 70
    11
 71
     3
 72
    17
 73
    13
 74
     0
 42
0.0000000001
 43
0.0000000001
 12
1.0
 22
0.0
 32
0.0
 13
1.0
 23
0.0
 33
0.0
 40
0.0
 40
0.0
 40
0.0
 40
0.0
 40
1.0
 40
1.0
 40
1.0
 40
2.0
 40
2.0
 40
2.0
 40
3.0
 40
3.0
 40
3.0
 40
4.0
 40
4.0
 40
4.0
 40
4.0
 10
90.43625989542618
 20
-26.87650343489256
 30
0.0
 10
90.43625989542618
 20
-27.56685937199308
 30
0.0
 10
89.87661583283514
 20
-28.12650343462261
 30
0.0
 10
89.18625989578084
 20
-28.12650343462261
 30
0.0
 10
88.49590395872652
 20
-28.12650343462261
 30
0.0
 10
87.93625989613548
 20
-27.56685937199308
 30
0.0
 10
87.93625989613548
 20
-26.87650343489256
 30
0.0
 10
87.93625989613548
 20
-26.18614749779205
 30
0.0
 10
88.49590395872652
 20
-25.62650343516315
 30
0.0
 10
89.18625989578084
 20
-25.62650343516315
 30
0.0
 10
89.87661583283514
 20
-25.62650343516315
 30
0.0
 10
90.43625989542618
 20
-26.18614749779205
 30
0.0
 10
90.43625989542618
 20
-26.87650343489256
 30
0.0
  0
ENDBLK
  5
C3
330
C0
100
AcDbEntity
  8
0
100
AcDbBlockEnd
  0
BLOCK
  5
C8
330
C6
100
AcDbEntity
  8
0
100
AcDbBlockBegin
  2
block 19
 70
     0
 10
0.0
 20
0.0
 30
0.0
  3
block 19
  1

  0
SPLINE
  5
CA
330
C6
100
AcDbEntity
  8
Capa 1
 62
   250
420
  1842203
370
    70
100
AcDbSpline
210
0.0
220
0.0
230
1.0
 70
    11
 71
     3
 72
    17
 73
    13
 74
     0
 42
0.0000000001
 43
0.0000000001
 12
1.0
 22
0.0
 32
0.0
 13
1.0
 23
0.0
 33
0.0
 40
0.0
 40
0.0
 40
0.0
 40
0.0
 40
1.0
 40
1.0
 40
1.0
 40
2.0
 40
2.0
 40
2.0
 40
3.0
 40
3.0
 40
3.0
 40
4.0
 40
4.0
 40
4.0
 40
4.0
 10
80.93625989771702
 20
-21.87650343614306
 30
0.0
 10
80.93625989771702
 20
-22.56685937324357
 30
0.0
 10
80.376615835126
 20
-23.12650343587246
 30
0.0
 10
79.68625989807168
 20
-23.12650343587246
 30
0.0
 10
78.99590396101738
 20
-23.12650343587246
 30
0.0
 10
78.43625989842634
 20
-22.56685937324357
 30
0.0
 10
78.43625989842634
 20
-21.87650343614306
 30
0.0
 10
78.43625989842634
 20
-21.18614749904254
 30
0.0
 10
78.99590396101738
 20
-20.62650343641301
 30
0.0
 10
79.68625989807168
 20
-20.62650343641301
 30
0.0
 10
80.376615835126
 20
-20.62650343641301
 30
0.0
 10
80.93625989771702
 20
-21.18614749904254
 30
0.0
 10
80.93625989771702
 20
-21.87650343614306
 30
0.0
  0
SPLINE
  5
CB
330
C6
100
AcDbEntity
  8
Capa 1
 62
   250
420
  1842203
370
    70
100
AcDbSpline
210
0.0
220
0.0
230
1.0
 70
    11
 71
     3
 72
    17
 73
    13
 74
     0
 42
0.0000000001
 43
0.0000000001
 12
1.0
 22
0.0
 32
0.0
 13
1.0
 23
0.0
 33
0.0
 40
0.0
 40
0.0
 40
0.0
 40
0.0
 40
1.0
 40
1.0
 40
1.0
 40
2.0
 40
2.0
 40
2.0
 40
3.0
 40
3.0
 40
3.0
 40
4.0
 40
4.0
 40
4.0
 40
4.0
 10
80.93625989771702
 20
-26.87650343489256
 30
0.0
 10
80.93625989771702
 20
-27.56685937199308
 30
0.0
 10
80.376615835126
 20
-28.12650343462261
 30
0.0
 10
79.68625989807168
 20
-28.12650343462261
 30
0.0
 10
78.99590396101738
 20
-28.12650343462261
 30
0.0
 10
78.43625989842634
 20
-27.56685937199308
 30
0.0
 10
78.43625989842634
 20
-26.87650343489256
 30
0.0
 10
78.43625989842634
 20
-26.18614749779205
 30
0.0
 10
78.99590396101738
 20
-25.62650343516315
 30
0.0
 10
79.68625989807168
 20
-25.62650343516315
 30
0.0
 10
80.376615835126
 20
-25.62650343516315
 30
0.0
 10
80.93625989771702
 20
-26.18614749779205
 30
0.0
 10
80.93625989771702
 20
-26.87650343489256
 30
0.0
  0
ENDBLK
  5
C9
330
C6
100
AcDbEntity
  8
0
100
AcDbBlockEnd
  0
BLOCK
  5
CE
330
CC
100
AcDbEntity
  8
0
100
AcDbBlockBegin
  2
block 20
 70
     0
 10
0.0
 20
0.0
 30
0.0
  3
block 20
  1

  0
INSERT
  5
D1
330
CC
100
AcDbEntity
  8
Capa 1
100
AcDbBlockReference
  2
block 21
 10
0.0
 20
0.0
 30
0.0
  0
INSERT
  5
D7
330
CC
100
AcDbEntity
  8
Capa 1
100
AcDbBlockReference
  2
block 22
 10
0.0
 20
0.0
 30
0.0
  0
ENDBLK
  5
CF
330
CC
100
AcDbEntity
  8
0
100
AcDbBlockEnd
  0
BLOCK
  5
D2
330
D0
100
AcDbEntity
  8
0
100
AcDbBlockBegin
  2
block 21
 70
     0
 10
0.0
 20
0.0
 30
0.0
  3
block 21
  1

  0
SPLINE
  5
D4
330
D0
100
AcDbEntity
  8
Capa 1
 62
   250
420
  1842203
370
    70
100
AcDbSpline
210
0.0
220
0.0
230
1.0
 70
    11
 71
     3
 72
    17
 73
    13
 74
     0
 42
0.0000000001
 43
0.0000000001
 12
1.0
 22
0.0
 32
0.0
 13
1.0
 23
0.0
 33
0.0
 40
0.0
 40
0.0
 40
0.0
 40
0.0
 40
1.0
 40
1.0
 40
1.0
 40
2.0
 40
2.0
 40
2.0
 40
3.0
 40
3.0
 40
3.0
 40
4.0
 40
4.0
 40
4.0
 40
4.0
 10
109.4152058266476
 20
-19.62650343674762
 30
0.0
 10
109.4152058266476
 20
-20.31685937384813
 30
0.0
 10
108.8555617640565
 20
-20.87650343647703
 30
0.0
 10
108.1652058270022
 20
-20.87650343647703
 30
0.0
 10
107.4748498899479
 20
-20.87650343647703
 30
0.0
 10
106.9152058273569
 20
-20.31685937384813
 30
0.0
 10
106.9152058273569
 20
-19.62650343674762
 30
0.0
 10
106.9152058273569
 20
-18.9361474996471
 30
0.0
 10
107.4748498899479
 20
-18.37650343701757
 30
0.0
 10
108.1652058270022
 20
-18.37650343701757
 30
0.0
 10
108.8555617640565
 20
-18.37650343701757
 30
0.0
 10
109.4152058266476
 20
-18.9361474996471
 30
0.0
 10
109.4152058266476
 20
-19.62650343674762
 30
0.0
  0
SPLINE
  5
D5
330
D0
100
AcDbEntity
  8
Capa 1
 62
   250
420
  1842203
370
    70
100
AcDbSpline
210
0.0
220
0.0
230
1.0
 70
    11
 71
     3
 72
    17
 73
    13
 74
     0
 42
0.0000000001
 43
0.0000000001
 12
1.0
 22
0.0
 32
0.0
 13
1.0
 23
0.0
 33
0.0
 40
0.0
 40
0.0
 40
0.0
 40
0.0
 40
1.0
 40
1.0
 40
1.0
 40
2.0
 40
2.0
 40
2.0
 40
3.0
 40
3.0
 40
3.0
 40
4.0
 40
4.0
 40
4.0
 40
4.0
 10
109.4152058266476
 20
-29.126503434288
 30
0.0
 10
109.4152058266476
 20
-29.81685937138851
 30
0.0
 10
108.8555617640565
 20
-30.37650343401805
 30
0.0
 10
108.1652058270022
 20
-30.37650343401805
 30
0.0
 10
107.4748498899479
 20
-30.37650343401805
 30
0.0
 10
106.9152058273569
 20
-29.81685937138851
 30
0.0
 10
106.9152058273569
 20
-29.126503434288
 30
0.0
 10
106.9152058273569
 20
-28.43614749718748
 30
0.0
 10
107.4748498899479
 20
-27.87650343455859
 30
0.0
 10
108.1652058270022
 20
-27.87650343455859
 30
0.0
 10
108.8555617640565
 20
-27.87650343455859
 30
0.0
 10
109.4152058266476
 20
-28.43614749718748
 30
0.0
 10
109.4152058266476
 20
-29.126503434288
 30
0.0
  0
ENDBLK
  5
D3
330
D0
100
AcDbEntity
  8
0
100
AcDbBlockEnd
  0
BLOCK
  5
D8
330
D6
100
AcDbEntity
  8
0
100
AcDbBlockBegin
  2
block 22
 70
     0
 10
0.0
 20
0.0
 30
0.0
  3
block 22
  1

  0
INSERT
  5
DB
330
D6
100
AcDbEntity
  8
Capa 1
100
AcDbBlockReference
  2
block 23
 10
0.0
 20
0.0
 30
0.0
  0
INSERT
  5
E1
330
D6
100
AcDbEntity
  8
Capa 1
100
AcDbBlockReference
  2
block 24
 10
0.0
 20
0.0
 30
0.0
  0
ENDBLK
  5
D9
330
D6
100
AcDbEntity
  8
0
100
AcDbBlockEnd
  0
BLOCK
  5
DC
330
DA
100
AcDbEntity
  8
0
100
AcDbBlockBegin
  2
block 23
 70
     0
 10
0.0
 20
0.0
 30
0.0
  3
block 23
  1

  0
SPLINE
  5
DE
330
DA
100
AcDbEntity
  8
Capa 1
 62
   250
420
  1842203
370
    70
100
AcDbSpline
210
0.0
220
0.0
230
1.0
 70
    11
 71
     3
 72
    17
 73
    13
 74
     0
 42
0.0000000001
 43
0.0000000001
 12
1.0
 22
0.0
 32
0.0
 13
1.0
 23
0.0
 33
0.0
 40
0.0
 40
0.0
 40
0.0
 40
0.0
 40
1.0
 40
1.0
 40
1.0
 40
2.0
 40
2.0
 40
2.0
 40
3.0
 40
3.0
 40
3.0
 40
4.0
 40
4.0
 40
4.0
 40
4.0
 10
114.1652058255021
 20
-21.87650343614306
 30
0.0
 10
114.1652058255021
 20
-22.56685937324357
 30
0.0
 10
113.6055617629111
 20
-23.12650343587246
 30
0.0
 10
112.9152058258568
 20
-23.12650343587246
 30
0.0
 10
112.2248498888025
 20
-23.12650343587246
 30
0.0
 10
111.6652058262114
 20
-22.56685937324357
 30
0.0
 10
111.6652058262114
 20
-21.87650343614306
 30
0.0
 10
111.6652058262114
 20
-21.18614749904254
 30
0.0
 10
112.2248498888025
 20
-20.62650343641301
 30
0.0
 10
112.9152058258568
 20
-20.62650343641301
 30
0.0
 10
113.6055617629111
 20
-20.62650343641301
 30
0.0
 10
114.1652058255021
 20
-21.18614749904254
 30
0.0
 10
114.1652058255021
 20
-21.87650343614306
 30
0.0
  0
SPLINE
  5
DF
330
DA
100
AcDbEntity
  8
Capa 1
 62
   250
420
  1842203
370
    70
100
AcDbSpline
210
0.0
220
0.0
230
1.0
 70
    11
 71
     3
 72
    17
 73
    13
 74
     0
 42
0.0000000001
 43
0.0000000001
 12
1.0
 22
0.0
 32
0.0
 13
1.0
 23
0.0
 33
0.0
 40
0.0
 40
0.0
 40
0.0
 40
0.0
 40
1.0
 40
1.0
 40
1.0
 40
2.0
 40
2.0
 40
2.0
 40
3.0
 40
3.0
 40
3.0
 40
4.0
 40
4.0
 40
4.0
 40
4.0
 10
114.1652058255021
 20
-26.87650343489256
 30
0.0
 10
114.1652058255021
 20
-27.56685937199308
 30
0.0
 10
113.6055617629111
 20
-28.12650343462261
 30
0.0
 10
112.9152058258568
 20
-28.12650343462261
 30
0.0
 10
112.2248498888025
 20
-28.12650343462261
 30
0.0
 10
111.6652058262114
 20
-27.56685937199308
 30
0.0
 10
111.6652058262114
 20
-26.87650343489256
 30
0.0
 10
111.6652058262114
 20
-26.18614749779205
 30
0.0
 10
112.2248498888025
 20
-25.62650343516315
 30
0.0
 10
112.9152058258568
 20
-25.62650343516315
 30
0.0
 10
113.6055617629111
 20
-25.62650343516315
 30
0.0
 10
114.1652058255021
 20
-26.18614749779205
 30
0.0
 10
114.1652058255021
 20
-26.87650343489256
 30
0.0
  0
ENDBLK
  5
DD
330
DA
100
AcDbEntity
  8
0
100
AcDbBlockEnd
  0
BLOCK
  5
E2
330
E0
100
AcDbEntity
  8
0
100
AcDbBlockBegin
  2
block 24
 70
     0
 10
0.0
 20
0.0
 30
0.0
  3
block 24
  1

  0
SPLINE
  5
E4
330
E0
100
AcDbEntity
  8
Capa 1
 62
   250
420
  1842203
370
    70
100
AcDbSpline
210
0.0
220
0.0
230
1.0
 70
    11
 71
     3
 72
    17
 73
    13
 74
     0
 42
0.0000000001
 43
0.0000000001
 12
1.0
 22
0.0
 32
0.0
 13
1.0
 23
0.0
 33
0.0
 40
0.0
 40
0.0
 40
0.0
 40
0.0
 40
1.0
 40
1.0
 40
1.0
 40
2.0
 40
2.0
 40
2.0
 40
3.0
 40
3.0
 40
3.0
 40
4.0
 40
4.0
 40
4.0
 40
4.0
 10
104.665205827793
 20
-21.87650343614306
 30
0.0
 10
104.665205827793
 20
-22.56685937324357
 30
0.0
 10
104.105561765202
 20
-23.12650343587246
 30
0.0
 10
103.4152058281476
 20
-23.12650343587246
 30
0.0
 10
102.7248498910933
 20
-23.12650343587246
 30
0.0
 10
102.1652058285023
 20
-22.56685937324357
 30
0.0
 10
102.1652058285023
 20
-21.87650343614306
 30
0.0
 10
102.1652058285023
 20
-21.18614749904254
 30
0.0
 10
102.7248498910933
 20
-20.62650343641301
 30
0.0
 10
103.4152058281476
 20
-20.62650343641301
 30
0.0
 10
104.105561765202
 20
-20.62650343641301
 30
0.0
 10
104.665205827793
 20
-21.18614749904254
 30
0.0
 10
104.665205827793
 20
-21.87650343614306
 30
0.0
  0
SPLINE
  5
E5
330
E0
100
AcDbEntity
  8
Capa 1
 62
   250
420
  1842203
370
    70
100
AcDbSpline
210
0.0
220
0.0
230
1.0
 70
    11
 71
     3
 72
    17
 73
    13
 74
     0
 42
0.0000000001
 43
0.0000000001
 12
1.0
 22
0.0
 32
0.0
 13
1.0
 23
0.0
 33
0.0
 40
0.0
 40
0.0
 40
0.0
 40
0.0
 40
1.0
 40
1.0
 40
1.0
 40
2.0
 40
2.0
 40
2.0
 40
3.0
 40
3.0
 40
3.0
 40
4.0
 40
4.0
 40
4.0
 40
4.0
 10
104.665205827793
 20
-26.87650343489256
 30
0.0
 10
104.665205827793
 20
-27.56685937199308
 30
0.0
 10
104.105561765202
 20
-28.12650343462261
 30
0.0
 10
103.4152058281476
 20
-28.12650343462261
 30
0.0
 10
102.7248498910933
 20
-28.12650343462261
 30
0.0
 10
102.1652058285023
 20
-27.56685937199308
 30
0.0
 10
102.1652058285023
 20
-26.87650343489256
 30
0.0
 10
102.1652058285023
 20
-26.18614749779205
 30
0.0
 10
102.7248498910933
 20
-25.62650343516315
 30
0.0
 10
103.4152058281476
 20
-25.62650343516315
 30
0.0
 10
104.105561765202
 20
-25.62650343516315
 30
0.0
 10
104.665205827793
 20
-26.18614749779205
 30
0.0
 10
104.665205827793
 20
-26.87650343489256
 30
0.0
  0
ENDBLK
  5
E3
330
E0
100
AcDbEntity
  8
0
100
AcDbBlockEnd
  0
BLOCK
  5
E8
330
E6
100
AcDbEntity
  8
0
100
AcDbBlockBegin
  2
block 25
 70
     0
 10
0.0
 20
0.0
 30
0.0
  3
block 25
  1

  0
INSERT
  5
EB
330
E6
100
AcDbEntity
  8
Capa 1
100
AcDbBlockReference
  2
block 26
 10
0.0
 20
0.0
 30
0.0
  0
INSERT
  5
F1
330
E6
100
AcDbEntity
  8
Capa 1
100
AcDbBlockReference
  2
block 27
 10
0.0
 20
0.0
 30
0.0
  0
ENDBLK
  5
E9
330
E6
100
AcDbEntity
  8
0
100
AcDbBlockEnd
  0
BLOCK
  5
EC
330
EA
100
AcDbEntity
  8
0
100
AcDbBlockBegin
  2
block 26
 70
     0
 10
0.0
 20
0.0
 30
0.0
  3
block 26
  1

  0
SPLINE
  5
EE
330
EA
100
AcDbEntity
  8
Capa 1
 62
   250
420
  1842203
370
    70
100
AcDbSpline
210
0.0
220
0.0
230
1.0
 70
    11
 71
     3
 72
    17
 73
    13
 74
     0
 42
0.0000000001
 43
0.0000000001
 12
1.0
 22
0.0
 32
0.0
 13
1.0
 23
0.0
 33
0.0
 40
0.0
 40
0.0
 40
0.0
 40
0.0
 40
1.0
 40
1.0
 40
1.0
 40
2.0
 40
2.0
 40
2.0
 40
3.0
 40
3.0
 40
3.0
 40
4.0
 40
4.0
 40
4.0
 40
4.0
 10
133.2182499670243
 20
-19.62650343674762
 30
0.0
 10
133.2182499670243
 20
-20.31685937384813
 30
0.0
 10
132.6586059044332
 20
-20.87650343647703
 30
0.0
 10
131.9682499673789
 20
-20.87650343647703
 30
0.0
 10
131.2778940303246
 20
-20.87650343647703
 30
0.0
 10
130.7182499677336
 20
-20.31685937384813
 30
0.0
 10
130.7182499677336
 20
-19.62650343674762
 30
0.0
 10
130.7182499677336
 20
-18.9361474996471
 30
0.0
 10
131.2778940303246
 20
-18.37650343701757
 30
0.0
 10
131.9682499673789
 20
-18.37650343701757
 30
0.0
 10
132.6586059044332
 20
-18.37650343701757
 30
0.0
 10
133.2182499670243
 20
-18.9361474996471
 30
0.0
 10
133.2182499670243
 20
-19.62650343674762
 30
0.0
  0
SPLINE
  5
EF
330
EA
100
AcDbEntity
  8
Capa 1
 62
   250
420
  1842203
370
    70
100
AcDbSpline
210
0.0
220
0.0
230
1.0
 70
    11
 71
     3
 72
    17
 73
    13
 74
     0
 42
0.0000000001
 43
0.0000000001
 12
1.0
 22
0.0
 32
0.0
 13
1.0
 23
0.0
 33
0.0
 40
0.0
 40
0.0
 40
0.0
 40
0.0
 40
1.0
 40
1.0
 40
1.0
 40
2.0
 40
2.0
 40
2.0
 40
3.0
 40
3.0
 40
3.0
 40
4.0
 40
4.0
 40
4.0
 40
4.0
 10
133.2182499670243
 20
-29.126503434288
 30
0.0
 10
133.2182499670243
 20
-29.81685937138851
 30
0.0
 10
132.6586059044332
 20
-30.37650343401805
 30
0.0
 10
131.9682499673789
 20
-30.37650343401805
 30
0.0
 10
131.2778940303246
 20
-30.37650343401805
 30
0.0
 10
130.7182499677336
 20
-29.81685937138851
 30
0.0
 10
130.7182499677336
 20
-29.126503434288
 30
0.0
 10
130.7182499677336
 20
-28.43614749718748
 30
0.0
 10
131.2778940303246
 20
-27.87650343455859
 30
0.0
 10
131.9682499673789
 20
-27.87650343455859
 30
0.0
 10
132.6586059044332
 20
-27.87650343455859
 30
0.0
 10
133.2182499670243
 20
-28.43614749718748
 30
0.0
 10
133.2182499670243
 20
-29.126503434288
 30
0.0
  0
ENDBLK
  5
ED
330
EA
100
AcDbEntity
  8
0
100
AcDbBlockEnd
  0
BLOCK
  5
F2
330
F0
100
AcDbEntity
  8
0
100
AcDbBlockBegin
  2
block 27
 70
     0
 10
0.0
 20
0.0
 30
0.0
  3
block 27
  1

  0
INSERT
  5
F5
330
F0
100
AcDbEntity
  8
Capa 1
100
AcDbBlockReference
  2
block 28
 10
0.0
 20
0.0
 30
0.0
  0
INSERT
  5
FB
330
F0
100
AcDbEntity
  8
Capa 1
100
AcDbBlockReference
  2
block 29
 10
0.0
 20
0.0
 30
0.0
  0
ENDBLK
  5
F3
330
F0
100
AcDbEntity
  8
0
100
AcDbBlockEnd
  0
BLOCK
  5
F6
330
F4
100
AcDbEntity
  8
0
100
AcDbBlockBegin
  2
block 28
 70
     0
 10
0.0
 20
0.0
 30
0.0
  3
block 28
  1

  0
SPLINE
  5
F8
330
F4
100
AcDbEntity
  8
Capa 1
 62
   250
420
  1842203
370
    70
100
AcDbSpline
210
0.0
220
0.0
230
1.0
 70
    11
 71
     3
 72
    17
 73
    13
 74
     0
 42
0.0000000001
 43
0.0000000001
 12
1.0
 22
0.0
 32
0.0
 13
1.0
 23
0.0
 33
0.0
 40
0.0
 40
0.0
 40
0.0
 40
0.0
 40
1.0
 40
1.0
 40
1.0
 40
2.0
 40
2.0
 40
2.0
 40
3.0
 40
3.0
 40
3.0
 40
4.0
 40
4.0
 40
4.0
 40
4.0
 10
137.9682499658789
 20
-21.87650343614306
 30
0.0
 10
137.9682499658789
 20
-22.56685937324357
 30
0.0
 10
137.4086059032878
 20
-23.12650343587246
 30
0.0
 10
136.7182499662335
 20
-23.12650343587246
 30
0.0
 10
136.0278940291792
 20
-23.12650343587246
 30
0.0
 10
135.4682499665882
 20
-22.56685937324357
 30
0.0
 10
135.4682499665882
 20
-21.87650343614306
 30
0.0
 10
135.4682499665882
 20
-21.18614749904254
 30
0.0
 10
136.0278940291792
 20
-20.62650343641301
 30
0.0
 10
136.7182499662335
 20
-20.62650343641301
 30
0.0
 10
137.4086059032878
 20
-20.62650343641301
 30
0.0
 10
137.9682499658789
 20
-21.18614749904254
 30
0.0
 10
137.9682499658789
 20
-21.87650343614306
 30
0.0
  0
SPLINE
  5
F9
330
F4
100
AcDbEntity
  8
Capa 1
 62
   250
420
  1842203
370
    70
100
AcDbSpline
210
0.0
220
0.0
230
1.0
 70
    11
 71
     3
 72
    17
 73
    13
 74
     0
 42
0.0000000001
 43
0.0000000001
 12
1.0
 22
0.0
 32
0.0
 13
1.0
 23
0.0
 33
0.0
 40
0.0
 40
0.0
 40
0.0
 40
0.0
 40
1.0
 40
1.0
 40
1.0
 40
2.0
 40
2.0
 40
2.0
 40
3.0
 40
3.0
 40
3.0
 40
4.0
 40
4.0
 40
4.0
 40
4.0
 10
137.9682499658789
 20
-26.87650343489256
 30
0.0
 10
137.9682499658789
 20
-27.56685937199308
 30
0.0
 10
137.4086059032878
 20
-28.12650343462261
 30
0.0
 10
136.7182499662335
 20
-28.12650343462261
 30
0.0
 10
136.0278940291792
 20
-28.12650343462261
 30
0.0
 10
135.4682499665882
 20
-27.56685937199308
 30
0.0
 10
135.4682499665882
 20
-26.87650343489256
 30
0.0
 10
135.4682499665882
 20
-26.18614749779205
 30
0.0
 10
136.0278940291792
 20
-25.62650343516315
 30
0.0
 10
136.7182499662335
 20
-25.62650343516315
 30
0.0
 10
137.4086059032878
 20
-25.62650343516315
 30
0.0
 10
137.9682499658789
 20
-26.18614749779205
 30
0.0
 10
137.9682499658789
 20
-26.87650343489256
 30
0.0
  0
ENDBLK
  5
F7
330
F4
100
AcDbEntity
  8
0
100
AcDbBlockEnd
  0
BLOCK
  5
FC
330
FA
100
AcDbEntity
  8
0
100
AcDbBlockBegin
  2
block 29
 70
     0
 10
0.0
 20
0.0
 30
0.0
  3
block 29
  1

  0
SPLINE
  5
FE
330
FA
100
AcDbEntity
  8
Capa 1
 62
   250
420
  1842203
370
    70
100
AcDbSpline
210
0.0
220
0.0
230
1.0
 70
    11
 71
     3
 72
    17
 73
    13
 74
     0
 42
0.0000000001
 43
0.0000000001
 12
1.0
 22
0.0
 32
0.0
 13
1.0
 23
0.0
 33
0.0
 40
0.0
 40
0.0
 40
0.0
 40
0.0
 40
1.0
 40
1.0
 40
1.0
 40
2.0
 40
2.0
 40
2.0
 40
3.0
 40
3.0
 40
3.0
 40
4.0
 40
4.0
 40
4.0
 40
4.0
 10
128.4682499681697
 20
-21.87650343614306
 30
0.0
 10
128.4682499681697
 20
-22.56685937324357
 30
0.0
 10
127.9086059055787
 20
-23.12650343587246
 30
0.0
 10
127.2182499685244
 20
-23.12650343587246
 30
0.0
 10
126.5278940314701
 20
-23.12650343587246
 30
0.0
 10
125.968249968879
 20
-22.56685937324357
 30
0.0
 10
125.968249968879
 20
-21.87650343614306
 30
0.0
 10
125.968249968879
 20
-21.18614749904254
 30
0.0
 10
126.5278940314701
 20
-20.62650343641301
 30
0.0
 10
127.2182499685244
 20
-20.62650343641301
 30
0.0
 10
127.9086059055787
 20
-20.62650343641301
 30
0.0
 10
128.4682499681697
 20
-21.18614749904254
 30
0.0
 10
128.4682499681697
 20
-21.87650343614306
 30
0.0
  0
SPLINE
  5
FF
330
FA
100
AcDbEntity
  8
Capa 1
 62
   250
420
  1842203
370
    70
100
AcDbSpline
210
0.0
220
0.0
230
1.0
 70
    11
 71
     3
 72
    17
 73
    13
 74
     0
 42
0.0000000001
 43
0.0000000001
 12
1.0
 22
0.0
 32
0.0
 13
1.0
 23
0.0
 33
0.0
 40
0.0
 40
0.0
 40
0.0
 40
0.0
 40
1.0
 40
1.0
 40
1.0
 40
2.0
 40
2.0
 40
2.0
 40
3.0
 40
3.0
 40
3.0
 40
4.0
 40
4.0
 40
4.0
 40
4.0
 10
128.4682499681697
 20
-26.87650343489256
 30
0.0
 10
128.4682499681697
 20
-27.56685937199308
 30
0.0
 10
127.9086059055787
 20
-28.12650343462261
 30
0.0
 10
127.2182499685244
 20
-28.12650343462261
 30
0.0
 10
126.5278940314701
 20
-28.12650343462261
 30
0.0
 10
125.968249968879
 20
-27.56685937199308
 30
0.0
 10
125.968249968879
 20
-26.87650343489256
 30
0.0
 10
125.968249968879
 20
-26.18614749779205
 30
0.0
 10
126.5278940314701
 20
-25.62650343516315
 30
0.0
 10
127.2182499685244
 20
-25.62650343516315
 30
0.0
 10
127.9086059055787
 20
-25.62650343516315
 30
0.0
 10
128.4682499681697
 20
-26.18614749779205
 30
0.0
 10
128.4682499681697
 20
-26.87650343489256
 30
0.0
  0
ENDBLK
  5
FD
330
FA
100
AcDbEntity
  8
0
100
AcDbBlockEnd
  0
BLOCK
  5
102
330
100
100
AcDbEntity
  8
0
100
AcDbBlockBegin
  2
block 30
 70
     0
 10
0.0
 20
0.0
 30
0.0
  3
block 30
  1

  0
SPLINE
  5
104
330
100
100
AcDbEntity
  8
Capa 1
 62
   250
420
  1842203
370
    70
100
AcDbSpline
210
0.0
220
0.0
230
1.0
 70
    11
 71
     3
 72
    17
 73
    13
 74
     0
 42
0.0000000001
 43
0.0000000001
 12
1.0
 22
0.0
 32
0.0
 13
1.0
 23
0.0
 33
0.0
 40
0.0
 40
0.0
 40
0.0
 40
0.0
 40
1.0
 40
1.0
 40
1.0
 40
2.0
 40
2.0
 40
2.0
 40
3.0
 40
3.0
 40
3.0
 40
4.0
 40
4.0
 40
4.0
 40
4.0
 10
14.42002479088373
 20
-12.35282221915376
 30
0.0
 10
14.42002479088373
 20
-13.04317815625428
 30
0.0
 10
13.8603807282927
 20
-13.60282221888317
 30
0.0
 10
13.17002479123839
 20
-13.60282221888317
 30
0.0
 10
12.47966885418407
 20
-13.60282221888317
 30
0.0
 10
11.92002479159304
 20
-13.04317815625428
 30
0.0
 10
11.92002479159304
 20
-12.35282221915376
 30
0.0
 10
11.92002479159304
 20
-11.66246628205325
 30
0.0
 10
12.47966885418407
 20
-11.10282221942371
 30
0.0
 10
13.17002479123839
 20
-11.10282221942371
 30
0.0
 10
13.8603807282927
 20
-11.10282221942371
 30
0.0
 10
14.42002479088373
 20
-11.66246628205325
 30
0.0
 10
14.42002479088373
 20
-12.35282221915376
 30
0.0
  0
SPLINE
  5
105
330
100
100
AcDbEntity
  8
Capa 1
 62
   250
420
  1842203
370
    70
100
AcDbSpline
210
0.0
220
0.0
230
1.0
 70
    11
 71
     3
 72
    17
 73
    13
 74
     0
 42
0.0000000001
 43
0.0000000001
 12
1.0
 22
0.0
 32
0.0
 13
1.0
 23
0.0
 33
0.0
 40
0.0
 40
0.0
 40
0.0
 40
0.0
 40
1.0
 40
1.0
 40
1.0
 40
2.0
 40
2.0
 40
2.0
 40
3.0
 40
3.0
 40
3.0
 40
4.0
 40
4.0
 40
4.0
 40
4.0
 10
14.42002479088373
 20
-15.3528222184034
 30
0.0
 10
14.42002479088373
 20
-16.04317815550392
 30
0.0
 10
13.8603807282927
 20
-16.60282221813345
 30
0.0
 10
13.17002479123839
 20
-16.60282221813345
 30
0.0
 10
12.47966885418407
 20
-16.60282221813345
 30
0.0
 10
11.92002479159304
 20
-16.04317815550392
 30
0.0
 10
11.92002479159304
 20
-15.3528222184034
 30
0.0
 10
11.92002479159304
 20
-14.66246628130289
 30
0.0
 10
12.47966885418407
 20
-14.10282221867399
 30
0.0
 10
13.17002479123839
 20
-14.10282221867399
 30
0.0
 10
13.8603807282927
 20
-14.10282221867399
 30
0.0
 10
14.42002479088373
 20
-14.66246628130289
 30
0.0
 10
14.42002479088373
 20
-15.3528222184034
 30
0.0
  0
ENDBLK
  5
103
330
100
100
AcDbEntity
  8
0
100
AcDbBlockEnd
  0
BLOCK
  5
108
330
106
100
AcDbEntity
  8
0
100
AcDbBlockBegin
  2
block 31
 70
     0
 10
0.0
 20
0.0
 30
0.0
  3
block 31
  1

  0
SPLINE
  5
10A
330
106
100
AcDbEntity
  8
Capa 1
 62
   250
420
  1842203
370
    70
100
AcDbSpline
210
0.0
220
0.0
230
1.0
 70
    11
 71
     3
 72
    17
 73
    13
 74
     0
 42
0.0000000001
 43
0.0000000001
 12
1.0
 22
0.0
 32
0.0
 13
1.0
 23
0.0
 33
0.0
 40
0.0
 40
0.0
 40
0.0
 40
0.0
 40
1.0
 40
1.0
 40
1.0
 40
2.0
 40
2.0
 40
2.0
 40
3.0
 40
3.0
 40
3.0
 40
4.0
 40
4.0
 40
4.0
 40
4.0
 10
61.95201486133737
 20
-12.35282221915376
 30
0.0
 10
61.95201486133737
 20
-13.04317815625428
 30
0.0
 10
61.39237079874635
 20
-13.60282221888317
 30
0.0
 10
60.70201486169203
 20
-13.60282221888317
 30
0.0
 10
60.01165892463771
 20
-13.60282221888317
 30
0.0
 10
59.45201486204669
 20
-13.04317815625428
 30
0.0
 10
59.45201486204669
 20
-12.35282221915376
 30
0.0
 10
59.45201486204669
 20
-11.66246628205325
 30
0.0
 10
60.01165892463771
 20
-11.10282221942371
 30
0.0
 10
60.70201486169203
 20
-11.10282221942371
 30
0.0
 10
61.39237079874635
 20
-11.10282221942371
 30
0.0
 10
61.95201486133737
 20
-11.66246628205325
 30
0.0
 10
61.95201486133737
 20
-12.35282221915376
 30
0.0
  0
SPLINE
  5
10B
330
106
100
AcDbEntity
  8
Capa 1
 62
   250
420
  1842203
370
    70
100
AcDbSpline
210
0.0
220
0.0
230
1.0
 70
    11
 71
     3
 72
    17
 73
    13
 74
     0
 42
0.0000000001
 43
0.0000000001
 12
1.0
 22
0.0
 32
0.0
 13
1.0
 23
0.0
 33
0.0
 40
0.0
 40
0.0
 40
0.0
 40
0.0
 40
1.0
 40
1.0
 40
1.0
 40
2.0
 40
2.0
 40
2.0
 40
3.0
 40
3.0
 40
3.0
 40
4.0
 40
4.0
 40
4.0
 40
4.0
 10
61.95201486133737
 20
-15.3528222184034
 30
0.0
 10
61.95201486133737
 20
-16.04317815550392
 30
0.0
 10
61.39237079874635
 20
-16.60282221813345
 30
0.0
 10
60.70201486169203
 20
-16.60282221813345
 30
0.0
 10
60.01165892463771
 20
-16.60282221813345
 30
0.0
 10
59.45201486204669
 20
-16.04317815550392
 30
0.0
 10
59.45201486204669
 20
-15.3528222184034
 30
0.0
 10
59.45201486204669
 20
-14.66246628130289
 30
0.0
 10
60.01165892463771
 20
-14.10282221867399
 30
0.0
 10
60.70201486169203
 20
-14.10282221867399
 30
0.0
 10
61.39237079874635
 20
-14.10282221867399
 30
0.0
 10
61.95201486133737
 20
-14.66246628130289
 30
0.0
 10
61.95201486133737
 20
-15.3528222184034
 30
0.0
  0
ENDBLK
  5
109
330
106
100
AcDbEntity
  8
0
100
AcDbBlockEnd
  0
BLOCK
  5
10E
330
10C
100
AcDbEntity
  8
0
100
AcDbBlockBegin
  2
block 32
 70
     0
 10
0.0
 20
0.0
 30
0.0
  3
block 32
  1

  0
SPLINE
  5
110
330
10C
100
AcDbEntity
  8
Capa 1
 62
   250
420
  1842203
370
    70
100
AcDbSpline
210
0.0
220
0.0
230
1.0
 70
    11
 71
     3
 72
    17
 73
    13
 74
     0
 42
0.0000000001
 43
0.0000000001
 12
1.0
 22
0.0
 32
0.0
 13
1.0
 23
0.0
 33
0.0
 40
0.0
 40
0.0
 40
0.0
 40
0.0
 40
1.0
 40
1.0
 40
1.0
 40
2.0
 40
2.0
 40
2.0
 40
3.0
 40
3.0
 40
3.0
 40
4.0
 40
4.0
 40
4.0
 40
4.0
 10
85.6862598965716
 20
-12.35282221915376
 30
0.0
 10
85.6862598965716
 20
-13.04317815625428
 30
0.0
 10
85.12661583398122
 20
-13.60282221888317
 30
0.0
 10
84.4362598969269
 20
-13.60282221888317
 30
0.0
 10
83.74590395987259
 20
-13.60282221888317
 30
0.0
 10
83.18625989728092
 20
-13.04317815625428
 30
0.0
 10
83.18625989728092
 20
-12.35282221915376
 30
0.0
 10
83.18625989728092
 20
-11.66246628205325
 30
0.0
 10
83.74590395987259
 20
-11.10282221942371
 30
0.0
 10
84.4362598969269
 20
-11.10282221942371
 30
0.0
 10
85.12661583398122
 20
-11.10282221942371
 30
0.0
 10
85.6862598965716
 20
-11.66246628205325
 30
0.0
 10
85.6862598965716
 20
-12.35282221915376
 30
0.0
  0
SPLINE
  5
111
330
10C
100
AcDbEntity
  8
Capa 1
 62
   250
420
  1842203
370
    70
100
AcDbSpline
210
0.0
220
0.0
230
1.0
 70
    11
 71
     3
 72
    17
 73
    13
 74
     0
 42
0.0000000001
 43
0.0000000001
 12
1.0
 22
0.0
 32
0.0
 13
1.0
 23
0.0
 33
0.0
 40
0.0
 40
0.0
 40
0.0
 40
0.0
 40
1.0
 40
1.0
 40
1.0
 40
2.0
 40
2.0
 40
2.0
 40
3.0
 40
3.0
 40
3.0
 40
4.0
 40
4.0
 40
4.0
 40
4.0
 10
85.6862598965716
 20
-15.3528222184034
 30
0.0
 10
85.6862598965716
 20
-16.04317815550392
 30
0.0
 10
85.12661583398122
 20
-16.60282221813345
 30
0.0
 10
84.4362598969269
 20
-16.60282221813345
 30
0.0
 10
83.74590395987259
 20
-16.60282221813345
 30
0.0
 10
83.18625989728092
 20
-16.04317815550392
 30
0.0
 10
83.18625989728092
 20
-15.3528222184034
 30
0.0
 10
83.18625989728092
 20
-14.66246628130289
 30
0.0
 10
83.74590395987259
 20
-14.10282221867399
 30
0.0
 10
84.4362598969269
 20
-14.10282221867399
 30
0.0
 10
85.12661583398122
 20
-14.10282221867399
 30
0.0
 10
85.6862598965716
 20
-14.66246628130289
 30
0.0
 10
85.6862598965716
 20
-15.3528222184034
 30
0.0
  0
ENDBLK
  5
10F
330
10C
100
AcDbEntity
  8
0
100
AcDbBlockEnd
  0
BLOCK
  5
114
330
112
100
AcDbEntity
  8
0
100
AcDbBlockBegin
  2
block 33
 70
     0
 10
0.0
 20
0.0
 30
0.0
  3
block 33
  1

  0
SPLINE
  5
116
330
112
100
AcDbEntity
  8
Capa 1
 62
   250
420
  1842203
370
    70
100
AcDbSpline
210
0.0
220
0.0
230
1.0
 70
    11
 71
     3
 72
    17
 73
    13
 74
     0
 42
0.0000000001
 43
0.0000000001
 12
1.0
 22
0.0
 32
0.0
 13
1.0
 23
0.0
 33
0.0
 40
0.0
 40
0.0
 40
0.0
 40
0.0
 40
1.0
 40
1.0
 40
1.0
 40
2.0
 40
2.0
 40
2.0
 40
3.0
 40
3.0
 40
3.0
 40
4.0
 40
4.0
 40
4.0
 40
4.0
 10
109.4840049317901
 20
-12.35282221915376
 30
0.0
 10
109.4840049317901
 20
-13.04317815625428
 30
0.0
 10
108.9243608691997
 20
-13.60282221888317
 30
0.0
 10
108.2340049321454
 20
-13.60282221888317
 30
0.0
 10
107.543648995091
 20
-13.60282221888317
 30
0.0
 10
106.9840049324994
 20
-13.04317815625428
 30
0.0
 10
106.9840049324994
 20
-12.35282221915376
 30
0.0
 10
106.9840049324994
 20
-11.66246628205325
 30
0.0
 10
107.543648995091
 20
-11.10282221942371
 30
0.0
 10
108.2340049321454
 20
-11.10282221942371
 30
0.0
 10
108.9243608691997
 20
-11.10282221942371
 30
0.0
 10
109.4840049317901
 20
-11.66246628205325
 30
0.0
 10
109.4840049317901
 20
-12.35282221915376
 30
0.0
  0
SPLINE
  5
117
330
112
100
AcDbEntity
  8
Capa 1
 62
   250
420
  1842203
370
    70
100
AcDbSpline
210
0.0
220
0.0
230
1.0
 70
    11
 71
     3
 72
    17
 73
    13
 74
     0
 42
0.0000000001
 43
0.0000000001
 12
1.0
 22
0.0
 32
0.0
 13
1.0
 23
0.0
 33
0.0
 40
0.0
 40
0.0
 40
0.0
 40
0.0
 40
1.0
 40
1.0
 40
1.0
 40
2.0
 40
2.0
 40
2.0
 40
3.0
 40
3.0
 40
3.0
 40
4.0
 40
4.0
 40
4.0
 40
4.0
 10
109.4840049317901
 20
-15.3528222184034
 30
0.0
 10
109.4840049317901
 20
-16.04317815550392
 30
0.0
 10
108.9243608691997
 20
-16.60282221813345
 30
0.0
 10
108.2340049321454
 20
-16.60282221813345
 30
0.0
 10
107.543648995091
 20
-16.60282221813345
 30
0.0
 10
106.9840049324994
 20
-16.04317815550392
 30
0.0
 10
106.9840049324994
 20
-15.3528222184034
 30
0.0
 10
106.9840049324994
 20
-14.66246628130289
 30
0.0
 10
107.543648995091
 20
-14.10282221867399
 30
0.0
 10
108.2340049321454
 20
-14.10282221867399
 30
0.0
 10
108.9243608691997
 20
-14.10282221867399
 30
0.0
 10
109.4840049317901
 20
-14.66246628130289
 30
0.0
 10
109.4840049317901
 20
-15.3528222184034
 30
0.0
  0
ENDBLK
  5
115
330
112
100
AcDbEntity
  8
0
100
AcDbBlockEnd
  0
BLOCK
  5
11A
330
118
100
AcDbEntity
  8
0
100
AcDbBlockBegin
  2
block 34
 70
     0
 10
0.0
 20
0.0
 30
0.0
  3
block 34
  1

  0
SPLINE
  5
11C
330
118
100
AcDbEntity
  8
Capa 1
 62
   250
420
  1842203
370
    70
100
AcDbSpline
210
0.0
220
0.0
230
1.0
 70
    11
 71
     3
 72
    17
 73
    13
 74
     0
 42
0.0000000001
 43
0.0000000001
 12
1.0
 22
0.0
 32
0.0
 13
1.0
 23
0.0
 33
0.0
 40
0.0
 40
0.0
 40
0.0
 40
0.0
 40
1.0
 40
1.0
 40
1.0
 40
2.0
 40
2.0
 40
2.0
 40
3.0
 40
3.0
 40
3.0
 40
4.0
 40
4.0
 40
4.0
 40
4.0
 10
133.2182499670243
 20
-12.35282221915376
 30
0.0
 10
133.2182499670243
 20
-13.04317815625428
 30
0.0
 10
132.6586059044339
 20
-13.60282221888317
 30
0.0
 10
131.9682499673796
 20
-13.60282221888317
 30
0.0
 10
131.2778940303253
 20
-13.60282221888317
 30
0.0
 10
130.7182499677336
 20
-13.04317815625428
 30
0.0
 10
130.7182499677336
 20
-12.35282221915376
 30
0.0
 10
130.7182499677336
 20
-11.66246628205325
 30
0.0
 10
131.2778940303253
 20
-11.10282221942371
 30
0.0
 10
131.9682499673796
 20
-11.10282221942371
 30
0.0
 10
132.6586059044339
 20
-11.10282221942371
 30
0.0
 10
133.2182499670243
 20
-11.66246628205325
 30
0.0
 10
133.2182499670243
 20
-12.35282221915376
 30
0.0
  0
SPLINE
  5
11D
330
118
100
AcDbEntity
  8
Capa 1
 62
   250
420
  1842203
370
    70
100
AcDbSpline
210
0.0
220
0.0
230
1.0
 70
    11
 71
     3
 72
    17
 73
    13
 74
     0
 42
0.0000000001
 43
0.0000000001
 12
1.0
 22
0.0
 32
0.0
 13
1.0
 23
0.0
 33
0.0
 40
0.0
 40
0.0
 40
0.0
 40
0.0
 40
1.0
 40
1.0
 40
1.0
 40
2.0
 40
2.0
 40
2.0
 40
3.0
 40
3.0
 40
3.0
 40
4.0
 40
4.0
 40
4.0
 40
4.0
 10
133.2182499670243
 20
-15.3528222184034
 30
0.0
 10
133.2182499670243
 20
-16.04317815550392
 30
0.0
 10
132.6586059044339
 20
-16.60282221813345
 30
0.0
 10
131.9682499673796
 20
-16.60282221813345
 30
0.0
 10
131.2778940303253
 20
-16.60282221813345
 30
0.0
 10
130.7182499677336
 20
-16.04317815550392
 30
0.0
 10
130.7182499677336
 20
-15.3528222184034
 30
0.0
 10
130.7182499677336
 20
-14.66246628130289
 30
0.0
 10
131.2778940303253
 20
-14.10282221867399
 30
0.0
 10
131.9682499673796
 20
-14.10282221867399
 30
0.0
 10
132.6586059044339
 20
-14.10282221867399
 30
0.0
 10
133.2182499670243
 20
-14.66246628130289
 30
0.0
 10
133.2182499670243
 20
-15.3528222184034
 30
0.0
  0
ENDBLK
  5
11B
330
118
100
AcDbEntity
  8
0
100
AcDbBlockEnd
  0
BLOCK
  5
120
330
11E
100
AcDbEntity
  8
0
100
AcDbBlockBegin
  2
block 35
 70
     0
 10
0.0
 20
0.0
 30
0.0
  3
block 35
  1

  0
INSERT
  5
123
330
11E
100
AcDbEntity
  8
Capa 1
100
AcDbBlockReference
  2
block 36
 10
0.0
 20
0.0
 30
0.0
  0
INSERT
  5
129
330
11E
100
AcDbEntity
  8
Capa 1
100
AcDbBlockReference
  2
block 37
 10
0.0
 20
0.0
 30
0.0
  0
ENDBLK
  5
121
330
11E
100
AcDbEntity
  8
0
100
AcDbBlockEnd
  0
BLOCK
  5
124
330
122
100
AcDbEntity
  8
0
100
AcDbBlockBegin
  2
block 36
 70
     0
 10
0.0
 20
0.0
 30
0.0
  3
block 36
  1

  0
SPLINE
  5
126
330
122
100
AcDbEntity
  8
Capa 1
 62
   250
420
  1842203
370
    70
100
AcDbSpline
210
0.0
220
0.0
230
1.0
 70
    11
 71
     3
 72
    17
 73
    13
 74
     0
 42
0.0000000001
 43
0.0000000001
 12
1.0
 22
0.0
 32
0.0
 13
1.0
 23
0.0
 33
0.0
 40
0.0
 40
0.0
 40
0.0
 40
0.0
 40
1.0
 40
1.0
 40
1.0
 40
2.0
 40
2.0
 40
2.0
 40
3.0
 40
3.0
 40
3.0
 40
4.0
 40
4.0
 40
4.0
 40
4.0
 10
14.42002479088373
 20
-19.62650343674762
 30
0.0
 10
14.42002479088373
 20
-20.31685937384813
 30
0.0
 10
13.8603807282927
 20
-20.87650343647703
 30
0.0
 10
13.17002479123839
 20
-20.87650343647703
 30
0.0
 10
12.47966885418407
 20
-20.87650343647703
 30
0.0
 10
11.92002479159304
 20
-20.31685937384813
 30
0.0
 10
11.92002479159304
 20
-19.62650343674762
 30
0.0
 10
11.92002479159304
 20
-18.9361474996471
 30
0.0
 10
12.47966885418407
 20
-18.37650343701757
 30
0.0
 10
13.17002479123839
 20
-18.37650343701757
 30
0.0
 10
13.8603807282927
 20
-18.37650343701757
 30
0.0
 10
14.42002479088373
 20
-18.9361474996471
 30
0.0
 10
14.42002479088373
 20
-19.62650343674762
 30
0.0
  0
SPLINE
  5
127
330
122
100
AcDbEntity
  8
Capa 1
 62
   250
420
  1842203
370
    70
100
AcDbSpline
210
0.0
220
0.0
230
1.0
 70
    11
 71
     3
 72
    17
 73
    13
 74
     0
 42
0.0000000001
 43
0.0000000001
 12
1.0
 22
0.0
 32
0.0
 13
1.0
 23
0.0
 33
0.0
 40
0.0
 40
0.0
 40
0.0
 40
0.0
 40
1.0
 40
1.0
 40
1.0
 40
2.0
 40
2.0
 40
2.0
 40
3.0
 40
3.0
 40
3.0
 40
4.0
 40
4.0
 40
4.0
 40
4.0
 10
14.42002479088373
 20
-29.126503434288
 30
0.0
 10
14.42002479088373
 20
-29.81685937138851
 30
0.0
 10
13.8603807282927
 20
-30.37650343401805
 30
0.0
 10
13.17002479123839
 20
-30.37650343401805
 30
0.0
 10
12.47966885418407
 20
-30.37650343401805
 30
0.0
 10
11.92002479159304
 20
-29.81685937138851
 30
0.0
 10
11.92002479159304
 20
-29.126503434288
 30
0.0
 10
11.92002479159304
 20
-28.43614749718748
 30
0.0
 10
12.47966885418407
 20
-27.87650343455859
 30
0.0
 10
13.17002479123839
 20
-27.87650343455859
 30
0.0
 10
13.8603807282927
 20
-27.87650343455859
 30
0.0
 10
14.42002479088373
 20
-28.43614749718748
 30
0.0
 10
14.42002479088373
 20
-29.126503434288
 30
0.0
  0
ENDBLK
  5
125
330
122
100
AcDbEntity
  8
0
100
AcDbBlockEnd
  0
BLOCK
  5
12A
330
128
100
AcDbEntity
  8
0
100
AcDbBlockBegin
  2
block 37
 70
     0
 10
0.0
 20
0.0
 30
0.0
  3
block 37
  1

  0
INSERT
  5
12D
330
128
100
AcDbEntity
  8
Capa 1
100
AcDbBlockReference
  2
block 38
 10
0.0
 20
0.0
 30
0.0
  0
INSERT
  5
133
330
128
100
AcDbEntity
  8
Capa 1
100
AcDbBlockReference
  2
block 39
 10
0.0
 20
0.0
 30
0.0
  0
ENDBLK
  5
12B
330
128
100
AcDbEntity
  8
0
100
AcDbBlockEnd
  0
BLOCK
  5
12E
330
12C
100
AcDbEntity
  8
0
100
AcDbBlockBegin
  2
block 38
 70
     0
 10
0.0
 20
0.0
 30
0.0
  3
block 38
  1

  0
SPLINE
  5
130
330
12C
100
AcDbEntity
  8
Capa 1
 62
   250
420
  1842203
370
    70
100
AcDbSpline
210
0.0
220
0.0
230
1.0
 70
    11
 71
     3
 72
    17
 73
    13
 74
     0
 42
0.0000000001
 43
0.0000000001
 12
1.0
 22
0.0
 32
0.0
 13
1.0
 23
0.0
 33
0.0
 40
0.0
 40
0.0
 40
0.0
 40
0.0
 40
1.0
 40
1.0
 40
1.0
 40
2.0
 40
2.0
 40
2.0
 40
3.0
 40
3.0
 40
3.0
 40
4.0
 40
4.0
 40
4.0
 40
4.0
 10
19.17002478973831
 20
-21.87650343614306
 30
0.0
 10
19.17002478973831
 20
-22.56685937324357
 30
0.0
 10
18.61038072714728
 20
-23.12650343587246
 30
0.0
 10
17.92002479009296
 20
-23.12650343587246
 30
0.0
 10
17.22966885303865
 20
-23.12650343587246
 30
0.0
 10
16.67002479044762
 20
-22.56685937324357
 30
0.0
 10
16.67002479044762
 20
-21.87650343614306
 30
0.0
 10
16.67002479044762
 20
-21.18614749904254
 30
0.0
 10
17.22966885303865
 20
-20.62650343641301
 30
0.0
 10
17.92002479009296
 20
-20.62650343641301
 30
0.0
 10
18.61038072714728
 20
-20.62650343641301
 30
0.0
 10
19.17002478973831
 20
-21.18614749904254
 30
0.0
 10
19.17002478973831
 20
-21.87650343614306
 30
0.0
  0
SPLINE
  5
131
330
12C
100
AcDbEntity
  8
Capa 1
 62
   250
420
  1842203
370
    70
100
AcDbSpline
210
0.0
220
0.0
230
1.0
 70
    11
 71
     3
 72
    17
 73
    13
 74
     0
 42
0.0000000001
 43
0.0000000001
 12
1.0
 22
0.0
 32
0.0
 13
1.0
 23
0.0
 33
0.0
 40
0.0
 40
0.0
 40
0.0
 40
0.0
 40
1.0
 40
1.0
 40
1.0
 40
2.0
 40
2.0
 40
2.0
 40
3.0
 40
3.0
 40
3.0
 40
4.0
 40
4.0
 40
4.0
 40
4.0
 10
19.17002478973831
 20
-26.87650343489256
 30
0.0
 10
19.17002478973831
 20
-27.56685937199308
 30
0.0
 10
18.61038072714728
 20
-28.12650343462261
 30
0.0
 10
17.92002479009296
 20
-28.12650343462261
 30
0.0
 10
17.22966885303865
 20
-28.12650343462261
 30
0.0
 10
16.67002479044762
 20
-27.56685937199308
 30
0.0
 10
16.67002479044762
 20
-26.87650343489256
 30
0.0
 10
16.67002479044762
 20
-26.18614749779205
 30
0.0
 10
17.22966885303865
 20
-25.62650343516315
 30
0.0
 10
17.92002479009296
 20
-25.62650343516315
 30
0.0
 10
18.61038072714728
 20
-25.62650343516315
 30
0.0
 10
19.17002478973831
 20
-26.18614749779205
 30
0.0
 10
19.17002478973831
 20
-26.87650343489256
 30
0.0
  0
ENDBLK
  5
12F
330
12C
100
AcDbEntity
  8
0
100
AcDbBlockEnd
  0
BLOCK
  5
134
330
132
100
AcDbEntity
  8
0
100
AcDbBlockBegin
  2
block 39
 70
     0
 10
0.0
 20
0.0
 30
0.0
  3
block 39
  1

  0
SPLINE
  5
136
330
132
100
AcDbEntity
  8
Capa 1
 62
   250
420
  1842203
370
    70
100
AcDbSpline
210
0.0
220
0.0
230
1.0
 70
    11
 71
     3
 72
    17
 73
    13
 74
     0
 42
0.0000000001
 43
0.0000000001
 12
1.0
 22
0.0
 32
0.0
 13
1.0
 23
0.0
 33
0.0
 40
0.0
 40
0.0
 40
0.0
 40
0.0
 40
1.0
 40
1.0
 40
1.0
 40
2.0
 40
2.0
 40
2.0
 40
3.0
 40
3.0
 40
3.0
 40
4.0
 40
4.0
 40
4.0
 40
4.0
 10
9.670024792029157
 20
-21.87650343614306
 30
0.0
 10
9.670024792029157
 20
-22.56685937324357
 30
0.0
 10
9.110380729438127
 20
-23.12650343587246
 30
0.0
 10
8.420024792383813
 20
-23.12650343587246
 30
0.0
 10
7.729668855329499
 20
-23.12650343587246
 30
0.0
 10
7.170024792738467
 20
-22.56685937324357
 30
0.0
 10
7.170024792738467
 20
-21.87650343614306
 30
0.0
 10
7.170024792738467
 20
-21.18614749904254
 30
0.0
 10
7.729668855329499
 20
-20.62650343641301
 30
0.0
 10
8.420024792383813
 20
-20.62650343641301
 30
0.0
 10
9.110380729438127
 20
-20.62650343641301
 30
0.0
 10
9.670024792029157
 20
-21.18614749904254
 30
0.0
 10
9.670024792029157
 20
-21.87650343614306
 30
0.0
  0
SPLINE
  5
137
330
132
100
AcDbEntity
  8
Capa 1
 62
   250
420
  1842203
370
    70
100
AcDbSpline
210
0.0
220
0.0
230
1.0
 70
    11
 71
     3
 72
    17
 73
    13
 74
     0
 42
0.0000000001
 43
0.0000000001
 12
1.0
 22
0.0
 32
0.0
 13
1.0
 23
0.0
 33
0.0
 40
0.0
 40
0.0
 40
0.0
 40
0.0
 40
1.0
 40
1.0
 40
1.0
 40
2.0
 40
2.0
 40
2.0
 40
3.0
 40
3.0
 40
3.0
 40
4.0
 40
4.0
 40
4.0
 40
4.0
 10
9.670024792029157
 20
-26.87650343489256
 30
0.0
 10
9.670024792029157
 20
-27.56685937199308
 30
0.0
 10
9.110380729438127
 20
-28.12650343462261
 30
0.0
 10
8.420024792383813
 20
-28.12650343462261
 30
0.0
 10
7.729668855329499
 20
-28.12650343462261
 30
0.0
 10
7.170024792738467
 20
-27.56685937199308
 30
0.0
 10
7.170024792738467
 20
-26.87650343489256
 30
0.0
 10
7.170024792738467
 20
-26.18614749779205
 30
0.0
 10
7.729668855329499
 20
-25.62650343516315
 30
0.0
 10
8.420024792383813
 20
-25.62650343516315
 30
0.0
 10
9.110380729438127
 20
-25.62650343516315
 30
0.0
 10
9.670024792029157
 20
-26.18614749779205
 30
0.0
 10
9.670024792029157
 20
-26.87650343489256
 30
0.0
  0
ENDBLK
  5
135
330
132
100
AcDbEntity
  8
0
100
AcDbBlockEnd
  0
BLOCK
  5
13A
330
138
100
AcDbEntity
  8
0
100
AcDbBlockBegin
  2
block 40
 70
     0
 10
0.0
 20
0.0
 30
0.0
  3
block 40
  1

  0
INSERT
  5
13D
330
138
100
AcDbEntity
  8
Capa 1
100
AcDbBlockReference
  2
block 41
 10
0.0
 20
0.0
 30
0.0
  0
INSERT
  5
14E
330
138
100
AcDbEntity
  8
Capa 1
100
AcDbBlockReference
  2
block 43
 10
0.0
 20
0.0
 30
0.0
  0
INSERT
  5
15F
330
138
100
AcDbEntity
  8
Capa 1
100
AcDbBlockReference
  2
block 45
 10
0.0
 20
0.0
 30
0.0
  0
INSERT
  5
170
330
138
100
AcDbEntity
  8
Capa 1
100
AcDbBlockReference
  2
block 47
 10
0.0
 20
0.0
 30
0.0
  0
INSERT
  5
181
330
138
100
AcDbEntity
  8
Capa 1
100
AcDbBlockReference
  2
block 49
 10
0.0
 20
0.0
 30
0.0
  0
INSERT
  5
192
330
138
100
AcDbEntity
  8
Capa 1
100
AcDbBlockReference
  2
block 51
 10
0.0
 20
0.0
 30
0.0
  0
INSERT
  5
1A3
330
138
100
AcDbEntity
  8
Capa 1
100
AcDbBlockReference
  2
block 53
 10
0.0
 20
0.0
 30
0.0
  0
INSERT
  5
1BA
330
138
100
AcDbEntity
  8
Capa 1
100
AcDbBlockReference
  2
block 56
 10
0.0
 20
0.0
 30
0.0
  0
INSERT
  5
1D1
330
138
100
AcDbEntity
  8
Capa 1
100
AcDbBlockReference
  2
block 59
 10
0.0
 20
0.0
 30
0.0
  0
INSERT
  5
1E8
330
138
100
AcDbEntity
  8
Capa 1
100
AcDbBlockReference
  2
block 62
 10
0.0
 20
0.0
 30
0.0
  0
INSERT
  5
1FF
330
138
100
AcDbEntity
  8
Capa 1
100
AcDbBlockReference
  2
block 65
 10
0.0
 20
0.0
 30
0.0
  0
INSERT
  5
216
330
138
100
AcDbEntity
  8
Capa 1
100
AcDbBlockReference
  2
block 68
 10
0.0
 20
0.0
 30
0.0
  0
ENDBLK
  5
13B
330
138
100
AcDbEntity
  8
0
100
AcDbBlockEnd
  0
BLOCK
  5
13E
330
13C
100
AcDbEntity
  8
0
100
AcDbBlockBegin
  2
block 41
 70
     0
 10
0.0
 20
0.0
 30
0.0
  3
block 41
  1

  0
SPLINE
  5
140
330
13C
100
AcDbEntity
  8
Capa 1
 62
   143
420
  3582432
370
    18
100
AcDbSpline
210
0.0
220
0.0
230
1.0
 70
    11
 71
     3
 72
    17
 73
    13
 74
     0
 42
0.0000000001
 43
0.0000000001
 12
1.0
 22
0.0
 32
0.0
 13
1.0
 23
0.0
 33
0.0
 40
0.0
 40
0.0
 40
0.0
 40
0.0
 40
1.0
 40
1.0
 40
1.0
 40
2.0
 40
2.0
 40
2.0
 40
3.0
 40
3.0
 40
3.0
 40
4.0
 40
4.0
 40
4.0
 40
4.0
 10
132.7182499671414
 20
-12.55378411351485
 30
0.0
 10
133.4356889021843
 20
-12.96799767578909
 30
0.0
 10
133.6815016350374
 20
-13.88538328369493
 30
0.0
 10
133.2672880728186
 20
-14.60282221864193
 30
0.0
 10
132.8530745105999
 20
-15.32026115358892
 30
0.0
 10
131.9356889026607
 20
-15.56607388631719
 30
0.0
 10
131.2182499676178
 20
-15.15186032404295
 30
0.0
 10
130.5008110325749
 20
-14.73764676176872
 30
0.0
 10
130.2549982997218
 20
-13.82026115386287
 30
0.0
 10
130.6692118619405
 20
-13.10282221891588
 30
0.0
 10
131.0834254241592
 20
-12.38538328396888
 30
0.0
 10
132.0008110320985
 20
-12.13957055124062
 30
0.0
 10
132.7182499671414
 20
-12.55378411351485
 30
0.0
  0
INSERT
  5
142
330
13C
100
AcDbEntity
  8
Capa 1
100
AcDbBlockReference
  2
block 42
 10
0.0
 20
0.0
 30
0.0
  0
ENDBLK
  5
13F
330
13C
100
AcDbEntity
  8
0
100
AcDbBlockEnd
  0
BLOCK
  5
143
330
141
100
AcDbEntity
  8
0
100
AcDbBlockBegin
  2
block 42
 70
     0
 10
0.0
 20
0.0
 30
0.0
  3
block 42
  1

  0
POLYLINE
  5
145
330
141
100
AcDbEntity
  8
Capa 1
 62
   250
420
  1842203
370
     9
100
AcDb2dPolyline
 66
     1
 10
0.0
 20
0.0
 30
0.0
  0
VERTEX
  5
146
330
145
100
AcDbEntity
  8
Capa 1
 62
   250
420
  1842203
370
     9
100
AcDbVertex
100
AcDb2dVertex
 10
129.4999999679963
 20
-13.85282221877874
 30
0.0
  0
VERTEX
  5
147
330
145
100
AcDbEntity
  8
Capa 1
 62
   250
420
  1842203
370
     9
100
AcDbVertex
100
AcDb2dVertex
 10
134.4999999667458
 20
-13.85282221877874
 30
0.0
  0
SEQEND
  5
148
330
145
100
AcDbEntity
  8
Capa 1
 62
   250
420
  1842203
370
     9
  0
POLYLINE
  5
149
330
141
100
AcDbEntity
  8
Capa 1
 62
   250
420
  1842203
370
     9
100
AcDb2dPolyline
 66
     1
 10
0.0
 20
0.0
 30
0.0
  0
VERTEX
  5
14A
330
149
100
AcDbEntity
  8
Capa 1
 62
   250
420
  1842203
370
     9
100
AcDbVertex
100
AcDb2dVertex
 10
131.9999999673717
 20
-11.35282221940367
 30
0.0
  0
VERTEX
  5
14B
330
149
100
AcDbEntity
  8
Capa 1
 62
   250
420
  1842203
370
     9
100
AcDbVertex
100
AcDb2dVertex
 10
131.9999999673717
 20
-16.35282221815381
 30
0.0
  0
SEQEND
  5
14C
330
149
100
AcDbEntity
  8
Capa 1
 62
   250
420
  1842203
370
     9
  0
ENDBLK
  5
144
330
141
100
AcDbEntity
  8
0
100
AcDbBlockEnd
  0
BLOCK
  5
14F
330
14D
100
AcDbEntity
  8
0
100
AcDbBlockBegin
  2
block 43
 70
     0
 10
0.0
 20
0.0
 30
0.0
  3
block 43
  1

  0
SPLINE
  5
151
330
14D
100
AcDbEntity
  8
Capa 1
 62
   143
420
  3582432
370
    18
100
AcDbSpline
210
0.0
220
0.0
230
1.0
 70
    11
 71
     3
 72
    17
 73
    13
 74
     0
 42
0.0000000001
 43
0.0000000001
 12
1.0
 22
0.0
 32
0.0
 13
1.0
 23
0.0
 33
0.0
 40
0.0
 40
0.0
 40
0.0
 40
0.0
 40
1.0
 40
1.0
 40
1.0
 40
2.0
 40
2.0
 40
2.0
 40
3.0
 40
3.0
 40
3.0
 40
4.0
 40
4.0
 40
4.0
 40
4.0
 10
13.88827479100807
 20
-12.55378411351485
 30
0.0
 10
14.605713726051
 20
-12.96799767578909
 30
0.0
 10
14.85152645890408
 20
-13.88538328369493
 30
0.0
 10
14.43731289668535
 20
-14.60282221864193
 30
0.0
 10
14.02309933446662
 20
-15.32026115358892
 30
0.0
 10
13.10571372652741
 20
-15.56607388631719
 30
0.0
 10
12.38827479148448
 20
-15.15186032404295
 30
0.0
 10
11.67083585644155
 20
-14.73764676176872
 30
0.0
 10
11.42502312358847
 20
-13.82026115386287
 30
0.0
 10
11.8392366858072
 20
-13.10282221891588
 30
0.0
 10
12.25345024802593
 20
-12.38538328396888
 30
0.0
 10
13.17083585596514
 20
-12.13957055124062
 30
0.0
 10
13.88827479100807
 20
-12.55378411351485
 30
0.0
  0
INSERT
  5
153
330
14D
100
AcDbEntity
  8
Capa 1
100
AcDbBlockReference
  2
block 44
 10
0.0
 20
0.0
 30
0.0
  0
ENDBLK
  5
150
330
14D
100
AcDbEntity
  8
0
100
AcDbBlockEnd
  0
BLOCK
  5
154
330
152
100
AcDbEntity
  8
0
100
AcDbBlockBegin
  2
block 44
 70
     0
 10
0.0
 20
0.0
 30
0.0
  3
block 44
  1

  0
POLYLINE
  5
156
330
152
100
AcDbEntity
  8
Capa 1
 62
   250
420
  1842203
370
     9
100
AcDb2dPolyline
 66
     1
 10
0.0
 20
0.0
 30
0.0
  0
VERTEX
  5
157
330
156
100
AcDbEntity
  8
Capa 1
 62
   250
420
  1842203
370
     9
100
AcDbVertex
100
AcDb2dVertex
 10
10.67002479186299
 20
-13.85282221877874
 30
0.0
  0
VERTEX
  5
158
330
156
100
AcDbEntity
  8
Capa 1
 62
   250
420
  1842203
370
     9
100
AcDbVertex
100
AcDb2dVertex
 10
15.6700247906125
 20
-13.85282221877874
 30
0.0
  0
SEQEND
  5
159
330
156
100
AcDbEntity
  8
Capa 1
 62
   250
420
  1842203
370
     9
  0
POLYLINE
  5
15A
330
152
100
AcDbEntity
  8
Capa 1
 62
   250
420
  1842203
370
     9
100
AcDb2dPolyline
 66
     1
 10
0.0
 20
0.0
 30
0.0
  0
VERTEX
  5
15B
330
15A
100
AcDbEntity
  8
Capa 1
 62
   250
420
  1842203
370
     9
100
AcDbVertex
100
AcDb2dVertex
 10
13.17002479123839
 20
-11.35282221940367
 30
0.0
  0
VERTEX
  5
15C
330
15A
100
AcDbEntity
  8
Capa 1
 62
   250
420
  1842203
370
     9
100
AcDbVertex
100
AcDb2dVertex
 10
13.17002479123839
 20
-16.35282221815381
 30
0.0
  0
SEQEND
  5
15D
330
15A
100
AcDbEntity
  8
Capa 1
 62
   250
420
  1842203
370
     9
  0
ENDBLK
  5
155
330
152
100
AcDbEntity
  8
0
100
AcDbBlockEnd
  0
BLOCK
  5
160
330
15E
100
AcDbEntity
  8
0
100
AcDbBlockBegin
  2
block 45
 70
     0
 10
0.0
 20
0.0
 30
0.0
  3
block 45
  1

  0
SPLINE
  5
162
330
15E
100
AcDbEntity
  8
Capa 1
 62
    12
420
 14877971
370
    18
100
AcDbSpline
210
0.0
220
0.0
230
1.0
 70
    11
 71
     3
 72
    17
 73
    13
 74
     0
 42
0.0000000001
 43
0.0000000001
 12
1.0
 22
0.0
 32
0.0
 13
1.0
 23
0.0
 33
0.0
 40
0.0
 40
0.0
 40
0.0
 40
0.0
 40
1.0
 40
1.0
 40
1.0
 40
2.0
 40
2.0
 40
2.0
 40
3.0
 40
3.0
 40
3.0
 40
4.0
 40
4.0
 40
4.0
 40
4.0
 10
37.65426982623473
 20
-12.55378411351485
 30
0.0
 10
38.37170876127766
 20
-12.96799767578909
 30
0.0
 10
38.61752149413073
 20
-13.88538328369493
 30
0.0
 10
38.20330793191201
 20
-14.60282221864193
 30
0.0
 10
37.78909436969328
 20
-15.32026115358892
 30
0.0
 10
36.87170876175407
 20
-15.56607388631719
 30
0.0
 10
36.15426982671114
 20
-15.15186032404295
 30
0.0
 10
35.43683089166853
 20
-14.73764676176872
 30
0.0
 10
35.19101815881513
 20
-13.82026115386287
 30
0.0
 10
35.60523172103386
 20
-13.10282221891588
 30
0.0
 10
36.01944528325259
 20
-12.38538328396888
 30
0.0
 10
36.9368308911918
 20
-12.13957055124062
 30
0.0
 10
37.65426982623473
 20
-12.55378411351485
 30
0.0
  0
INSERT
  5
164
330
15E
100
AcDbEntity
  8
Capa 1
100
AcDbBlockReference
  2
block 46
 10
0.0
 20
0.0
 30
0.0
  0
ENDBLK
  5
161
330
15E
100
AcDbEntity
  8
0
100
AcDbBlockEnd
  0
BLOCK
  5
165
330
163
100
AcDbEntity
  8
0
100
AcDbBlockBegin
  2
block 46
 70
     0
 10
0.0
 20
0.0
 30
0.0
  3
block 46
  1

  0
POLYLINE
  5
167
330
163
100
AcDbEntity
  8
Capa 1
 62
   250
420
  1842203
370
     9
100
AcDb2dPolyline
 66
     1
 10
0.0
 20
0.0
 30
0.0
  0
VERTEX
  5
168
330
167
100
AcDbEntity
  8
Capa 1
 62
   250
420
  1842203
370
     9
100
AcDbVertex
100
AcDb2dVertex
 10
34.43601982708965
 20
-13.85282221877874
 30
0.0
  0
VERTEX
  5
169
330
167
100
AcDbEntity
  8
Capa 1
 62
   250
420
  1842203
370
     9
100
AcDbVertex
100
AcDb2dVertex
 10
39.43601982583916
 20
-13.85282221877874
 30
0.0
  0
SEQEND
  5
16A
330
167
100
AcDbEntity
  8
Capa 1
 62
   250
420
  1842203
370
     9
  0
POLYLINE
  5
16B
330
163
100
AcDbEntity
  8
Capa 1
 62
   250
420
  1842203
370
     9
100
AcDb2dPolyline
 66
     1
 10
0.0
 20
0.0
 30
0.0
  0
VERTEX
  5
16C
330
16B
100
AcDbEntity
  8
Capa 1
 62
   250
420
  1842203
370
     9
100
AcDbVertex
100
AcDb2dVertex
 10
36.93601982646505
 20
-11.35282221940367
 30
0.0
  0
VERTEX
  5
16D
330
16B
100
AcDbEntity
  8
Capa 1
 62
   250
420
  1842203
370
     9
100
AcDbVertex
100
AcDb2dVertex
 10
36.93601982646505
 20
-16.35282221815381
 30
0.0
  0
SEQEND
  5
16E
330
16B
100
AcDbEntity
  8
Capa 1
 62
   250
420
  1842203
370
     9
  0
ENDBLK
  5
166
330
163
100
AcDbEntity
  8
0
100
AcDbBlockEnd
  0
BLOCK
  5
171
330
16F
100
AcDbEntity
  8
0
100
AcDbBlockBegin
  2
block 47
 70
     0
 10
0.0
 20
0.0
 30
0.0
  3
block 47
  1

  0
SPLINE
  5
173
330
16F
100
AcDbEntity
  8
Capa 1
 62
    12
420
 14877971
370
    18
100
AcDbSpline
210
0.0
220
0.0
230
1.0
 70
    11
 71
     3
 72
    17
 73
    13
 74
     0
 42
0.0000000001
 43
0.0000000001
 12
1.0
 22
0.0
 32
0.0
 13
1.0
 23
0.0
 33
0.0
 40
0.0
 40
0.0
 40
0.0
 40
0.0
 40
1.0
 40
1.0
 40
1.0
 40
2.0
 40
2.0
 40
2.0
 40
3.0
 40
3.0
 40
3.0
 40
4.0
 40
4.0
 40
4.0
 40
4.0
 10
85.18625989668742
 20
-12.55378411351485
 30
0.0
 10
85.90369883173098
 20
-12.96799767578909
 30
0.0
 10
86.14951156458406
 20
-13.88538328369493
 30
0.0
 10
85.73529800236533
 20
-14.60282221864193
 30
0.0
 10
85.3210844401466
 20
-15.32026115358892
 30
0.0
 10
84.4036988322074
 20
-15.56607388631719
 30
0.0
 10
83.68625989716382
 20
-15.15186032404295
 30
0.0
 10
82.96882096212154
 20
-14.73764676176872
 30
0.0
 10
82.72300822926846
 20
-13.82026115386287
 30
0.0
 10
83.13722179148718
 20
-13.10282221891588
 30
0.0
 10
83.55143535370591
 20
-12.38538328396888
 30
0.0
 10
84.46882096164512
 20
-12.13957055124062
 30
0.0
 10
85.18625989668742
 20
-12.55378411351485
 30
0.0
  0
INSERT
  5
175
330
16F
100
AcDbEntity
  8
Capa 1
100
AcDbBlockReference
  2
block 48
 10
0.0
 20
0.0
 30
0.0
  0
ENDBLK
  5
172
330
16F
100
AcDbEntity
  8
0
100
AcDbBlockEnd
  0
BLOCK
  5
176
330
174
100
AcDbEntity
  8
0
100
AcDbBlockBegin
  2
block 48
 70
     0
 10
0.0
 20
0.0
 30
0.0
  3
block 48
  1

  0
POLYLINE
  5
178
330
174
100
AcDbEntity
  8
Capa 1
 62
   250
420
  1842203
370
     9
100
AcDb2dPolyline
 66
     1
 10
0.0
 20
0.0
 30
0.0
  0
VERTEX
  5
179
330
178
100
AcDbEntity
  8
Capa 1
 62
   250
420
  1842203
370
     9
100
AcDbVertex
100
AcDb2dVertex
 10
81.96800989754298
 20
-13.85282221877874
 30
0.0
  0
VERTEX
  5
17A
330
178
100
AcDbEntity
  8
Capa 1
 62
   250
420
  1842203
370
     9
100
AcDbVertex
100
AcDb2dVertex
 10
86.96800989629249
 20
-13.85282221877874
 30
0.0
  0
SEQEND
  5
17B
330
178
100
AcDbEntity
  8
Capa 1
 62
   250
420
  1842203
370
     9
  0
POLYLINE
  5
17C
330
174
100
AcDbEntity
  8
Capa 1
 62
   250
420
  1842203
370
     9
100
AcDb2dPolyline
 66
     1
 10
0.0
 20
0.0
 30
0.0
  0
VERTEX
  5
17D
330
17C
100
AcDbEntity
  8
Capa 1
 62
   250
420
  1842203
370
     9
100
AcDbVertex
100
AcDb2dVertex
 10
84.46800989691837
 20
-11.35282221940367
 30
0.0
  0
VERTEX
  5
17E
330
17C
100
AcDbEntity
  8
Capa 1
 62
   250
420
  1842203
370
     9
100
AcDbVertex
100
AcDb2dVertex
 10
84.46800989691837
 20
-16.35282221815381
 30
0.0
  0
SEQEND
  5
17F
330
17C
100
AcDbEntity
  8
Capa 1
 62
   250
420
  1842203
370
     9
  0
ENDBLK
  5
177
330
174
100
AcDbEntity
  8
0
100
AcDbBlockEnd
  0
BLOCK
  5
182
330
180
100
AcDbEntity
  8
0
100
AcDbBlockBegin
  2
block 49
 70
     0
 10
0.0
 20
0.0
 30
0.0
  3
block 49
  1

  0
SPLINE
  5
184
330
180
100
AcDbEntity
  8
Capa 1
 62
    40
420
 16364083
370
    18
100
AcDbSpline
210
0.0
220
0.0
230
1.0
 70
    11
 71
     3
 72
    17
 73
    13
 74
     0
 42
0.0000000001
 43
0.0000000001
 12
1.0
 22
0.0
 32
0.0
 13
1.0
 23
0.0
 33
0.0
 40
0.0
 40
0.0
 40
0.0
 40
0.0
 40
1.0
 40
1.0
 40
1.0
 40
2.0
 40
2.0
 40
2.0
 40
3.0
 40
3.0
 40
3.0
 40
4.0
 40
4.0
 40
4.0
 40
4.0
 10
108.9522549319138
 20
-12.55378411351485
 30
0.0
 10
109.6696938669573
 20
-12.96799767578909
 30
0.0
 10
109.9155065998104
 20
-13.88538328369493
 30
0.0
 10
109.5012930375917
 20
-14.60282221864193
 30
0.0
 10
109.0870794753729
 20
-15.32026115358892
 30
0.0
 10
108.1696938674337
 20
-15.56607388631719
 30
0.0
 10
107.4522549323902
 20
-15.15186032404295
 30
0.0
 10
106.7348159973479
 20
-14.73764676176872
 30
0.0
 10
106.4890032644948
 20
-13.82026115386287
 30
0.0
 10
106.9032168267135
 20
-13.10282221891588
 30
0.0
 10
107.3174303889323
 20
-12.38538328396888
 30
0.0
 10
108.2348159968715
 20
-12.13957055124062
 30
0.0
 10
108.9522549319138
 20
-12.55378411351485
 30
0.0
  0
INSERT
  5
186
330
180
100
AcDbEntity
  8
Capa 1
100
AcDbBlockReference
  2
block 50
 10
0.0
 20
0.0
 30
0.0
  0
ENDBLK
  5
183
330
180
100
AcDbEntity
  8
0
100
AcDbBlockEnd
  0
BLOCK
  5
187
330
185
100
AcDbEntity
  8
0
100
AcDbBlockBegin
  2
block 50
 70
     0
 10
0.0
 20
0.0
 30
0.0
  3
block 50
  1

  0
POLYLINE
  5
189
330
185
100
AcDbEntity
  8
Capa 1
 62
   250
420
  1842203
370
     9
100
AcDb2dPolyline
 66
     1
 10
0.0
 20
0.0
 30
0.0
  0
VERTEX
  5
18A
330
189
100
AcDbEntity
  8
Capa 1
 62
   250
420
  1842203
370
     9
100
AcDbVertex
100
AcDb2dVertex
 10
105.7340049327693
 20
-13.85282221877874
 30
0.0
  0
VERTEX
  5
18B
330
189
100
AcDbEntity
  8
Capa 1
 62
   250
420
  1842203
370
     9
100
AcDbVertex
100
AcDb2dVertex
 10
110.7340049315188
 20
-13.85282221877874
 30
0.0
  0
SEQEND
  5
18C
330
189
100
AcDbEntity
  8
Capa 1
 62
   250
420
  1842203
370
     9
  0
POLYLINE
  5
18D
330
185
100
AcDbEntity
  8
Capa 1
 62
   250
420
  1842203
370
     9
100
AcDb2dPolyline
 66
     1
 10
0.0
 20
0.0
 30
0.0
  0
VERTEX
  5
18E
330
18D
100
AcDbEntity
  8
Capa 1
 62
   250
420
  1842203
370
     9
100
AcDbVertex
100
AcDb2dVertex
 10
108.2340049321447
 20
-11.35282221940367
 30
0.0
  0
VERTEX
  5
18F
330
18D
100
AcDbEntity
  8
Capa 1
 62
   250
420
  1842203
370
     9
100
AcDbVertex
100
AcDb2dVertex
 10
108.2340049321447
 20
-16.35282221815381
 30
0.0
  0
SEQEND
  5
190
330
18D
100
AcDbEntity
  8
Capa 1
 62
   250
420
  1842203
370
     9
  0
ENDBLK
  5
188
330
185
100
AcDbEntity
  8
0
100
AcDbBlockEnd
  0
BLOCK
  5
193
330
191
100
AcDbEntity
  8
0
100
AcDbBlockBegin
  2
block 51
 70
     0
 10
0.0
 20
0.0
 30
0.0
  3
block 51
  1

  0
SPLINE
  5
195
330
191
100
AcDbEntity
  8
Capa 1
 62
    40
420
 16364083
370
    18
100
AcDbSpline
210
0.0
220
0.0
230
1.0
 70
    11
 71
     3
 72
    17
 73
    13
 74
     0
 42
0.0000000001
 43
0.0000000001
 12
1.0
 22
0.0
 32
0.0
 13
1.0
 23
0.0
 33
0.0
 40
0.0
 40
0.0
 40
0.0
 40
0.0
 40
1.0
 40
1.0
 40
1.0
 40
2.0
 40
2.0
 40
2.0
 40
3.0
 40
3.0
 40
3.0
 40
4.0
 40
4.0
 40
4.0
 40
4.0
 10
61.42026486146107
 20
-12.55378411351485
 30
0.0
 10
62.13770379650465
 20
-12.96799767578909
 30
0.0
 10
62.38351652935772
 20
-13.88538328369493
 30
0.0
 10
61.96930296713899
 20
-14.60282221864193
 30
0.0
 10
61.55508940492027
 20
-15.32026115358892
 30
0.0
 10
60.63770379698105
 20
-15.56607388631719
 30
0.0
 10
59.92026486193748
 20
-15.15186032404295
 30
0.0
 10
59.20282592689519
 20
-14.73764676176872
 30
0.0
 10
58.95701319404212
 20
-13.82026115386287
 30
0.0
 10
59.37122675626085
 20
-13.10282221891588
 30
0.0
 10
59.78544031847989
 20
-12.38538328396888
 30
0.0
 10
60.70282592641878
 20
-12.13957055124062
 30
0.0
 10
61.42026486146107
 20
-12.55378411351485
 30
0.0
  0
INSERT
  5
197
330
191
100
AcDbEntity
  8
Capa 1
100
AcDbBlockReference
  2
block 52
 10
0.0
 20
0.0
 30
0.0
  0
ENDBLK
  5
194
330
191
100
AcDbEntity
  8
0
100
AcDbBlockEnd
  0
BLOCK
  5
198
330
196
100
AcDbEntity
  8
0
100
AcDbBlockBegin
  2
block 52
 70
     0
 10
0.0
 20
0.0
 30
0.0
  3
block 52
  1

  0
POLYLINE
  5
19A
330
196
100
AcDbEntity
  8
Capa 1
 62
   250
420
  1842203
370
     9
100
AcDb2dPolyline
 66
     1
 10
0.0
 20
0.0
 30
0.0
  0
VERTEX
  5
19B
330
19A
100
AcDbEntity
  8
Capa 1
 62
   250
420
  1842203
370
     9
100
AcDbVertex
100
AcDb2dVertex
 10
58.20201486231696
 20
-13.85282221877874
 30
0.0
  0
VERTEX
  5
19C
330
19A
100
AcDbEntity
  8
Capa 1
 62
   250
420
  1842203
370
     9
100
AcDbVertex
100
AcDb2dVertex
 10
63.20201486106614
 20
-13.85282221877874
 30
0.0
  0
SEQEND
  5
19D
330
19A
100
AcDbEntity
  8
Capa 1
 62
   250
420
  1842203
370
     9
  0
POLYLINE
  5
19E
330
196
100
AcDbEntity
  8
Capa 1
 62
   250
420
  1842203
370
     9
100
AcDb2dPolyline
 66
     1
 10
0.0
 20
0.0
 30
0.0
  0
VERTEX
  5
19F
330
19E
100
AcDbEntity
  8
Capa 1
 62
   250
420
  1842203
370
     9
100
AcDbVertex
100
AcDb2dVertex
 10
60.70201486169203
 20
-11.35282221940367
 30
0.0
  0
VERTEX
  5
1A0
330
19E
100
AcDbEntity
  8
Capa 1
 62
   250
420
  1842203
370
     9
100
AcDbVertex
100
AcDb2dVertex
 10
60.70201486169203
 20
-16.35282221815381
 30
0.0
  0
SEQEND
  5
1A1
330
19E
100
AcDbEntity
  8
Capa 1
 62
   250
420
  1842203
370
     9
  0
ENDBLK
  5
199
330
196
100
AcDbEntity
  8
0
100
AcDbBlockEnd
  0
BLOCK
  5
1A4
330
1A2
100
AcDbEntity
  8
0
100
AcDbBlockBegin
  2
block 53
 70
     0
 10
0.0
 20
0.0
 30
0.0
  3
block 53
  1

  0
INSERT
  5
1A7
330
1A2
100
AcDbEntity
  8
Capa 1
100
AcDbBlockReference
  2
block 54
 10
0.0
 20
0.0
 30
0.0
  0
MTEXT
  5
1B8
330
1A2
100
AcDbEntity
  8
Capa 1
 62
   250
420
  1842203
100
AcDbMText
 10
34.3787585702356
 20
-26.11615880604683
 30
0.0
 40
3.49673333245915
 41
0.0
 46
0.0
 71
     7
 72
     1
  1
\fConfig Condensed|b1|i0|c0|p34;\W1;S1
 73
     1
 44
1.0
  0
ENDBLK
  5
1A5
330
1A2
100
AcDbEntity
  8
0
100
AcDbBlockEnd
  0
BLOCK
  5
1A8
330
1A6
100
AcDbEntity
  8
0
100
AcDbBlockBegin
  2
block 54
 70
     0
 10
0.0
 20
0.0
 30
0.0
  3
block 54
  1

  0
SPLINE
  5
1AA
330
1A6
100
AcDbEntity
  8
Capa 1
 62
   152
420
  1929399
370
    18
100
AcDbSpline
210
0.0
220
0.0
230
1.0
 70
    11
 71
     3
 72
    17
 73
    13
 74
     0
 42
0.0000000001
 43
0.0000000001
 12
1.0
 22
0.0
 32
0.0
 13
1.0
 23
0.0
 33
0.0
 40
0.0
 40
0.0
 40
0.0
 40
0.0
 40
1.0
 40
1.0
 40
1.0
 40
2.0
 40
2.0
 40
2.0
 40
3.0
 40
3.0
 40
3.0
 40
4.0
 40
4.0
 40
4.0
 40
4.0
 10
42.43601982471854
 20
-24.37650343551685
 30
0.0
 10
42.43601982471854
 20
-27.41406955886294
 30
0.0
 10
39.97358594939917
 20
-29.87650343451246
 30
0.0
 10
36.93601982646473
 20
-29.87650343451246
 30
0.0
 10
33.89845370353028
 20
-29.87650343451246
 30
0.0
 10
31.43601982821028
 20
-27.41406955886294
 30
0.0
 10
31.43601982821028
 20
-24.37650343551685
 30
0.0
 10
31.43601982821028
 20
-21.33893731217299
 30
0.0
 10
33.89845370353028
 20
-18.87650343652348
 30
0.0
 10
36.93601982646473
 20
-18.87650343652348
 30
0.0
 10
39.97358594939917
 20
-18.87650343652348
 30
0.0
 10
42.43601982471854
 20
-21.33893731217299
 30
0.0
 10
42.43601982471854
 20
-24.37650343551685
 30
0.0
  0
HATCH
  5
1AB
330
1A6
100
AcDbEntity
  8
Capa 1
 62
   143
420
  3582432
100
AcDbHatch
 10
0.0
 20
0.0
 30
0.0
210
0.0
220
0.0
230
1.0
  2
SOLID
 70
     1
 71
     0
 91
        1
 92
        1
 93
        1
 72
     4
 94
        3
 73
     0
 74
     1
 95
       17
 96
       13
 40
0.0
 40
0.0
 40
0.0
 40
0.0
 40
1.0
 40
1.0
 40
1.0
 40
2.0
 40
2.0
 40
2.0
 40
3.0
 40
3.0
 40
3.0
 40
4.0
 40
4.0
 40
4.0
 40
4.0
 10
42.43601982471854
 20
-24.37650343551685
 10
42.43601982471854
 20
-27.41406955886294
 10
39.97358594939917
 20
-29.87650343451246
 10
36.93601982646473
 20
-29.87650343451246
 10
33.89845370353028
 20
-29.87650343451246
 10
31.43601982821028
 20
-27.41406955886294
 10
31.43601982821028
 20
-24.37650343551685
 10
31.43601982821028
 20
-21.33893731217299
 10
33.89845370353028
 20
-18.87650343652348
 10
36.93601982646473
 20
-18.87650343652348
 10
39.97358594939917
 20
-18.87650343652348
 10
42.43601982471854
 20
-21.33893731217299
 10
42.43601982471854
 20
-24.37650343551685
 97
        0
 97
        0
 75
     2
 76
     1
 98
        0
  0
INSERT
  5
1AD
330
1A6
100
AcDbEntity
  8
Capa 1
100
AcDbBlockReference
  2
block 55
 10
0.0
 20
0.0
 30
0.0
  0
ENDBLK
  5
1A9
330
1A6
100
AcDbEntity
  8
0
100
AcDbBlockEnd
  0
BLOCK
  5
1AE
330
1AC
100
AcDbEntity
  8
0
100
AcDbBlockBegin
  2
block 55
 70
     0
 10
0.0
 20
0.0
 30
0.0
  3
block 55
  1

  0
POLYLINE
  5
1B0
330
1AC
100
AcDbEntity
  8
Capa 1
 62
   250
420
  1842203
370
     9
100
AcDb2dPolyline
 66
     1
 10
0.0
 20
0.0
 30
0.0
  0
VERTEX
  5
1B1
330
1B0
100
AcDbEntity
  8
Capa 1
 62
   250
420
  1842203
370
     9
100
AcDbVertex
100
AcDb2dVertex
 10
34.43601982708965
 20
-24.37650343551781
 30
0.0
  0
VERTEX
  5
1B2
330
1B0
100
AcDbEntity
  8
Capa 1
 62
   250
420
  1842203
370
     9
100
AcDbVertex
100
AcDb2dVertex
 10
39.43601982583916
 20
-24.37650343551781
 30
0.0
  0
SEQEND
  5
1B3
330
1B0
100
AcDbEntity
  8
Capa 1
 62
   250
420
  1842203
370
     9
  0
POLYLINE
  5
1B4
330
1AC
100
AcDbEntity
  8
Capa 1
 62
   250
420
  1842203
370
     9
100
AcDb2dPolyline
 66
     1
 10
0.0
 20
0.0
 30
0.0
  0
VERTEX
  5
1B5
330
1B4
100
AcDbEntity
  8
Capa 1
 62
   250
420
  1842203
370
     9
100
AcDbVertex
100
AcDb2dVertex
 10
36.93601982646505
 20
-21.87650343614273
 30
0.0
  0
VERTEX
  5
1B6
330
1B4
100
AcDbEntity
  8
Capa 1
 62
   250
420
  1842203
370
     9
100
AcDbVertex
100
AcDb2dVertex
 10
36.93601982646505
 20
-26.87650343489288
 30
0.0
  0
SEQEND
  5
1B7
330
1B4
100
AcDbEntity
  8
Capa 1
 62
   250
420
  1842203
370
     9
  0
ENDBLK
  5
1AF
330
1AC
100
AcDbEntity
  8
0
100
AcDbBlockEnd
  0
BLOCK
  5
1BB
330
1B9
100
AcDbEntity
  8
0
100
AcDbBlockBegin
  2
block 56
 70
     0
 10
0.0
 20
0.0
 30
0.0
  3
block 56
  1

  0
INSERT
  5
1BE
330
1B9
100
AcDbEntity
  8
Capa 1
100
AcDbBlockReference
  2
block 57
 10
0.0
 20
0.0
 30
0.0
  0
MTEXT
  5
1CF
330
1B9
100
AcDbEntity
  8
Capa 1
 62
   250
420
  1842203
100
AcDbMText
 10
58.39807195263139
 20
-26.11615880604683
 30
0.0
 40
3.49673333245915
 41
0.0
 46
0.0
 71
     7
 72
     1
  1
\fConfig Condensed|b1|i0|c0|p34;\W1;S2
 73
     1
 44
1.0
  0
ENDBLK
  5
1BC
330
1B9
100
AcDbEntity
  8
0
100
AcDbBlockEnd
  0
BLOCK
  5
1BF
330
1BD
100
AcDbEntity
  8
0
100
AcDbBlockBegin
  2
block 57
 70
     0
 10
0.0
 20
0.0
 30
0.0
  3
block 57
  1

  0
SPLINE
  5
1C1
330
1BD
100
AcDbEntity
  8
Capa 1
 62
   152
420
  1929399
370
    18
100
AcDbSpline
210
0.0
220
0.0
230
1.0
 70
    11
 71
     3
 72
    17
 73
    13
 74
     0
 42
0.0000000001
 43
0.0000000001
 12
1.0
 22
0.0
 32
0.0
 13
1.0
 23
0.0
 33
0.0
 40
0.0
 40
0.0
 40
0.0
 40
0.0
 40
1.0
 40
1.0
 40
1.0
 40
2.0
 40
2.0
 40
2.0
 40
3.0
 40
3.0
 40
3.0
 40
4.0
 40
4.0
 40
4.0
 40
4.0
 10
66.20201485994585
 20
-24.37650343551685
 30
0.0
 10
66.20201485994585
 20
-27.41406955886294
 30
0.0
 10
63.73958098462616
 20
-29.87650343451246
 30
0.0
 10
60.70201486169139
 20
-29.87650343451246
 30
0.0
 10
57.66444873875662
 20
-29.87650343451246
 30
0.0
 10
55.20201486343694
 20
-27.41406955886294
 30
0.0
 10
55.20201486343694
 20
-24.37650343551685
 30
0.0
 10
55.20201486343694
 20
-21.33893731217299
 30
0.0
 10
57.66444873875662
 20
-18.87650343652348
 30
0.0
 10
60.70201486169139
 20
-18.87650343652348
 30
0.0
 10
63.73958098462616
 20
-18.87650343652348
 30
0.0
 10
66.20201485994585
 20
-21.33893731217299
 30
0.0
 10
66.20201485994585
 20
-24.37650343551685
 30
0.0
  0
HATCH
  5
1C2
330
1BD
100
AcDbEntity
  8
Capa 1
 62
   143
420
  3582432
100
AcDbHatch
 10
0.0
 20
0.0
 30
0.0
210
0.0
220
0.0
230
1.0
  2
SOLID
 70
     1
 71
     0
 91
        1
 92
        1
 93
        1
 72
     4
 94
        3
 73
     0
 74
     1
 95
       17
 96
       13
 40
0.0
 40
0.0
 40
0.0
 40
0.0
 40
1.0
 40
1.0
 40
1.0
 40
2.0
 40
2.0
 40
2.0
 40
3.0
 40
3.0
 40
3.0
 40
4.0
 40
4.0
 40
4.0
 40
4.0
 10
66.20201485994585
 20
-24.37650343551685
 10
66.20201485994585
 20
-27.41406955886294
 10
63.73958098462616
 20
-29.87650343451246
 10
60.70201486169139
 20
-29.87650343451246
 10
57.66444873875662
 20
-29.87650343451246
 10
55.20201486343694
 20
-27.41406955886294
 10
55.20201486343694
 20
-24.37650343551685
 10
55.20201486343694
 20
-21.33893731217299
 10
57.66444873875662
 20
-18.87650343652348
 10
60.70201486169139
 20
-18.87650343652348
 10
63.73958098462616
 20
-18.87650343652348
 10
66.20201485994585
 20
-21.33893731217299
 10
66.20201485994585
 20
-24.37650343551685
 97
        0
 97
        0
 75
     2
 76
     1
 98
        0
  0
INSERT
  5
1C4
330
1BD
100
AcDbEntity
  8
Capa 1
100
AcDbBlockReference
  2
block 58
 10
0.0
 20
0.0
 30
0.0
  0
ENDBLK
  5
1C0
330
1BD
100
AcDbEntity
  8
0
100
AcDbBlockEnd
  0
BLOCK
  5
1C5
330
1C3
100
AcDbEntity
  8
0
100
AcDbBlockBegin
  2
block 58
 70
     0
 10
0.0
 20
0.0
 30
0.0
  3
block 58
  1

  0
POLYLINE
  5
1C7
330
1C3
100
AcDbEntity
  8
Capa 1
 62
   250
420
  1842203
370
     9
100
AcDb2dPolyline
 66
     1
 10
0.0
 20
0.0
 30
0.0
  0
VERTEX
  5
1C8
330
1C7
100
AcDbEntity
  8
Capa 1
 62
   250
420
  1842203
370
     9
100
AcDbVertex
100
AcDb2dVertex
 10
58.20201486231696
 20
-24.37650343551781
 30
0.0
  0
VERTEX
  5
1C9
330
1C7
100
AcDbEntity
  8
Capa 1
 62
   250
420
  1842203
370
     9
100
AcDbVertex
100
AcDb2dVertex
 10
63.20201486106614
 20
-24.37650343551781
 30
0.0
  0
SEQEND
  5
1CA
330
1C7
100
AcDbEntity
  8
Capa 1
 62
   250
420
  1842203
370
     9
  0
POLYLINE
  5
1CB
330
1C3
100
AcDbEntity
  8
Capa 1
 62
   250
420
  1842203
370
     9
100
AcDb2dPolyline
 66
     1
 10
0.0
 20
0.0
 30
0.0
  0
VERTEX
  5
1CC
330
1CB
100
AcDbEntity
  8
Capa 1
 62
   250
420
  1842203
370
     9
100
AcDbVertex
100
AcDb2dVertex
 10
60.70201486169203
 20
-21.87650343614273
 30
0.0
  0
VERTEX
  5
1CD
330
1CB
100
AcDbEntity
  8
Capa 1
 62
   250
420
  1842203
370
     9
100
AcDbVertex
100
AcDb2dVertex
 10
60.70201486169203
 20
-26.87650343489288
 30
0.0
  0
SEQEND
  5
1CE
330
1CB
100
AcDbEntity
  8
Capa 1
 62
   250
420
  1842203
370
     9
  0
ENDBLK
  5
1C6
330
1C3
100
AcDbEntity
  8
0
100
AcDbBlockEnd
  0
BLOCK
  5
1D2
330
1D0
100
AcDbEntity
  8
0
100
AcDbBlockBegin
  2
block 59
 70
     0
 10
0.0
 20
0.0
 30
0.0
  3
block 59
  1

  0
INSERT
  5
1D5
330
1D0
100
AcDbEntity
  8
Capa 1
100
AcDbBlockReference
  2
block 60
 10
0.0
 20
0.0
 30
0.0
  0
MTEXT
  5
1E6
330
1D0
100
AcDbEntity
  8
Capa 1
 62
   250
420
  1842203
100
AcDbMText
 10
82.60180560272195
 20
-26.11615880604683
 30
0.0
 40
3.49673333245915
 41
0.0
 46
0.0
 71
     7
 72
     1
  1
\fConfig Condensed|b1|i0|c0|p34;\W1;E1
 73
     1
 44
1.0
  0
ENDBLK
  5
1D3
330
1D0
100
AcDbEntity
  8
0
100
AcDbBlockEnd
  0
BLOCK
  5
1D6
330
1D4
100
AcDbEntity
  8
0
100
AcDbBlockBegin
  2
block 60
 70
     0
 10
0.0
 20
0.0
 30
0.0
  3
block 60
  1

  0
SPLINE
  5
1D8
330
1D4
100
AcDbEntity
  8
Capa 1
 62
   152
420
  1929399
370
    18
100
AcDbSpline
210
0.0
220
0.0
230
1.0
 70
    11
 71
     3
 72
    17
 73
    13
 74
     0
 42
0.0000000001
 43
0.0000000001
 12
1.0
 22
0.0
 32
0.0
 13
1.0
 23
0.0
 33
0.0
 40
0.0
 40
0.0
 40
0.0
 40
0.0
 40
1.0
 40
1.0
 40
1.0
 40
2.0
 40
2.0
 40
2.0
 40
3.0
 40
3.0
 40
3.0
 40
4.0
 40
4.0
 40
4.0
 40
4.0
 10
89.96800989517219
 20
-24.37650343551685
 30
0.0
 10
89.96800989517219
 20
-27.41406955886294
 30
0.0
 10
87.5055760198525
 20
-29.87650343451246
 30
0.0
 10
84.46800989691774
 20
-29.87650343451246
 30
0.0
 10
81.43044377398296
 20
-29.87650343451246
 30
0.0
 10
78.96800989866328
 20
-27.41406955886294
 30
0.0
 10
78.96800989866328
 20
-24.37650343551685
 30
0.0
 10
78.96800989866328
 20
-21.33893731217299
 30
0.0
 10
81.43044377398296
 20
-18.87650343652348
 30
0.0
 10
84.46800989691774
 20
-18.87650343652348
 30
0.0
 10
87.5055760198525
 20
-18.87650343652348
 30
0.0
 10
89.96800989517219
 20
-21.33893731217299
 30
0.0
 10
89.96800989517219
 20
-24.37650343551685
 30
0.0
  0
HATCH
  5
1D9
330
1D4
100
AcDbEntity
  8
Capa 1
 62
   143
420
  3582432
100
AcDbHatch
 10
0.0
 20
0.0
 30
0.0
210
0.0
220
0.0
230
1.0
  2
SOLID
 70
     1
 71
     0
 91
        1
 92
        1
 93
        1
 72
     4
 94
        3
 73
     0
 74
     1
 95
       17
 96
       13
 40
0.0
 40
0.0
 40
0.0
 40
0.0
 40
1.0
 40
1.0
 40
1.0
 40
2.0
 40
2.0
 40
2.0
 40
3.0
 40
3.0
 40
3.0
 40
4.0
 40
4.0
 40
4.0
 40
4.0
 10
89.96800989517219
 20
-24.37650343551685
 10
89.96800989517219
 20
-27.41406955886294
 10
87.5055760198525
 20
-29.87650343451246
 10
84.46800989691774
 20
-29.87650343451246
 10
81.43044377398296
 20
-29.87650343451246
 10
78.96800989866328
 20
-27.41406955886294
 10
78.96800989866328
 20
-24.37650343551685
 10
78.96800989866328
 20
-21.33893731217299
 10
81.43044377398296
 20
-18.87650343652348
 10
84.46800989691774
 20
-18.87650343652348
 10
87.5055760198525
 20
-18.87650343652348
 10
89.96800989517219
 20
-21.33893731217299
 10
89.96800989517219
 20
-24.37650343551685
 97
        0
 97
        0
 75
     2
 76
     1
 98
        0
  0
INSERT
  5
1DB
330
1D4
100
AcDbEntity
  8
Capa 1
100
AcDbBlockReference
  2
block 61
 10
0.0
 20
0.0
 30
0.0
  0
ENDBLK
  5
1D7
330
1D4
100
AcDbEntity
  8
0
100
AcDbBlockEnd
  0
BLOCK
  5
1DC
330
1DA
100
AcDbEntity
  8
0
100
AcDbBlockBegin
  2
block 61
 70
     0
 10
0.0
 20
0.0
 30
0.0
  3
block 61
  1

  0
POLYLINE
  5
1DE
330
1DA
100
AcDbEntity
  8
Capa 1
 62
   250
420
  1842203
370
     9
100
AcDb2dPolyline
 66
     1
 10
0.0
 20
0.0
 30
0.0
  0
VERTEX
  5
1DF
330
1DE
100
AcDbEntity
  8
Capa 1
 62
   250
420
  1842203
370
     9
100
AcDbVertex
100
AcDb2dVertex
 10
81.96800989754233
 20
-24.37650343551781
 30
0.0
  0
VERTEX
  5
1E0
330
1DE
100
AcDbEntity
  8
Capa 1
 62
   250
420
  1842203
370
     9
100
AcDbVertex
100
AcDb2dVertex
 10
86.96800989629185
 20
-24.37650343551781
 30
0.0
  0
SEQEND
  5
1E1
330
1DE
100
AcDbEntity
  8
Capa 1
 62
   250
420
  1842203
370
     9
  0
POLYLINE
  5
1E2
330
1DA
100
AcDbEntity
  8
Capa 1
 62
   250
420
  1842203
370
     9
100
AcDb2dPolyline
 66
     1
 10
0.0
 20
0.0
 30
0.0
  0
VERTEX
  5
1E3
330
1E2
100
AcDbEntity
  8
Capa 1
 62
   250
420
  1842203
370
     9
100
AcDbVertex
100
AcDb2dVertex
 10
84.46800989691774
 20
-21.87650343614273
 30
0.0
  0
VERTEX
  5
1E4
330
1E2
100
AcDbEntity
  8
Capa 1
 62
   250
420
  1842203
370
     9
100
AcDbVertex
100
AcDb2dVertex
 10
84.46800989691774
 20
-26.87650343489288
 30
0.0
  0
SEQEND
  5
1E5
330
1E2
100
AcDbEntity
  8
Capa 1
 62
   250
420
  1842203
370
     9
  0
ENDBLK
  5
1DD
330
1DA
100
AcDbEntity
  8
0
100
AcDbBlockEnd
  0
BLOCK
  5
1E9
330
1E7
100
AcDbEntity
  8
0
100
AcDbBlockBegin
  2
block 62
 70
     0
 10
0.0
 20
0.0
 30
0.0
  3
block 62
  1

  0
INSERT
  5
1EC
330
1E7
100
AcDbEntity
  8
Capa 1
100
AcDbBlockReference
  2
block 63
 10
0.0
 20
0.0
 30
0.0
  0
MTEXT
  5
1FD
330
1E7
100
AcDbEntity
  8
Capa 1
 62
   250
420
  1842203
100
AcDbMText
 10
105.9157033867426
 20
-26.11615880604683
 30
0.0
 40
3.49673333245915
 41
0.0
 46
0.0
 71
     7
 72
     1
  1
\fConfig Condensed|b1|i0|c0|p34;\W1;E2
 73
     1
 44
1.0
  0
ENDBLK
  5
1EA
330
1E7
100
AcDbEntity
  8
0
100
AcDbBlockEnd
  0
BLOCK
  5
1ED
330
1EB
100
AcDbEntity
  8
0
100
AcDbBlockBegin
  2
block 63
 70
     0
 10
0.0
 20
0.0
 30
0.0
  3
block 63
  1

  0
SPLINE
  5
1EF
330
1EB
100
AcDbEntity
  8
Capa 1
 62
   152
420
  1929399
370
    18
100
AcDbSpline
210
0.0
220
0.0
230
1.0
 70
    11
 71
     3
 72
    17
 73
    13
 74
     0
 42
0.0000000001
 43
0.0000000001
 12
1.0
 22
0.0
 32
0.0
 13
1.0
 23
0.0
 33
0.0
 40
0.0
 40
0.0
 40
0.0
 40
0.0
 40
1.0
 40
1.0
 40
1.0
 40
2.0
 40
2.0
 40
2.0
 40
3.0
 40
3.0
 40
3.0
 40
4.0
 40
4.0
 40
4.0
 40
4.0
 10
113.7340049303985
 20
-24.37650343551685
 30
0.0
 10
113.7340049303985
 20
-27.41406955886294
 30
0.0
 10
111.2715710550788
 20
-29.87650343451246
 30
0.0
 10
108.2340049321447
 20
-29.87650343451246
 30
0.0
 10
105.19643880921
 20
-29.87650343451246
 30
0.0
 10
102.7340049338903
 20
-27.41406955886294
 30
0.0
 10
102.7340049338903
 20
-24.37650343551685
 30
0.0
 10
102.7340049338903
 20
-21.33893731217299
 30
0.0
 10
105.19643880921
 20
-18.87650343652348
 30
0.0
 10
108.2340049321447
 20
-18.87650343652348
 30
0.0
 10
111.2715710550788
 20
-18.87650343652348
 30
0.0
 10
113.7340049303985
 20
-21.33893731217299
 30
0.0
 10
113.7340049303985
 20
-24.37650343551685
 30
0.0
  0
HATCH
  5
1F0
330
1EB
100
AcDbEntity
  8
Capa 1
 62
   143
420
  3582432
100
AcDbHatch
 10
0.0
 20
0.0
 30
0.0
210
0.0
220
0.0
230
1.0
  2
SOLID
 70
     1
 71
     0
 91
        1
 92
        1
 93
        1
 72
     4
 94
        3
 73
     0
 74
     1
 95
       17
 96
       13
 40
0.0
 40
0.0
 40
0.0
 40
0.0
 40
1.0
 40
1.0
 40
1.0
 40
2.0
 40
2.0
 40
2.0
 40
3.0
 40
3.0
 40
3.0
 40
4.0
 40
4.0
 40
4.0
 40
4.0
 10
113.7340049303985
 20
-24.37650343551685
 10
113.7340049303985
 20
-27.41406955886294
 10
111.2715710550788
 20
-29.87650343451246
 10
108.2340049321447
 20
-29.87650343451246
 10
105.19643880921
 20
-29.87650343451246
 10
102.7340049338903
 20
-27.41406955886294
 10
102.7340049338903
 20
-24.37650343551685
 10
102.7340049338903
 20
-21.33893731217299
 10
105.19643880921
 20
-18.87650343652348
 10
108.2340049321447
 20
-18.87650343652348
 10
111.2715710550788
 20
-18.87650343652348
 10
113.7340049303985
 20
-21.33893731217299
 10
113.7340049303985
 20
-24.37650343551685
 97
        0
 97
        0
 75
     2
 76
     1
 98
        0
  0
INSERT
  5
1F2
330
1EB
100
AcDbEntity
  8
Capa 1
100
AcDbBlockReference
  2
block 64
 10
0.0
 20
0.0
 30
0.0
  0
ENDBLK
  5
1EE
330
1EB
100
AcDbEntity
  8
0
100
AcDbBlockEnd
  0
BLOCK
  5
1F3
330
1F1
100
AcDbEntity
  8
0
100
AcDbBlockBegin
  2
block 64
 70
     0
 10
0.0
 20
0.0
 30
0.0
  3
block 64
  1

  0
POLYLINE
  5
1F5
330
1F1
100
AcDbEntity
  8
Capa 1
 62
   250
420
  1842203
370
     9
100
AcDb2dPolyline
 66
     1
 10
0.0
 20
0.0
 30
0.0
  0
VERTEX
  5
1F6
330
1F5
100
AcDbEntity
  8
Capa 1
 62
   250
420
  1842203
370
     9
100
AcDbVertex
100
AcDb2dVertex
 10
105.73400493277
 20
-24.37650343551781
 30
0.0
  0
VERTEX
  5
1F7
330
1F5
100
AcDbEntity
  8
Capa 1
 62
   250
420
  1842203
370
     9
100
AcDbVertex
100
AcDb2dVertex
 10
110.7340049315195
 20
-24.37650343551781
 30
0.0
  0
SEQEND
  5
1F8
330
1F5
100
AcDbEntity
  8
Capa 1
 62
   250
420
  1842203
370
     9
  0
POLYLINE
  5
1F9
330
1F1
100
AcDbEntity
  8
Capa 1
 62
   250
420
  1842203
370
     9
100
AcDb2dPolyline
 66
     1
 10
0.0
 20
0.0
 30
0.0
  0
VERTEX
  5
1FA
330
1F9
100
AcDbEntity
  8
Capa 1
 62
   250
420
  1842203
370
     9
100
AcDbVertex
100
AcDb2dVertex
 10
108.2340049321454
 20
-21.87650343614273
 30
0.0
  0
VERTEX
  5
1FB
330
1F9
100
AcDbEntity
  8
Capa 1
 62
   250
420
  1842203
370
     9
100
AcDbVertex
100
AcDb2dVertex
 10
108.2340049321454
 20
-26.87650343489288
 30
0.0
  0
SEQEND
  5
1FC
330
1F9
100
AcDbEntity
  8
Capa 1
 62
   250
420
  1842203
370
     9
  0
ENDBLK
  5
1F4
330
1F1
100
AcDbEntity
  8
0
100
AcDbBlockEnd
  0
BLOCK
  5
200
330
1FE
100
AcDbEntity
  8
0
100
AcDbBlockBegin
  2
block 65
 70
     0
 10
0.0
 20
0.0
 30
0.0
  3
block 65
  1

  0
INSERT
  5
203
330
1FE
100
AcDbEntity
  8
Capa 1
100
AcDbBlockReference
  2
block 66
 10
0.0
 20
0.0
 30
0.0
  0
MTEXT
  5
214
330
1FE
100
AcDbEntity
  8
Capa 1
 62
   250
420
  1842203
100
AcDbMText
 10
130.7135652851113
 20
-26.11615880604683
 30
0.0
 40
3.49673333245915
 41
0.0
 46
0.0
 71
     7
 72
     1
  1
\fConfig Condensed|b1|i0|c0|p34;\W1;D
 73
     1
 44
1.0
  0
ENDBLK
  5
201
330
1FE
100
AcDbEntity
  8
0
100
AcDbBlockEnd
  0
BLOCK
  5
204
330
202
100
AcDbEntity
  8
0
100
AcDbBlockBegin
  2
block 66
 70
     0
 10
0.0
 20
0.0
 30
0.0
  3
block 66
  1

  0
SPLINE
  5
206
330
202
100
AcDbEntity
  8
Capa 1
 62
   152
420
  1929399
370
    18
100
AcDbSpline
210
0.0
220
0.0
230
1.0
 70
    11
 71
     3
 72
    17
 73
    13
 74
     0
 42
0.0000000001
 43
0.0000000001
 12
1.0
 22
0.0
 32
0.0
 13
1.0
 23
0.0
 33
0.0
 40
0.0
 40
0.0
 40
0.0
 40
0.0
 40
1.0
 40
1.0
 40
1.0
 40
2.0
 40
2.0
 40
2.0
 40
3.0
 40
3.0
 40
3.0
 40
4.0
 40
4.0
 40
4.0
 40
4.0
 10
137.4999999656255
 20
-24.37650343551685
 30
0.0
 10
137.4999999656255
 20
-27.41406955886294
 30
0.0
 10
135.0375660903058
 20
-29.87650343451246
 30
0.0
 10
131.9999999673717
 20
-29.87650343451246
 30
0.0
 10
128.9624338444369
 20
-29.87650343451246
 30
0.0
 10
126.4999999691172
 20
-27.41406955886294
 30
0.0
 10
126.4999999691172
 20
-24.37650343551685
 30
0.0
 10
126.4999999691172
 20
-21.33893731217299
 30
0.0
 10
128.9624338444369
 20
-18.87650343652348
 30
0.0
 10
131.9999999673717
 20
-18.87650343652348
 30
0.0
 10
135.0375660903058
 20
-18.87650343652348
 30
0.0
 10
137.4999999656255
 20
-21.33893731217299
 30
0.0
 10
137.4999999656255
 20
-24.37650343551685
 30
0.0
  0
HATCH
  5
207
330
202
100
AcDbEntity
  8
Capa 1
 62
   143
420
  3582432
100
AcDbHatch
 10
0.0
 20
0.0
 30
0.0
210
0.0
220
0.0
230
1.0
  2
SOLID
 70
     1
 71
     0
 91
        1
 92
        1
 93
        1
 72
     4
 94
        3
 73
     0
 74
     1
 95
       17
 96
       13
 40
0.0
 40
0.0
 40
0.0
 40
0.0
 40
1.0
 40
1.0
 40
1.0
 40
2.0
 40
2.0
 40
2.0
 40
3.0
 40
3.0
 40
3.0
 40
4.0
 40
4.0
 40
4.0
 40
4.0
 10
137.4999999656255
 20
-24.37650343551685
 10
137.4999999656255
 20
-27.41406955886294
 10
135.0375660903058
 20
-29.87650343451246
 10
131.9999999673717
 20
-29.87650343451246
 10
128.9624338444369
 20
-29.87650343451246
 10
126.4999999691172
 20
-27.41406955886294
 10
126.4999999691172
 20
-24.37650343551685
 10
126.4999999691172
 20
-21.33893731217299
 10
128.9624338444369
 20
-18.87650343652348
 10
131.9999999673717
 20
-18.87650343652348
 10
135.0375660903058
 20
-18.87650343652348
 10
137.4999999656255
 20
-21.33893731217299
 10
137.4999999656255
 20
-24.37650343551685
 97
        0
 97
        0
 75
     2
 76
     1
 98
        0
  0
INSERT
  5
209
330
202
100
AcDbEntity
  8
Capa 1
100
AcDbBlockReference
  2
block 67
 10
0.0
 20
0.0
 30
0.0
  0
ENDBLK
  5
205
330
202
100
AcDbEntity
  8
0
100
AcDbBlockEnd
  0
BLOCK
  5
20A
330
208
100
AcDbEntity
  8
0
100
AcDbBlockBegin
  2
block 67
 70
     0
 10
0.0
 20
0.0
 30
0.0
  3
block 67
  1

  0
POLYLINE
  5
20C
330
208
100
AcDbEntity
  8
Capa 1
 62
   250
420
  1842203
370
     9
100
AcDb2dPolyline
 66
     1
 10
0.0
 20
0.0
 30
0.0
  0
VERTEX
  5
20D
330
20C
100
AcDbEntity
  8
Capa 1
 62
   250
420
  1842203
370
     9
100
AcDbVertex
100
AcDb2dVertex
 10
129.499999967997
 20
-24.37650343551781
 30
0.0
  0
VERTEX
  5
20E
330
20C
100
AcDbEntity
  8
Capa 1
 62
   250
420
  1842203
370
     9
100
AcDbVertex
100
AcDb2dVertex
 10
134.4999999667465
 20
-24.37650343551781
 30
0.0
  0
SEQEND
  5
20F
330
20C
100
AcDbEntity
  8
Capa 1
 62
   250
420
  1842203
370
     9
  0
POLYLINE
  5
210
330
208
100
AcDbEntity
  8
Capa 1
 62
   250
420
  1842203
370
     9
100
AcDb2dPolyline
 66
     1
 10
0.0
 20
0.0
 30
0.0
  0
VERTEX
  5
211
330
210
100
AcDbEntity
  8
Capa 1
 62
   250
420
  1842203
370
     9
100
AcDbVertex
100
AcDb2dVertex
 10
131.9999999673723
 20
-21.87650343614273
 30
0.0
  0
VERTEX
  5
212
330
210
100
AcDbEntity
  8
Capa 1
 62
   250
420
  1842203
370
     9
100
AcDbVertex
100
AcDb2dVertex
 10
131.9999999673723
 20
-26.87650343489288
 30
0.0
  0
SEQEND
  5
213
330
210
100
AcDbEntity
  8
Capa 1
 62
   250
420
  1842203
370
     9
  0
ENDBLK
  5
20B
330
208
100
AcDbEntity
  8
0
100
AcDbBlockEnd
  0
BLOCK
  5
217
330
215
100
AcDbEntity
  8
0
100
AcDbBlockBegin
  2
block 68
 70
     0
 10
0.0
 20
0.0
 30
0.0
  3
block 68
  1

  0
INSERT
  5
21A
330
215
100
AcDbEntity
  8
Capa 1
100
AcDbBlockReference
  2
block 69
 10
0.0
 20
0.0
 30
0.0
  0
INSERT
  5
22C
330
215
100
AcDbEntity
  8
Capa 1
100
AcDbBlockReference
  2
block 71
 10
0.0
 20
0.0
 30
0.0
  0
ENDBLK
  5
218
330
215
100
AcDbEntity
  8
0
100
AcDbBlockEnd
  0
BLOCK
  5
21B
330
219
100
AcDbEntity
  8
0
100
AcDbBlockBegin
  2
block 69
 70
     0
 10
0.0
 20
0.0
 30
0.0
  3
block 69
  1

  0
SPLINE
  5
21D
330
219
100
AcDbEntity
  8
Capa 1
 62
   152
420
  1929399
370
    18
100
AcDbSpline
210
0.0
220
0.0
230
1.0
 70
    11
 71
     3
 72
    17
 73
    13
 74
     0
 42
0.0000000001
 43
0.0000000001
 12
1.0
 22
0.0
 32
0.0
 13
1.0
 23
0.0
 33
0.0
 40
0.0
 40
0.0
 40
0.0
 40
0.0
 40
1.0
 40
1.0
 40
1.0
 40
2.0
 40
2.0
 40
2.0
 40
3.0
 40
3.0
 40
3.0
 40
4.0
 40
4.0
 40
4.0
 40
4.0
 10
18.67002478949188
 20
-24.37650343551685
 30
0.0
 10
18.67002478949188
 20
-27.41406955886294
 30
0.0
 10
16.20759091417219
 20
-29.87650343451246
 30
0.0
 10
13.17002479123807
 20
-29.87650343451246
 30
0.0
 10
10.1324586683033
 20
-29.87650343451246
 30
0.0
 10
7.670024792983615
 20
-27.41406955886294
 30
0.0
 10
7.670024792983615
 20
-24.37650343551685
 30
0.0
 10
7.670024792983615
 20
-21.33893731217299
 30
0.0
 10
10.1324586683033
 20
-18.87650343652348
 30
0.0
 10
13.17002479123807
 20
-18.87650343652348
 30
0.0
 10
16.20759091417219
 20
-18.87650343652348
 30
0.0
 10
18.67002478949188
 20
-21.33893731217299
 30
0.0
 10
18.67002478949188
 20
-24.37650343551685
 30
0.0
  0
HATCH
  5
21E
330
219
100
AcDbEntity
  8
Capa 1
 62
   105
420
  3058790
100
AcDbHatch
 10
0.0
 20
0.0
 30
0.0
210
0.0
220
0.0
230
1.0
  2
SOLID
 70
     1
 71
     0
 91
        1
 92
        1
 93
        1
 72
     4
 94
        3
 73
     0
 74
     1
 95
       17
 96
       13
 40
0.0
 40
0.0
 40
0.0
 40
0.0
 40
1.0
 40
1.0
 40
1.0
 40
2.0
 40
2.0
 40
2.0
 40
3.0
 40
3.0
 40
3.0
 40
4.0
 40
4.0
 40
4.0
 40
4.0
 10
18.67002478949188
 20
-24.37650343551685
 10
18.67002478949188
 20
-27.41406955886294
 10
16.20759091417219
 20
-29.87650343451246
 10
13.17002479123807
 20
-29.87650343451246
 10
10.1324586683033
 20
-29.87650343451246
 10
7.670024792983615
 20
-27.41406955886294
 10
7.670024792983615
 20
-24.37650343551685
 10
7.670024792983615
 20
-21.33893731217299
 10
10.1324586683033
 20
-18.87650343652348
 10
13.17002479123807
 20
-18.87650343652348
 10
16.20759091417219
 20
-18.87650343652348
 10
18.67002478949188
 20
-21.33893731217299
 10
18.67002478949188
 20
-24.37650343551685
 97
        0
 97
        0
 75
     2
 76
     1
 98
        0
  0
INSERT
  5
220
330
219
100
AcDbEntity
  8
Capa 1
100
AcDbBlockReference
  2
block 70
 10
0.0
 20
0.0
 30
0.0
  0
ENDBLK
  5
21C
330
219
100
AcDbEntity
  8
0
100
AcDbBlockEnd
  0
BLOCK
  5
221
330
21F
100
AcDbEntity
  8
0
100
AcDbBlockBegin
  2
block 70
 70
     0
 10
0.0
 20
0.0
 30
0.0
  3
block 70
  1

  0
POLYLINE
  5
223
330
21F
100
AcDbEntity
  8
Capa 1
 62
   250
420
  1842203
370
     9
100
AcDb2dPolyline
 66
     1
 10
0.0
 20
0.0
 30
0.0
  0
VERTEX
  5
224
330
223
100
AcDbEntity
  8
Capa 1
 62
   250
420
  1842203
370
     9
100
AcDbVertex
100
AcDb2dVertex
 10
10.67002479186299
 20
-24.37650343551781
 30
0.0
  0
VERTEX
  5
225
330
223
100
AcDbEntity
  8
Capa 1
 62
   250
420
  1842203
370
     9
100
AcDbVertex
100
AcDb2dVertex
 10
15.6700247906125
 20
-24.37650343551781
 30
0.0
  0
SEQEND
  5
226
330
223
100
AcDbEntity
  8
Capa 1
 62
   250
420
  1842203
370
     9
  0
POLYLINE
  5
227
330
21F
100
AcDbEntity
  8
Capa 1
 62
   250
420
  1842203
370
     9
100
AcDb2dPolyline
 66
     1
 10
0.0
 20
0.0
 30
0.0
  0
VERTEX
  5
228
330
227
100
AcDbEntity
  8
Capa 1
 62
   250
420
  1842203
370
     9
100
AcDbVertex
100
AcDb2dVertex
 10
13.17002479123839
 20
-21.87650343614273
 30
0.0
  0
VERTEX
  5
229
330
227
100
AcDbEntity
  8
Capa 1
 62
   250
420
  1842203
370
     9
100
AcDbVertex
100
AcDb2dVertex
 10
13.17002479123839
 20
-26.87650343489288
 30
0.0
  0
SEQEND
  5
22A
330
227
100
AcDbEntity
  8
Capa 1
 62
   250
420
  1842203
370
     9
  0
ENDBLK
  5
222
330
21F
100
AcDbEntity
  8
0
100
AcDbBlockEnd
  0
BLOCK
  5
22D
330
22B
100
AcDbEntity
  8
0
100
AcDbBlockBegin
  2
block 71
 70
     0
 10
0.0
 20
0.0
 30
0.0
  3
block 71
  1

  0
POLYLINE
  5
22F
330
22B
100
AcDbEntity
  8
Capa 1
 62
   250
420
  1842203
370
    70
100
AcDb2dPolyline
 66
     1
 10
0.0
 20
0.0
 30
0.0
  0
VERTEX
  5
230
330
22F
100
AcDbEntity
  8
Capa 1
 62
   250
420
  1842203
370
    70
100
AcDbVertex
100
AcDb2dVertex
 10
13.16999999684193
 20
-21.93419510254959
 30
0.0
  0
VERTEX
  5
231
330
22F
100
AcDbEntity
  8
Capa 1
 62
   250
420
  1842203
370
    70
100
AcDbVertex
100
AcDb2dVertex
 10
13.16999999684193
 20
-24.93419510179955
 30
0.0
  0
SEQEND
  5
232
330
22F
100
AcDbEntity
  8
Capa 1
 62
   250
420
  1842203
370
    70
  0
SPLINE
  5
233
330
22B
100
AcDbEntity
  8
Capa 1
 62
   250
420
  1842203
370
    70
100
AcDbSpline
210
0.0
220
0.0
230
1.0
 70
     8
 71
     3
 72
    17
 73
    13
 74
     0
 42
0.0000000001
 43
0.0000000001
 12
1.0
 22
0.0
 32
0.0
 13
1.0
 23
0.0
 33
0.0
 40
0.0
 40
0.0
 40
0.0
 40
0.0
 40
1.0
 40
1.0
 40
1.0
 40
2.0
 40
2.0
 40
2.0
 40
3.0
 40
3.0
 40
3.0
 40
4.0
 40
4.0
 40
4.0
 40
4.0
 10
14.16999999655833
 20
-22.77170540619122
 30
0.0
 10
14.78803398513291
 20
-23.12852749586312
 30
0.0
 10
15.16999999627441
 20
-23.79011203392488
 30
0.0
 10
15.16999999627441
 20
-24.50375621326835
 30
0.0
 10
15.16999999627441
 20
-25.60092375366666
 30
0.0
 10
14.26716753724056
 20
-26.50375621270052
 30
0.0
 10
13.16999999684225
 20
-26.50375621270052
 30
0.0
 10
12.07283245644394
 20
-26.50375621270052
 30
0.0
 10
11.16999999741008
 20
-25.60092375366666
 30
0.0
 10
11.16999999741008
 20
-24.50375621326835
 30
0.0
 10
11.16999999741008
 20
-23.79011203392488
 30
0.0
 10
11.55196600855158
 20
-23.12852749586312
 30
0.0
 10
12.16999999712616
 20
-22.77170540619122
 30
0.0
  0
ENDBLK
  5
22E
330
22B
100
AcDbEntity
  8
0
100
AcDbBlockEnd
  0
ENDSEC
  0
SECTION
  2
ENTITIES
  0
INSERT
  5
42
330
1F
100
AcDbEntity
  8
Capa 1
100
AcDbBlockReference
  2
block 2
 10
0.0
 20
0.0
 30
0.0
  0
INSERT
  5
48
330
1F
100
AcDbEntity
  8
Capa 1
100
AcDbBlockReference
  2
block 3
 10
0.0
 20
0.0
 30
0.0
  0
MTEXT
  5
75
330
1F
100
AcDbEntity
  8
Capa 1
 62
   250
420
  1842203
100
AcDbMText
 10
-20.12930534707271
 20
-3.221804178280175
 30
0.0
 40
3.246966665854925
 41
0.0
 46
0.0
 71
     7
 72
     1
  1
\fConfig Condensed|b1|i0|c0|p34;\W1;ISPEL
 73
     1
 44
1.0
  0
MTEXT
  5
76
330
1F
100
AcDbEntity
  8
Capa 1
 62
   250
420
  1842203
100
AcDbMText
 10
-20.12930534707271
 20
-7.807915288244758
 30
0.0
 40
3.246966665854925
 41
0.0
 46
0.0
 71
     7
 72
     1
  1
\fConfig Condensed|b1|i0|c0|p34;\W1;BETA
 73
     1
 44
1.0
  0
MTEXT
  5
77
330
1F
100
AcDbEntity
  8
Capa 1
 62
   250
420
  1842203
100
AcDbMText
 10
-20.12930534707271
 20
-12.39402639820934
 30
0.0
 40
3.246966665854925
 41
0.0
 46
0.0
 71
     7
 72
     1
  1
\fConfig Condensed Regular|b0|i0|c0|p34;\W1;2024
 73
     1
 44
1.0
  0
INSERT
  5
79
330
1F
100
AcDbEntity
  8
Capa 1
100
AcDbBlockReference
  2
block 4
 10
0.0
 20
0.0
 30
0.0
  0
INSERT
  5
7F
330
1F
100
AcDbEntity
  8
Capa 1
100
AcDbBlockReference
  2
block 5
 10
0.0
 20
0.0
 30
0.0
  0
INSERT
  5
99
330
1F
100
AcDbEntity
  8
Capa 1
100
AcDbBlockReference
  2
block 10
 10
0.0
 20
0.0
 30
0.0
  0
INSERT
  5
B3
330
1F
100
AcDbEntity
  8
Capa 1
100
AcDbBlockReference
  2
block 15
 10
0.0
 20
0.0
 30
0.0
  0
INSERT
  5
CD
330
1F
100
AcDbEntity
  8
Capa 1
100
AcDbBlockReference
  2
block 20
 10
0.0
 20
0.0
 30
0.0
  0
INSERT
  5
E7
330
1F
100
AcDbEntity
  8
Capa 1
100
AcDbBlockReference
  2
block 25
 10
0.0
 20
0.0
 30
0.0
  0
INSERT
  5
101
330
1F
100
AcDbEntity
  8
Capa 1
100
AcDbBlockReference
  2
block 30
 10
0.0
 20
0.0
 30
0.0
  0
INSERT
  5
107
330
1F
100
AcDbEntity
  8
Capa 1
100
AcDbBlockReference
  2
block 31
 10
0.0
 20
0.0
 30
0.0
  0
INSERT
  5
10D
330
1F
100
AcDbEntity
  8
Capa 1
100
AcDbBlockReference
  2
block 32
 10
0.0
 20
0.0
 30
0.0
  0
INSERT
  5
113
330
1F
100
AcDbEntity
  8
Capa 1
100
AcDbBlockReference
  2
block 33
 10
0.0
 20
0.0
 30
0.0
  0
INSERT
  5
119
330
1F
100
AcDbEntity
  8
Capa 1
100
AcDbBlockReference
  2
block 34
 10
0.0
 20
0.0
 30
0.0
  0
INSERT
  5
11F
330
1F
100
AcDbEntity
  8
Capa 1
100
AcDbBlockReference
  2
block 35
 10
0.0
 20
0.0
 30
0.0
  0
INSERT
  5
139
330
1F
100
AcDbEntity
  8
Capa 1
100
AcDbBlockReference
  2
block 40
 10
0.0
 20
0.0
 30
0.0
  0
SPLINE
  5
234
330
1F
100
AcDbEntity
  8
Capa 1
 62
   250
420
  1842203
370
    70
100
AcDbSpline
210
0.0
220
0.0
230
1.0
 70
    11
 71
     3
 72
    17
 73
    13
 74
     0
 42
0.0000000001
 43
0.0000000001
 12
1.0
 22
0.0
 32
0.0
 13
1.0
 23
0.0
 33
0.0
 40
0.0
 40
0.0
 40
0.0
 40
0.0
 40
1.0
 40
1.0
 40
1.0
 40
2.0
 40
2.0
 40
2.0
 40
3.0
 40
3.0
 40
3.0
 40
4.0
 40
4.0
 40
4.0
 40
4.0
 10
128.7826666348437
 20
-6.24999999839485
 30
0.0
 10
128.7826666348437
 20
-6.940355935495366
 30
0.0
 10
128.2230225722533
 20
-7.499999998124899
 30
0.0
 10
127.532666635199
 20
-7.499999998124899
 30
0.0
 10
126.8423106981447
 20
-7.499999998124899
 30
0.0
 10
126.282666635553
 20
-6.940355935495366
 30
0.0
 10
126.282666635553
 20
-6.24999999839485
 30
0.0
 10
126.282666635553
 20
-5.559644061294334
 30
0.0
 10
126.8423106981447
 20
-4.999999998665443
 30
0.0
 10
127.532666635199
 20
-4.999999998665443
 30
0.0
 10
128.2230225722533
 20
-4.999999998665443
 30
0.0
 10
128.7826666348437
 20
-5.559644061294334
 30
0.0
 10
128.7826666348437
 20
-6.24999999839485
 30
0.0
  0
SPLINE
  5
235
330
1F
100
AcDbEntity
  8
Capa 1
 62
   250
420
  1842203
370
    70
100
AcDbSpline
210
0.0
220
0.0
230
1.0
 70
    11
 71
     3
 72
    17
 73
    13
 74
     0
 42
0.0000000001
 43
0.0000000001
 12
1.0
 22
0.0
 32
0.0
 13
1.0
 23
0.0
 33
0.0
 40
0.0
 40
0.0
 40
0.0
 40
0.0
 40
1.0
 40
1.0
 40
1.0
 40
2.0
 40
2.0
 40
2.0
 40
3.0
 40
3.0
 40
3.0
 40
4.0
 40
4.0
 40
4.0
 40
4.0
 10
116.2340049296892
 20
-6.24999999839485
 30
0.0
 10
116.2340049296892
 20
-6.940355935495366
 30
0.0
 10
115.6743608670988
 20
-7.499999998124899
 30
0.0
 10
114.9840049300445
 20
-7.499999998124899
 30
0.0
 10
114.2936489929902
 20
-7.499999998124899
 30
0.0
 10
113.7340049303985
 20
-6.940355935495366
 30
0.0
 10
113.7340049303985
 20
-6.24999999839485
 30
0.0
 10
113.7340049303985
 20
-5.559644061294334
 30
0.0
 10
114.2936489929902
 20
-4.999999998665443
 30
0.0
 10
114.9840049300445
 20
-4.999999998665443
 30
0.0
 10
115.6743608670988
 20
-4.999999998665443
 30
0.0
 10
116.2340049296892
 20
-5.559644061294334
 30
0.0
 10
116.2340049296892
 20
-6.24999999839485
 30
0.0
  0
SPLINE
  5
236
330
1F
100
AcDbEntity
  8
Capa 1
 62
   250
420
  1842203
370
    70
100
AcDbSpline
210
0.0
220
0.0
230
1.0
 70
    11
 71
     3
 72
    17
 73
    13
 74
     0
 42
0.0000000001
 43
0.0000000001
 12
1.0
 22
0.0
 32
0.0
 13
1.0
 23
0.0
 33
0.0
 40
0.0
 40
0.0
 40
0.0
 40
0.0
 40
1.0
 40
1.0
 40
1.0
 40
2.0
 40
2.0
 40
2.0
 40
3.0
 40
3.0
 40
3.0
 40
4.0
 40
4.0
 40
4.0
 40
4.0
 10
123.8296666360816
 20
-6.24999999839485
 30
0.0
 10
123.8296666360816
 20
-6.940355935495366
 30
0.0
 10
123.2700225734912
 20
-7.499999998124899
 30
0.0
 10
122.5796666364369
 20
-7.499999998124899
 30
0.0
 10
121.8893106993826
 20
-7.499999998124899
 30
0.0
 10
121.3296666367909
 20
-6.940355935495366
 30
0.0
 10
121.3296666367909
 20
-6.24999999839485
 30
0.0
 10
121.3296666367909
 20
-5.559644061294334
 30
0.0
 10
121.8893106993826
 20
-4.999999998665443
 30
0.0
 10
122.5796666364369
 20
-4.999999998665443
 30
0.0
 10
123.2700225734912
 20
-4.999999998665443
 30
0.0
 10
123.8296666360816
 20
-5.559644061294334
 30
0.0
 10
123.8296666360816
 20
-6.24999999839485
 30
0.0
  0
ENDSEC
  0
SECTION
  2
OBJECTS
  0
DICTIONARY
  5
C
330
0
100
AcDbDictionary
281
     1
  3
ACAD_GROUP
350
D
  3
ACAD_LAYOUT
350
1A
  3
ACAD_MATERIAL
350
3B
  3
ACAD_MLEADERSTYLE
350
238
  3
ACAD_MLINESTYLE
350
17
  3
ACAD_PLOTSETTINGS
350
19
  3
ACAD_PLOTSTYLENAME
350
E
  3
ACAD_TABLESTYLE
350
237
  3
ACAD_VISUALSTYLE
350
2A
  0
SUN
  5
3F
330
29
100
AcDbSun
 90
        1
290
     0
 63
     7
421
 16777215
 40
1.0
291
     1
 91
  2455826
 92
 54000000
292
     0
 70
     2
 71
   256
280
     1
  0
DICTIONARY
  5
D
102
{ACAD_REACTORS
330
C
102
}
330
C
100
AcDbDictionary
281
     1
  0
DICTIONARY
  5
1A
102
{ACAD_REACTORS
330
C
102
}
330
C
100
AcDbDictionary
281
     1
  3
Layout1
350
1E
  3
Layout2
350
26
  3
Model
350
22
  0
DICTIONARY
  5
3B
102
{ACAD_REACTORS
330
C
102
}
330
C
100
AcDbDictionary
281
     1
  3
ByBlock
350
3D
  3
ByLayer
350
3C
  3
Global
350
3E
  0
DICTIONARY
  5
238
102
{ACAD_REACTORS
330
C
102
}
330
C
100
AcDbDictionary
281
     1
  0
DICTIONARY
  5
17
102
{ACAD_REACTORS
330
C
102
}
330
C
100
AcDbDictionary
281
     1
  3
Standard
350
18
  0
DICTIONARY
  5
19
102
{ACAD_REACTORS
330
C
102
}
330
C
100
AcDbDictionary
281
     1
  0
ACDBDICTIONARYWDFLT
  5
E
102
{ACAD_REACTORS
330
C
102
}
330
C
100
AcDbDictionary
281
     1
  3
Normal
350
F
100
AcDbDictionaryWithDefault
340
F
  0
DICTIONARY
  5
237
102
{ACAD_REACTORS
330
C
102
}
330
C
100
AcDbDictionary
281
     1
  0
DICTIONARY
  5
2A
102
{ACAD_REACTORS
330
C
102
}
330
C
100
AcDbDictionary
281
     1
  3
2dWireframe
350
2F
  3
3D Hidden
350
31
  3
3dWireframe
350
30
  3
Basic
350
32
  3
Brighten
350
36
  3
ColorChange
350
3A
  3
Conceptual
350
34
  3
Dim
350
35
  3
Facepattern
350
39
  3
Flat
350
2B
  3
FlatWithEdges
350
2C
  3
Gouraud
350
2D
  3
GouraudWithEdges
350
2E
  3
Linepattern
350
38
  3
Realistic
350
33
  3
Thicken
350
37
  0
LAYOUT
  5
1E
102
{ACAD_REACTORS
330
1A
102
}
330
1A
100
AcDbPlotSettings
  1

  2
none_device
  4

  6

 40
0.0
 41
0.0
 42
0.0
 43
0.0
 44
0.0
 45
0.0
 46
0.0
 47
0.0
 48
0.0
 49
0.0
140
0.0
141
0.0
142
1.0
143
1.0
 70
   688
 72
     0
 73
     0
 74
     5
  7

 75
    16
 76
     0
 77
     2
 78
   300
147
1.0
148
0.0
149
0.0
100
AcDbLayout
  1
Layout1
 70
     1
 71
     1
 10
0.0
 20
0.0
 11
12.0
 21
9.0
 12
0.0
 22
0.0
 32
0.0
 14
1.000000000000000E+20
 24
1.000000000000000E+20
 34
1.000000000000000E+20
 15
-1.000000000000000E+20
 25
-1.000000000000000E+20
 35
-1.000000000000000E+20
146
0.0
 13
0.0
 23
0.0
 33
0.0
 16
1.0
 26
0.0
 36
0.0
 17
0.0
 27
1.0
 37
0.0
 76
     0
330
1B
  0
LAYOUT
  5
26
102
{ACAD_REACTORS
330
1A
102
}
330
1A
100
AcDbPlotSettings
  1

  2
none_device
  4

  6

 40
0.0
 41
0.0
 42
0.0
 43
0.0
 44
0.0
 45
0.0
 46
0.0
 47
0.0
 48
0.0
 49
0.0
140
0.0
141
0.0
142
1.0
143
1.0
 70
   688
 72
     0
 73
     0
 74
     5
  7

 75
    16
 76
     0
 77
     2
 78
   300
147
1.0
148
0.0
149
0.0
100
AcDbLayout
  1
Layout2
 70
     1
 71
     2
 10
0.0
 20
0.0
 11
0.0
 21
0.0
 12
0.0
 22
0.0
 32
0.0
 14
0.0
 24
0.0
 34
0.0
 15
0.0
 25
0.0
 35
0.0
146
0.0
 13
0.0
 23
0.0
 33
0.0
 16
1.0
 26
0.0
 36
0.0
 17
0.0
 27
1.0
 37
0.0
 76
     0
330
23
  0
LAYOUT
  5
22
102
{ACAD_REACTORS
330
1A
102
}
330
1A
100
AcDbPlotSettings
  1

  2
none_device
  4

  6

 40
0.0
 41
0.0
 42
0.0
 43
0.0
 44
0.0
 45
0.0
 46
0.0
 47
0.0
 48
0.0
 49
0.0
140
0.0
141
0.0
142
1.0
143
1.0
 70
  1712
 72
     0
 73
     0
 74
     0
  7

 75
     0
 76
     0
 77
     2
 78
   300
147
1.0
148
0.0
149
0.0
100
AcDbLayout
  1
Model
 70
     1
 71
     0
 10
0.0
 20
0.0
 11
12.0
 21
9.0
 12
0.0
 22
0.0
 32
0.0
 14
1.000000000000000E+20
 24
1.000000000000000E+20
 34
1.000000000000000E+20
 15
-1.000000000000000E+20
 25
-1.000000000000000E+20
 35
-1.000000000000000E+20
146
0.0
 13
0.0
 23
0.0
 33
0.0
 16
1.0
 26
0.0
 36
0.0
 17
0.0
 27
1.0
 37
0.0
 76
     0
330
1F
331
29
  0
MATERIAL
  5
3D
102
{ACAD_REACTORS
330
3B
102
}
330
3B
100
AcDbMaterial
  1
ByBlock
 72
     1
 94
      127
  0
MATERIAL
  5
3C
102
{ACAD_REACTORS
330
3B
102
}
330
3B
100
AcDbMaterial
  1
ByLayer
 72
     1
 94
      127
  0
MATERIAL
  5
3E
102
{ACAD_REACTORS
330
3B
102
}
330
3B
100
AcDbMaterial
  1
Global
 72
     1
 94
      127
  0
MLINESTYLE
  5
18
102
{ACAD_REACTORS
330
17
102
}
330
17
100
AcDbMlineStyle
  2
Standard
 70
     0
  3

 62
   256
 51
90.0
 52
90.0
 71
     2
 49
0.5
 62
   256
  6
BYLAYER
 49
-0.5
 62
   256
  6
BYLAYER
  0
ACDBPLACEHOLDER
  5
F
102
{ACAD_REACTORS
330
E
102
}
330
E
  0
VISUALSTYLE
  5
2F
102
{ACAD_REACTORS
330
2A
102
}
330
2A
100
AcDbVisualStyle
  2
2dWireframe
 70
     4
177
     2
291
     0
 71
     0
176
     1
 72
     2
176
     1
 73
     0
176
     1
 90
        0
176
     1
 40
-0.6
176
     1
 41
-30.0
176
     1
 62
     5
 63
     7
421
 16777215
176
     1
 74
     1
176
     1
 91
        4
176
     1
 64
     7
176
     1
 65
   257
176
     1
 75
     1
176
     1
175
     1
176
     1
 42
1.0
176
     1
 92
        0
176
     1
 66
   257
176
     1
 43
1.0
176
     1
 76
     1
176
     1
 77
     6
176
     1
 78
     2
176
     1
 67
     7
176
     1
 79
     5
176
     1
170
     0
176
     1
171
     0
176
     1
290
     0
176
     1
 93
        1
176
     1
 44
0.0
176
     1
173
     0
176
     1
  0
VISUALSTYLE
  5
31
102
{ACAD_REACTORS
330
2A
102
}
330
2A
100
AcDbVisualStyle
  2
3D Hidden
 70
     6
177
     2
291
     0
 71
     1
176
     1
 72
     2
176
     1
 73
     2
176
     1
 90
        0
176
     1
 40
-0.6
176
     1
 41
-30.0
176
     1
 62
     5
 63
     7
421
 16777215
176
     1
 74
     2
176
     1
 91
        2
176
     1
 64
     7
176
     1
 65
   257
176
     1
 75
     2
176
     1
175
     1
176
     1
 42
40.0
176
     1
 92
        0
176
     1
 66
   257
176
     1
 43
1.0
176
     1
 76
     1
176
     1
 77
     6
176
     1
 78
     2
176
     1
 67
     7
176
     1
 79
     3
176
     1
170
     0
176
     1
171
     0
176
     1
290
     0
176
     1
 93
        1
176
     1
 44
0.0
176
     1
173
     0
176
     1
  0
VISUALSTYLE
  5
30
102
{ACAD_REACTORS
330
2A
102
}
330
2A
100
AcDbVisualStyle
  2
3dWireframe
 70
     5
177
     2
291
     0
 71
     0
176
     1
 72
     2
176
     1
 73
     0
176
     1
 90
        0
176
     1
 40
-0.6
176
     1
 41
-30.0
176
     1
 62
     5
 63
     7
421
 16777215
176
     1
 74
     1
176
     1
 91
        4
176
     1
 64
     7
176
     1
 65
   257
176
     1
 75
     1
176
     1
175
     1
176
     1
 42
1.0
176
     1
 92
        0
176
     1
 66
   257
176
     1
 43
1.0
176
     1
 76
     1
176
     1
 77
     6
176
     1
 78
     2
176
     1
 67
     7
176
     1
 79
     5
176
     1
170
     0
176
     1
171
     0
176
     1
290
     0
176
     1
 93
        1
176
     1
 44
0.0
176
     1
173
     0
176
     1
  0
VISUALSTYLE
  5
32
102
{ACAD_REACTORS
330
2A
102
}
330
2A
100
AcDbVisualStyle
  2
Basic
 70
     7
177
     2
291
     1
 71
     1
176
     1
 72
     0
176
     1
 73
     1
176
     1
 90
        0
176
     1
 40
-0.6
176
     1
 41
-30.0
176
     1
 62
     5
 63
     7
421
 16777215
176
     1
 74
     0
176
     1
 91
        4
176
     1
 64
     7
176
     1
 65
   257
176
     1
 75
     1
176
     1
175
     1
176
     1
 42
1.0
176
     1
 92
        8
176
     1
 66
     7
176
     1
 43
1.0
176
     1
 76
     1
176
     1
 77
     6
176
     1
 78
     2
176
     1
 67
     7
176
     1
 79
     5
176
     1
170
     0
176
     1
171
     0
176
     1
290
     0
176
     1
 93
        1
176
     1
 44
0.0
176
     1
173
     0
176
     1
  0
VISUALSTYLE
  5
36
102
{ACAD_REACTORS
330
2A
102
}
330
2A
100
AcDbVisualStyle
  2
Brighten
 70
    12
177
     2
291
     1
 71
     2
176
     1
 72
     2
176
     1
 73
     0
176
     1
 90
        0
176
     1
 40
-0.6
176
     1
 41
-30.0
176
     1
 62
     5
 63
     7
421
 16777215
176
     1
 74
     1
176
     1
 91
        4
176
     1
 64
     7
176
     1
 65
   257
176
     1
 75
     1
176
     1
175
     1
176
     1
 42
1.0
176
     1
 92
        8
176
     1
 66
     7
176
     1
 43
1.0
176
     1
 76
     1
176
     1
 77
     6
176
     1
 78
     2
176
     1
 67
     7
176
     1
 79
     5
176
     1
170
     0
176
     1
171
     0
176
     1
290
     0
176
     1
 93
        1
176
     1
 44
50.0
176
     1
173
     0
176
     1
  0
VISUALSTYLE
  5
3A
102
{ACAD_REACTORS
330
2A
102
}
330
2A
100
AcDbVisualStyle
  2
ColorChange
 70
    16
177
     2
291
     1
 71
     2
176
     1
 72
     2
176
     1
 73
     3
176
     1
 90
        0
176
     1
 40
-0.6
176
     1
 41
-30.0
176
     1
 62
     5
 63
     8
421
  8421504
176
     1
 74
     1
176
     1
 91
        4
176
     1
 64
     7
176
     1
 65
   257
176
     1
 75
     1
176
     1
175
     1
176
     1
 42
1.0
176
     1
 92
        8
176
     1
 66
     8
424
  8421504
176
     1
 43
1.0
176
     1
 76
     1
176
     1
 77
     6
176
     1
 78
     2
176
     1
 67
     7
176
     1
 79
     5
176
     1
170
     0
176
     1
171
     0
176
     1
290
     0
176
     1
 93
        1
176
     1
 44
0.0
176
     1
173
     0
176
     1
  0
VISUALSTYLE
  5
34
102
{ACAD_REACTORS
330
2A
102
}
330
2A
100
AcDbVisualStyle
  2
Conceptual
 70
     9
177
     2
291
     0
 71
     3
176
     1
 72
     2
176
     1
 73
     0
176
     1
 90
        0
176
     1
 40
-0.6
176
     1
 41
-30.0
176
     1
 62
     5
 63
     7
421
 16777215
176
     1
 74
     2
176
     1
 91
        2
176
     1
 64
     7
176
     1
 65
   257
176
     1
 75
     1
176
     1
175
     1
176
     1
 42
40.0
176
     1
 92
        8
176
     1
 66
     7
176
     1
 43
1.0
176
     1
 76
     1
176
     1
 77
     6
176
     1
 78
     2
176
     1
 67
     7
176
     1
 79
     3
176
     1
170
     0
176
     1
171
     0
176
     1
290
     0
176
     1
 93
        1
176
     1
 44
0.0
176
     1
173
     0
176
     1
  0
VISUALSTYLE
  5
35
102
{ACAD_REACTORS
330
2A
102
}
330
2A
100
AcDbVisualStyle
  2
Dim
 70
    11
177
     2
291
     1
 71
     2
176
     1
 72
     2
176
     1
 73
     0
176
     1
 90
        0
176
     1
 40
-0.6
176
     1
 41
-30.0
176
     1
 62
     5
 63
     7
421
 16777215
176
     1
 74
     1
176
     1
 91
        4
176
     1
 64
     7
176
     1
 65
   257
176
     1
 75
     1
176
     1
175
     1
176
     1
 42
1.0
176
     1
 92
        8
176
     1
 66
     7
176
     1
 43
1.0
176
     1
 76
     1
176
     1
 77
     6
176
     1
 78
     2
176
     1
 67
     7
176
     1
 79
     5
176
     1
170
     0
176
     1
171
     0
176
     1
290
     0
176
     1
 93
        1
176
     1
 44
-50.0
176
     1
173
     0
176
     1
  0
VISUALSTYLE
  5
39
102
{ACAD_REACTORS
330
2A
102
}
330
2A
100
AcDbVisualStyle
  2
Facepattern
 70
    15
177
     2
291
     1
 71
     2
176
     1
 72
     2
176
     1
 73
     0
176
     1
 90
        0
176
     1
 40
-0.6
176
     1
 41
-30.0
176
     1
 62
     5
 63
     7
421
 16777215
176
     1
 74
     1
176
     1
 91
        4
176
     1
 64
     7
176
     1
 65
   257
176
     1
 75
     1
176
     1
175
     1
176
     1
 42
1.0
176
     1
 92
        8
176
     1
 66
     7
176
     1
 43
1.0
176
     1
 76
     1
176
     1
 77
     6
176
     1
 78
     2
176
     1
 67
     7
176
     1
 79
     5
176
     1
170
     0
176
     1
171
     0
176
     1
290
     0
176
     1
 93
        1
176
     1
 44
0.0
176
     1
173
     0
176
     1
  0
VISUALSTYLE
  5
2B
102
{ACAD_REACTORS
330
2A
102
}
330
2A
100
AcDbVisualStyle
  2
Flat
 70
     0
177
     2
291
     1
 71
     2
176
     1
 72
     1
176
     1
 73
     1
176
     1
 90
        2
176
     1
 40
-0.6
176
     1
 41
30.0
176
     1
 62
     5
 63
     7
421
 16777215
176
     1
 74
     0
176
     1
 91
        4
176
     1
 64
     7
176
     1
 65
   257
176
     1
 75
     1
176
     1
175
     1
176
     1
 42
1.0
176
     1
 92
        8
176
     1
 66
     7
176
     1
 43
1.0
176
     1
 76
     1
176
     1
 77
     6
176
     1
 78
     2
176
     1
 67
     7
176
     1
 79
     5
176
     1
170
     0
176
     1
171
     0
176
     1
290
     0
176
     1
 93
       13
176
     1
 44
0.0
176
     1
173
     0
176
     1
  0
VISUALSTYLE
  5
2C
102
{ACAD_REACTORS
330
2A
102
}
330
2A
100
AcDbVisualStyle
  2
FlatWithEdges
 70
     1
177
     2
291
     1
 71
     2
176
     1
 72
     1
176
     1
 73
     1
176
     1
 90
        2
176
     1
 40
-0.6
176
     1
 41
30.0
176
     1
 62
     5
 63
     7
421
 16777215
176
     1
 74
     1
176
     1
 91
        4
176
     1
 64
     7
176
     1
 65
   257
176
     1
 75
     1
176
     1
175
     1
176
     1
 42
1.0
176
     1
 92
        0
176
     1
 66
   257
176
     1
 43
1.0
176
     1
 76
     1
176
     1
 77
     6
176
     1
 78
     2
176
     1
 67
     7
176
     1
 79
     5
176
     1
170
     0
176
     1
171
     0
176
     1
290
     0
176
     1
 93
       13
176
     1
 44
0.0
176
     1
173
     0
176
     1
  0
VISUALSTYLE
  5
2D
102
{ACAD_REACTORS
330
2A
102
}
330
2A
100
AcDbVisualStyle
  2
Gouraud
 70
     2
177
     2
291
     1
 71
     2
176
     1
 72
     2
176
     1
 73
     1
176
     1
 90
        2
176
     1
 40
-0.6
176
     1
 41
30.0
176
     1
 62
     5
 63
     7
421
 16777215
176
     1
 74
     0
176
     1
 91
        4
176
     1
 64
     7
176
     1
 65
   257
176
     1
 75
     1
176
     1
175
     1
176
     1
 42
1.0
176
     1
 92
        0
176
     1
 66
     7
176
     1
 43
1.0
176
     1
 76
     1
176
     1
 77
     6
176
     1
 78
     2
176
     1
 67
     7
176
     1
 79
     5
176
     1
170
     0
176
     1
171
     0
176
     1
290
     0
176
     1
 93
       13
176
     1
 44
0.0
176
     1
173
     0
176
     1
  0
VISUALSTYLE
  5
2E
102
{ACAD_REACTORS
330
2A
102
}
330
2A
100
AcDbVisualStyle
  2
GouraudWithEdges
 70
     3
177
     2
291
     1
 71
     2
176
     1
 72
     2
176
     1
 73
     1
176
     1
 90
        2
176
     1
 40
-0.6
176
     1
 41
30.0
176
     1
 62
     5
 63
     7
421
 16777215
176
     1
 74
     1
176
     1
 91
        4
176
     1
 64
     7
176
     1
 65
   257
176
     1
 75
     1
176
     1
175
     1
176
     1
 42
1.0
176
     1
 92
        0
176
     1
 66
   257
176
     1
 43
1.0
176
     1
 76
     1
176
     1
 77
     6
176
     1
 78
     2
176
     1
 67
     7
176
     1
 79
     5
176
     1
170
     0
176
     1
171
     0
176
     1
290
     0
176
     1
 93
       13
176
     1
 44
0.0
176
     1
173
     0
176
     1
  0
VISUALSTYLE
  5
38
102
{ACAD_REACTORS
330
2A
102
}
330
2A
100
AcDbVisualStyle
  2
Linepattern
 70
    14
177
     2
291
     1
 71
     2
176
     1
 72
     2
176
     1
 73
     0
176
     1
 90
        0
176
     1
 40
-0.6
176
     1
 41
-30.0
176
     1
 62
     5
 63
     7
421
 16777215
176
     1
 74
     1
176
     1
 91
        4
176
     1
 64
     7
176
     1
 65
   257
176
     1
 75
     7
176
     1
175
     7
176
     1
 42
1.0
176
     1
 92
        8
176
     1
 66
     7
176
     1
 43
1.0
176
     1
 76
     1
176
     1
 77
     6
176
     1
 78
     2
176
     1
 67
     7
176
     1
 79
     5
176
     1
170
     0
176
     1
171
     0
176
     1
290
     0
176
     1
 93
        1
176
     1
 44
0.0
176
     1
173
     0
176
     1
  0
VISUALSTYLE
  5
33
102
{ACAD_REACTORS
330
2A
102
}
330
2A
100
AcDbVisualStyle
  2
Realistic
 70
     8
177
     2
291
     0
 71
     2
176
     1
 72
     2
176
     1
 73
     0
176
     1
 90
        0
176
     1
 40
-0.6
176
     1
 41
-30.0
176
     1
 62
     5
 63
     7
421
 16777215
176
     1
 74
     1
176
     1
 91
        0
176
     1
 64
     7
176
     1
 65
   257
176
     1
 75
     1
176
     1
175
     1
176
     1
 42
1.0
176
     1
 92
        8
176
     1
 66
     8
424
  7895160
176
     1
 43
1.0
176
     1
 76
     1
176
     1
 77
     6
176
     1
 78
     2
176
     1
 67
     7
176
     1
 79
     5
176
     1
170
     0
176
     1
171
     0
176
     1
290
     0
176
     1
 93
       13
176
     1
 44
0.0
176
     1
173
     0
176
     1
  0
VISUALSTYLE
  5
37
102
{ACAD_REACTORS
330
2A
102
}
330
2A
100
AcDbVisualStyle
  2
Thicken
 70
    13
177
     2
291
     1
 71
     2
176
     1
 72
     2
176
     1
 73
     0
176
     1
 90
        0
176
     1
 40
-0.6
176
     1
 41
-30.0
176
     1
 62
     5
 63
     7
421
 16777215
176
     1
 74
     1
176
     1
 91
        4
176
     1
 64
     7
176
     1
 65
   257
176
     1
 75
     1
176
     1
175
     1
176
     1
 42
1.0
176
     1
 92
       12
176
     1
 66
     7
176
     1
 43
1.0
176
     1
 76
     1
176
     1
 77
     6
176
     1
 78
     2
176
     1
 67
     7
176
     1
 79
     5
176
     1
170
     0
176
     1
171
     0
176
     1
290
     0
176
     1
 93
        1
176
     1
 44
0.0
176
     1
173
     0
176
     1
  0
ENDSEC
  0
EOF
